%FSLAX45Y45*%
G04 Gerber Fmt 4.5, Leading zero omitted, Abs format (unit mm)*
G04 Created by KiCad (PCBNEW (5.1.5)-3) date 2020-02-09 12:12:59*
%MOMM*%
%LPD*%
G04 APERTURE LIST*
%TA.AperFunction,Profile*%
%ADD10C,0.100000*%
%TD*%
%ADD11C,0.200000*%
%ADD12C,0.300000*%
G04 APERTURE END LIST*
D10*
X-381000Y5969000D02*
G75*
G03X-381000Y6223000I0J127000D01*
G01*
X0Y6223000D02*
G75*
G03X0Y5969000I0J-127000D01*
G01*
X14732000Y5969000D02*
G75*
G03X14732000Y6223000I0J127000D01*
G01*
X15113000Y6223000D02*
G75*
G03X15113000Y5969000I0J-127000D01*
G01*
X14732000Y5969000D02*
X0Y5969000D01*
X0Y6223000D02*
X14732000Y6223000D01*
X-381000Y5969000D02*
X-381000Y5905500D01*
X-381000Y6223000D02*
X-381000Y6286500D01*
X15113000Y-381000D02*
X14859000Y-381000D01*
X15113000Y5969000D02*
X15113000Y-381000D01*
X15113000Y10287000D02*
X15113000Y6223000D01*
X14859000Y10287000D02*
X15113000Y10287000D01*
X-381000Y5905500D02*
X-381000Y5715000D01*
X-381000Y6286500D02*
X-381000Y6477000D01*
X-381000Y10287000D02*
X-381000Y6477000D01*
X-381000Y-381000D02*
X-381000Y5715000D01*
X14859000Y-381000D02*
X-381000Y-381000D01*
X-381000Y10287000D02*
X14859000Y10287000D01*
D11*
X6739100Y7446800D02*
X6799100Y7386800D01*
X6799100Y7446800D02*
X6739100Y7386800D01*
X6739100Y7192800D02*
X6799100Y7132800D01*
X6799100Y7192800D02*
X6739100Y7132800D01*
X6973100Y7319800D02*
X7033100Y7259800D01*
X7033100Y7319800D02*
X6973100Y7259800D01*
X7729700Y7434100D02*
X7789700Y7374100D01*
X7789700Y7434100D02*
X7729700Y7374100D01*
X7729700Y7180100D02*
X7789700Y7120100D01*
X7789700Y7180100D02*
X7729700Y7120100D01*
X7963700Y7307100D02*
X8023700Y7247100D01*
X8023700Y7307100D02*
X7963700Y7247100D01*
X8301200Y9656600D02*
X8361200Y9596600D01*
X8361200Y9656600D02*
X8301200Y9596600D01*
X8301200Y8132600D02*
X8361200Y8072600D01*
X8361200Y8132600D02*
X8301200Y8072600D01*
X8555200Y9656600D02*
X8615200Y9596600D01*
X8615200Y9656600D02*
X8555200Y9596600D01*
X8555200Y8132600D02*
X8615200Y8072600D01*
X8615200Y8132600D02*
X8555200Y8072600D01*
X8809200Y9656600D02*
X8869200Y9596600D01*
X8869200Y9656600D02*
X8809200Y9596600D01*
X8809200Y8132600D02*
X8869200Y8072600D01*
X8869200Y8132600D02*
X8809200Y8072600D01*
X9063200Y9656600D02*
X9123200Y9596600D01*
X9123200Y9656600D02*
X9063200Y9596600D01*
X9063200Y8132600D02*
X9123200Y8072600D01*
X9123200Y8132600D02*
X9063200Y8072600D01*
X9317200Y9656600D02*
X9377200Y9596600D01*
X9377200Y9656600D02*
X9317200Y9596600D01*
X9317200Y8132600D02*
X9377200Y8072600D01*
X9377200Y8132600D02*
X9317200Y8072600D01*
X9571200Y9656600D02*
X9631200Y9596600D01*
X9631200Y9656600D02*
X9571200Y9596600D01*
X9571200Y8132600D02*
X9631200Y8072600D01*
X9631200Y8132600D02*
X9571200Y8072600D01*
X9177500Y7434100D02*
X9237500Y7374100D01*
X9237500Y7434100D02*
X9177500Y7374100D01*
X9177500Y7180100D02*
X9237500Y7120100D01*
X9237500Y7180100D02*
X9177500Y7120100D01*
X9411500Y7307100D02*
X9471500Y7247100D01*
X9471500Y7307100D02*
X9411500Y7247100D01*
X10625300Y7434100D02*
X10685300Y7374100D01*
X10685300Y7434100D02*
X10625300Y7374100D01*
X10625300Y7180100D02*
X10685300Y7120100D01*
X10685300Y7180100D02*
X10625300Y7120100D01*
X10859300Y7307100D02*
X10919300Y7247100D01*
X10919300Y7307100D02*
X10859300Y7247100D01*
X11055350Y8102600D02*
G75*
G03X11055350Y8102600I-31750J0D01*
G01*
X11055350Y7467600D02*
G75*
G03X11055350Y7467600I-31750J0D01*
G01*
X13544550Y7442200D02*
G75*
G03X13544550Y7442200I-31750J0D01*
G01*
X14192250Y7442200D02*
G75*
G03X14192250Y7442200I-31750J0D01*
G01*
X800100Y4427850D02*
X800100Y4347850D01*
X760100Y4387850D02*
X840100Y4387850D01*
X1562100Y4427850D02*
X1562100Y4347850D01*
X1522100Y4387850D02*
X1602100Y4387850D01*
X4445000Y9438000D02*
X4445000Y9358000D01*
X4405000Y9398000D02*
X4485000Y9398000D01*
X4445000Y8676000D02*
X4445000Y8596000D01*
X4405000Y8636000D02*
X4485000Y8636000D01*
X10718800Y5234300D02*
X10718800Y5154300D01*
X10678800Y5194300D02*
X10758800Y5194300D01*
X10718800Y4472300D02*
X10718800Y4392300D01*
X10678800Y4432300D02*
X10758800Y4432300D01*
X1562100Y4104000D02*
X1562100Y4024000D01*
X1522100Y4064000D02*
X1602100Y4064000D01*
X1562100Y3854000D02*
X1562100Y3774000D01*
X1522100Y3814000D02*
X1602100Y3814000D01*
X7302500Y7583800D02*
X7302500Y7503800D01*
X7262500Y7543800D02*
X7342500Y7543800D01*
X7302500Y6821800D02*
X7302500Y6741800D01*
X7262500Y6781800D02*
X7342500Y6781800D01*
X2921000Y9438000D02*
X2921000Y9358000D01*
X2881000Y9398000D02*
X2961000Y9398000D01*
X2921000Y8676000D02*
X2921000Y8596000D01*
X2881000Y8636000D02*
X2961000Y8636000D01*
X1397000Y9438000D02*
X1397000Y9358000D01*
X1357000Y9398000D02*
X1437000Y9398000D01*
X1397000Y8676000D02*
X1397000Y8596000D01*
X1357000Y8636000D02*
X1437000Y8636000D01*
X11988800Y1233800D02*
X11988800Y1153800D01*
X11948800Y1193800D02*
X12028800Y1193800D01*
X11988800Y471800D02*
X11988800Y391800D01*
X11948800Y431800D02*
X12028800Y431800D01*
X11976100Y8168000D02*
X11976100Y8088000D01*
X11936100Y8128000D02*
X12016100Y8128000D01*
X12738100Y8168000D02*
X12738100Y8088000D01*
X12698100Y8128000D02*
X12778100Y8128000D01*
X11988800Y5234300D02*
X11988800Y5154300D01*
X11948800Y5194300D02*
X12028800Y5194300D01*
X11988800Y4472300D02*
X11988800Y4392300D01*
X11948800Y4432300D02*
X12028800Y4432300D01*
X3238500Y4421500D02*
X3238500Y4341500D01*
X3198500Y4381500D02*
X3278500Y4381500D01*
X3488500Y4421500D02*
X3488500Y4341500D01*
X3448500Y4381500D02*
X3528500Y4381500D01*
X3683000Y9438000D02*
X3683000Y9358000D01*
X3643000Y9398000D02*
X3723000Y9398000D01*
X3683000Y8676000D02*
X3683000Y8596000D01*
X3643000Y8636000D02*
X3723000Y8636000D01*
X13169900Y9768200D02*
X13169900Y9688200D01*
X13129900Y9728200D02*
X13209900Y9728200D01*
X13169900Y9514200D02*
X13169900Y9434200D01*
X13129900Y9474200D02*
X13209900Y9474200D01*
X13169900Y9260200D02*
X13169900Y9180200D01*
X13129900Y9220200D02*
X13209900Y9220200D01*
X13169900Y9006200D02*
X13169900Y8926200D01*
X13129900Y8966200D02*
X13209900Y8966200D01*
X13169900Y8752200D02*
X13169900Y8672200D01*
X13129900Y8712200D02*
X13209900Y8712200D01*
X13169900Y8498200D02*
X13169900Y8418200D01*
X13129900Y8458200D02*
X13209900Y8458200D01*
X13169900Y8244200D02*
X13169900Y8164200D01*
X13129900Y8204200D02*
X13209900Y8204200D01*
X13169900Y7990200D02*
X13169900Y7910200D01*
X13129900Y7950200D02*
X13209900Y7950200D01*
X13931900Y9768200D02*
X13931900Y9688200D01*
X13891900Y9728200D02*
X13971900Y9728200D01*
X13931900Y9514200D02*
X13931900Y9434200D01*
X13891900Y9474200D02*
X13971900Y9474200D01*
X13931900Y9260200D02*
X13931900Y9180200D01*
X13891900Y9220200D02*
X13971900Y9220200D01*
X13931900Y9006200D02*
X13931900Y8926200D01*
X13891900Y8966200D02*
X13971900Y8966200D01*
X13931900Y8752200D02*
X13931900Y8672200D01*
X13891900Y8712200D02*
X13971900Y8712200D01*
X13931900Y8498200D02*
X13931900Y8418200D01*
X13891900Y8458200D02*
X13971900Y8458200D01*
X13931900Y8244200D02*
X13931900Y8164200D01*
X13891900Y8204200D02*
X13971900Y8204200D01*
X13931900Y7990200D02*
X13931900Y7910200D01*
X13891900Y7950200D02*
X13971900Y7950200D01*
X-127000Y9438000D02*
X-127000Y9358000D01*
X-167000Y9398000D02*
X-87000Y9398000D01*
X-127000Y8676000D02*
X-127000Y8596000D01*
X-167000Y8636000D02*
X-87000Y8636000D01*
X7213600Y3723000D02*
X7213600Y3643000D01*
X7173600Y3683000D02*
X7253600Y3683000D01*
X7213600Y2961000D02*
X7213600Y2881000D01*
X7173600Y2921000D02*
X7253600Y2921000D01*
X11976100Y7177400D02*
X11976100Y7097400D01*
X11936100Y7137400D02*
X12016100Y7137400D01*
X12738100Y7177400D02*
X12738100Y7097400D01*
X12698100Y7137400D02*
X12778100Y7137400D01*
X1181100Y1691000D02*
X1181100Y1611000D01*
X1141100Y1651000D02*
X1221100Y1651000D01*
X1181100Y1441000D02*
X1181100Y1361000D01*
X1141100Y1401000D02*
X1221100Y1401000D01*
X5207000Y9438000D02*
X5207000Y9358000D01*
X5167000Y9398000D02*
X5247000Y9398000D01*
X5207000Y8676000D02*
X5207000Y8596000D01*
X5167000Y8636000D02*
X5247000Y8636000D01*
X11976100Y7507600D02*
X11976100Y7427600D01*
X11936100Y7467600D02*
X12016100Y7467600D01*
X12738100Y7507600D02*
X12738100Y7427600D01*
X12698100Y7467600D02*
X12778100Y7467600D01*
X3810000Y4421500D02*
X3810000Y4341500D01*
X3770000Y4381500D02*
X3850000Y4381500D01*
X4060000Y4421500D02*
X4060000Y4341500D01*
X4020000Y4381500D02*
X4100000Y4381500D01*
X11747500Y8656950D02*
X11747500Y8576950D01*
X11707500Y8616950D02*
X11787500Y8616950D01*
X12509500Y8656950D02*
X12509500Y8576950D01*
X12469500Y8616950D02*
X12549500Y8616950D01*
X2006600Y3596000D02*
X2006600Y3516000D01*
X1966600Y3556000D02*
X2046600Y3556000D01*
X2006600Y2072000D02*
X2006600Y1992000D01*
X1966600Y2032000D02*
X2046600Y2032000D01*
X2260600Y3596000D02*
X2260600Y3516000D01*
X2220600Y3556000D02*
X2300600Y3556000D01*
X2260600Y2072000D02*
X2260600Y1992000D01*
X2220600Y2032000D02*
X2300600Y2032000D01*
X2514600Y3596000D02*
X2514600Y3516000D01*
X2474600Y3556000D02*
X2554600Y3556000D01*
X2514600Y2072000D02*
X2514600Y1992000D01*
X2474600Y2032000D02*
X2554600Y2032000D01*
X2768600Y3596000D02*
X2768600Y3516000D01*
X2728600Y3556000D02*
X2808600Y3556000D01*
X2768600Y2072000D02*
X2768600Y1992000D01*
X2728600Y2032000D02*
X2808600Y2032000D01*
X3022600Y3596000D02*
X3022600Y3516000D01*
X2982600Y3556000D02*
X3062600Y3556000D01*
X3022600Y2072000D02*
X3022600Y1992000D01*
X2982600Y2032000D02*
X3062600Y2032000D01*
X3276600Y3596000D02*
X3276600Y3516000D01*
X3236600Y3556000D02*
X3316600Y3556000D01*
X3276600Y2072000D02*
X3276600Y1992000D01*
X3236600Y2032000D02*
X3316600Y2032000D01*
X3530600Y3596000D02*
X3530600Y3516000D01*
X3490600Y3556000D02*
X3570600Y3556000D01*
X3530600Y2072000D02*
X3530600Y1992000D01*
X3490600Y2032000D02*
X3570600Y2032000D01*
X3784600Y3596000D02*
X3784600Y3516000D01*
X3744600Y3556000D02*
X3824600Y3556000D01*
X3784600Y2072000D02*
X3784600Y1992000D01*
X3744600Y2032000D02*
X3824600Y2032000D01*
X4038600Y3596000D02*
X4038600Y3516000D01*
X3998600Y3556000D02*
X4078600Y3556000D01*
X4038600Y2072000D02*
X4038600Y1992000D01*
X3998600Y2032000D02*
X4078600Y2032000D01*
X4292600Y3596000D02*
X4292600Y3516000D01*
X4252600Y3556000D02*
X4332600Y3556000D01*
X4292600Y2072000D02*
X4292600Y1992000D01*
X4252600Y2032000D02*
X4332600Y2032000D01*
X4546600Y3596000D02*
X4546600Y3516000D01*
X4506600Y3556000D02*
X4586600Y3556000D01*
X4546600Y2072000D02*
X4546600Y1992000D01*
X4506600Y2032000D02*
X4586600Y2032000D01*
X4800600Y3596000D02*
X4800600Y3516000D01*
X4760600Y3556000D02*
X4840600Y3556000D01*
X4800600Y2072000D02*
X4800600Y1992000D01*
X4760600Y2032000D02*
X4840600Y2032000D01*
X5054600Y3596000D02*
X5054600Y3516000D01*
X5014600Y3556000D02*
X5094600Y3556000D01*
X5054600Y2072000D02*
X5054600Y1992000D01*
X5014600Y2032000D02*
X5094600Y2032000D01*
X5308600Y3596000D02*
X5308600Y3516000D01*
X5268600Y3556000D02*
X5348600Y3556000D01*
X5308600Y2072000D02*
X5308600Y1992000D01*
X5268600Y2032000D02*
X5348600Y2032000D01*
X5562600Y3596000D02*
X5562600Y3516000D01*
X5522600Y3556000D02*
X5602600Y3556000D01*
X5562600Y2072000D02*
X5562600Y1992000D01*
X5522600Y2032000D02*
X5602600Y2032000D01*
X5816600Y3596000D02*
X5816600Y3516000D01*
X5776600Y3556000D02*
X5856600Y3556000D01*
X5816600Y2072000D02*
X5816600Y1992000D01*
X5776600Y2032000D02*
X5856600Y2032000D01*
X6070600Y3596000D02*
X6070600Y3516000D01*
X6030600Y3556000D02*
X6110600Y3556000D01*
X6070600Y2072000D02*
X6070600Y1992000D01*
X6030600Y2032000D02*
X6110600Y2032000D01*
X6324600Y3596000D02*
X6324600Y3516000D01*
X6284600Y3556000D02*
X6364600Y3556000D01*
X6324600Y2072000D02*
X6324600Y1992000D01*
X6284600Y2032000D02*
X6364600Y2032000D01*
X6578600Y3596000D02*
X6578600Y3516000D01*
X6538600Y3556000D02*
X6618600Y3556000D01*
X6578600Y2072000D02*
X6578600Y1992000D01*
X6538600Y2032000D02*
X6618600Y2032000D01*
X6832600Y3596000D02*
X6832600Y3516000D01*
X6792600Y3556000D02*
X6872600Y3556000D01*
X6832600Y2072000D02*
X6832600Y1992000D01*
X6792600Y2032000D02*
X6872600Y2032000D01*
X3429000Y4040500D02*
X3429000Y3960500D01*
X3389000Y4000500D02*
X3469000Y4000500D01*
X3917000Y4040500D02*
X3917000Y3960500D01*
X3877000Y4000500D02*
X3957000Y4000500D01*
X7213600Y2707000D02*
X7213600Y2627000D01*
X7173600Y2667000D02*
X7253600Y2667000D01*
X7213600Y1945000D02*
X7213600Y1865000D01*
X7173600Y1905000D02*
X7253600Y1905000D01*
X11296650Y7583800D02*
X11296650Y7503800D01*
X11256650Y7543800D02*
X11336650Y7543800D01*
X11296650Y6821800D02*
X11296650Y6741800D01*
X11256650Y6781800D02*
X11336650Y6781800D01*
X13995400Y7672700D02*
X13995400Y7592700D01*
X13955400Y7632700D02*
X14035400Y7632700D01*
X14757400Y7672700D02*
X14757400Y7592700D01*
X14717400Y7632700D02*
X14797400Y7632700D01*
X11976100Y9374500D02*
X11976100Y9294500D01*
X11936100Y9334500D02*
X12016100Y9334500D01*
X12738100Y9374500D02*
X12738100Y9294500D01*
X12698100Y9334500D02*
X12778100Y9334500D01*
X635000Y9438000D02*
X635000Y9358000D01*
X595000Y9398000D02*
X675000Y9398000D01*
X635000Y8676000D02*
X635000Y8596000D01*
X595000Y8636000D02*
X675000Y8636000D01*
X800100Y4751700D02*
X800100Y4671700D01*
X760100Y4711700D02*
X840100Y4711700D01*
X1562100Y4751700D02*
X1562100Y4671700D01*
X1522100Y4711700D02*
X1602100Y4711700D01*
X8509000Y7583800D02*
X8509000Y7503800D01*
X8469000Y7543800D02*
X8549000Y7543800D01*
X8509000Y6821800D02*
X8509000Y6741800D01*
X8469000Y6781800D02*
X8549000Y6781800D01*
X13995400Y7253600D02*
X13995400Y7173600D01*
X13955400Y7213600D02*
X14035400Y7213600D01*
X14757400Y7253600D02*
X14757400Y7173600D01*
X14717400Y7213600D02*
X14797400Y7213600D01*
X11976100Y7837800D02*
X11976100Y7757800D01*
X11936100Y7797800D02*
X12016100Y7797800D01*
X12738100Y7837800D02*
X12738100Y7757800D01*
X12698100Y7797800D02*
X12778100Y7797800D01*
X14236700Y9819000D02*
X14236700Y9739000D01*
X14196700Y9779000D02*
X14276700Y9779000D01*
X14236700Y9057000D02*
X14236700Y8977000D01*
X14196700Y9017000D02*
X14276700Y9017000D01*
X2159000Y9438000D02*
X2159000Y9358000D01*
X2119000Y9398000D02*
X2199000Y9398000D01*
X2159000Y8676000D02*
X2159000Y8596000D01*
X2119000Y8636000D02*
X2199000Y8636000D01*
X4546600Y1754500D02*
X4546600Y1674500D01*
X4506600Y1714500D02*
X4586600Y1714500D01*
X4796600Y1754500D02*
X4796600Y1674500D01*
X4756600Y1714500D02*
X4836600Y1714500D01*
X11976100Y8999850D02*
X11976100Y8919850D01*
X11936100Y8959850D02*
X12016100Y8959850D01*
X12738100Y8999850D02*
X12738100Y8919850D01*
X12698100Y8959850D02*
X12778100Y8959850D01*
X11976100Y9761850D02*
X11976100Y9681850D01*
X11936100Y9721850D02*
X12016100Y9721850D01*
X12738100Y9761850D02*
X12738100Y9681850D01*
X12698100Y9721850D02*
X12778100Y9721850D01*
X14376400Y8726800D02*
X14376400Y8646800D01*
X14336400Y8686800D02*
X14416400Y8686800D01*
X14376400Y7964800D02*
X14376400Y7884800D01*
X14336400Y7924800D02*
X14416400Y7924800D01*
X7721600Y4421500D02*
X7721600Y4341500D01*
X7681600Y4381500D02*
X7761600Y4381500D01*
X7721600Y4171500D02*
X7721600Y4091500D01*
X7681600Y4131500D02*
X7761600Y4131500D01*
X10198100Y7583800D02*
X10198100Y7503800D01*
X10158100Y7543800D02*
X10238100Y7543800D01*
X10198100Y6821800D02*
X10198100Y6741800D01*
X10158100Y6781800D02*
X10238100Y6781800D01*
X10718800Y1233800D02*
X10718800Y1153800D01*
X10678800Y1193800D02*
X10758800Y1193800D01*
X10718800Y471800D02*
X10718800Y391800D01*
X10678800Y431800D02*
X10758800Y431800D01*
X1638300Y8168000D02*
X1638300Y8088000D01*
X1598300Y8128000D02*
X1678300Y8128000D01*
X1638300Y7406000D02*
X1638300Y7326000D01*
X1598300Y7366000D02*
X1678300Y7366000D01*
X1892300Y8168000D02*
X1892300Y8088000D01*
X1852300Y8128000D02*
X1932300Y8128000D01*
X1892300Y7406000D02*
X1892300Y7326000D01*
X1852300Y7366000D02*
X1932300Y7366000D01*
X2146300Y8168000D02*
X2146300Y8088000D01*
X2106300Y8128000D02*
X2186300Y8128000D01*
X2146300Y7406000D02*
X2146300Y7326000D01*
X2106300Y7366000D02*
X2186300Y7366000D01*
X2400300Y8168000D02*
X2400300Y8088000D01*
X2360300Y8128000D02*
X2440300Y8128000D01*
X2400300Y7406000D02*
X2400300Y7326000D01*
X2360300Y7366000D02*
X2440300Y7366000D01*
X2654300Y8168000D02*
X2654300Y8088000D01*
X2614300Y8128000D02*
X2694300Y8128000D01*
X2654300Y7406000D02*
X2654300Y7326000D01*
X2614300Y7366000D02*
X2694300Y7366000D01*
X2908300Y8168000D02*
X2908300Y8088000D01*
X2868300Y8128000D02*
X2948300Y8128000D01*
X2908300Y7406000D02*
X2908300Y7326000D01*
X2868300Y7366000D02*
X2948300Y7366000D01*
X3162300Y8168000D02*
X3162300Y8088000D01*
X3122300Y8128000D02*
X3202300Y8128000D01*
X3162300Y7406000D02*
X3162300Y7326000D01*
X3122300Y7366000D02*
X3202300Y7366000D01*
X3416300Y8168000D02*
X3416300Y8088000D01*
X3376300Y8128000D02*
X3456300Y8128000D01*
X3416300Y7406000D02*
X3416300Y7326000D01*
X3376300Y7366000D02*
X3456300Y7366000D01*
X3670300Y8168000D02*
X3670300Y8088000D01*
X3630300Y8128000D02*
X3710300Y8128000D01*
X3670300Y7406000D02*
X3670300Y7326000D01*
X3630300Y7366000D02*
X3710300Y7366000D01*
X257238Y3082862D02*
X257238Y3140138D01*
X199962Y3140138D01*
X199962Y3082862D01*
X257238Y3082862D01*
X257238Y2828862D02*
X257238Y2886138D01*
X199962Y2886138D01*
X199962Y2828862D01*
X257238Y2828862D01*
X457238Y3082862D02*
X457238Y3140138D01*
X399962Y3140138D01*
X399962Y3082862D01*
X457238Y3082862D01*
X457238Y2828862D02*
X457238Y2886138D01*
X399962Y2886138D01*
X399962Y2828862D01*
X457238Y2828862D01*
X2540000Y9353000D02*
X2585000Y9398000D01*
X2540000Y9443000D01*
X2495000Y9398000D01*
X2540000Y9353000D01*
X2540000Y9099000D02*
X2585000Y9144000D01*
X2540000Y9189000D01*
X2495000Y9144000D01*
X2540000Y9099000D01*
X4826000Y9353000D02*
X4871000Y9398000D01*
X4826000Y9443000D01*
X4781000Y9398000D01*
X4826000Y9353000D01*
X4826000Y9099000D02*
X4871000Y9144000D01*
X4826000Y9189000D01*
X4781000Y9144000D01*
X4826000Y9099000D01*
X1016000Y9353000D02*
X1061000Y9398000D01*
X1016000Y9443000D01*
X971000Y9398000D01*
X1016000Y9353000D01*
X1016000Y9099000D02*
X1061000Y9144000D01*
X1016000Y9189000D01*
X971000Y9144000D01*
X1016000Y9099000D01*
X3302000Y9353000D02*
X3347000Y9398000D01*
X3302000Y9443000D01*
X3257000Y9398000D01*
X3302000Y9353000D01*
X3302000Y9099000D02*
X3347000Y9144000D01*
X3302000Y9189000D01*
X3257000Y9144000D01*
X3302000Y9099000D01*
X5588000Y9353000D02*
X5633000Y9398000D01*
X5588000Y9443000D01*
X5543000Y9398000D01*
X5588000Y9353000D01*
X5588000Y9099000D02*
X5633000Y9144000D01*
X5588000Y9189000D01*
X5543000Y9144000D01*
X5588000Y9099000D01*
X165100Y4171400D02*
X210100Y4216400D01*
X165100Y4261400D01*
X120100Y4216400D01*
X165100Y4171400D01*
X165100Y3917400D02*
X210100Y3962400D01*
X165100Y4007400D01*
X120100Y3962400D01*
X165100Y3917400D01*
X1778000Y9353000D02*
X1823000Y9398000D01*
X1778000Y9443000D01*
X1733000Y9398000D01*
X1778000Y9353000D01*
X1778000Y9099000D02*
X1823000Y9144000D01*
X1778000Y9189000D01*
X1733000Y9144000D01*
X1778000Y9099000D01*
X254000Y9353000D02*
X299000Y9398000D01*
X254000Y9443000D01*
X209000Y9398000D01*
X254000Y9353000D01*
X254000Y9099000D02*
X299000Y9144000D01*
X254000Y9189000D01*
X209000Y9144000D01*
X254000Y9099000D01*
X4064000Y9353000D02*
X4109000Y9398000D01*
X4064000Y9443000D01*
X4019000Y9398000D01*
X4064000Y9353000D01*
X4064000Y9099000D02*
X4109000Y9144000D01*
X4064000Y9189000D01*
X4019000Y9144000D01*
X4064000Y9099000D01*
X165100Y4723850D02*
X210100Y4768850D01*
X165100Y4813850D01*
X120100Y4768850D01*
X165100Y4723850D01*
X165100Y4469850D02*
X210100Y4514850D01*
X165100Y4559850D01*
X120100Y4514850D01*
X165100Y4469850D01*
X8433600Y3491700D02*
X8533600Y3391700D01*
X8533600Y3491700D02*
X8433600Y3391700D01*
X8533600Y3441700D02*
G75*
G03X8533600Y3441700I-50000J0D01*
G01*
X8433600Y3237700D02*
X8533600Y3137700D01*
X8533600Y3237700D02*
X8433600Y3137700D01*
X8533600Y3187700D02*
G75*
G03X8533600Y3187700I-50000J0D01*
G01*
X8433600Y2983700D02*
X8533600Y2883700D01*
X8533600Y2983700D02*
X8433600Y2883700D01*
X8533600Y2933700D02*
G75*
G03X8533600Y2933700I-50000J0D01*
G01*
X8433600Y2729700D02*
X8533600Y2629700D01*
X8533600Y2729700D02*
X8433600Y2629700D01*
X8533600Y2679700D02*
G75*
G03X8533600Y2679700I-50000J0D01*
G01*
X8433600Y2475700D02*
X8533600Y2375700D01*
X8533600Y2475700D02*
X8433600Y2375700D01*
X8533600Y2425700D02*
G75*
G03X8533600Y2425700I-50000J0D01*
G01*
X8433600Y2221700D02*
X8533600Y2121700D01*
X8533600Y2221700D02*
X8433600Y2121700D01*
X8533600Y2171700D02*
G75*
G03X8533600Y2171700I-50000J0D01*
G01*
X7679600Y685000D02*
X7779600Y585000D01*
X7779600Y685000D02*
X7679600Y585000D01*
X7779600Y635000D02*
G75*
G03X7779600Y635000I-50000J0D01*
G01*
X8187600Y685000D02*
X8287600Y585000D01*
X8287600Y685000D02*
X8187600Y585000D01*
X8287600Y635000D02*
G75*
G03X8287600Y635000I-50000J0D01*
G01*
X839000Y2717000D02*
X939000Y2617000D01*
X939000Y2717000D02*
X839000Y2617000D01*
X939000Y2667000D02*
G75*
G03X939000Y2667000I-50000J0D01*
G01*
X839000Y2463000D02*
X939000Y2363000D01*
X939000Y2463000D02*
X839000Y2363000D01*
X939000Y2413000D02*
G75*
G03X939000Y2413000I-50000J0D01*
G01*
X839000Y2209000D02*
X939000Y2109000D01*
X939000Y2209000D02*
X839000Y2109000D01*
X939000Y2159000D02*
G75*
G03X939000Y2159000I-50000J0D01*
G01*
X12586500Y5066500D02*
X12686500Y4966500D01*
X12686500Y5066500D02*
X12586500Y4966500D01*
X12686500Y5016500D02*
G75*
G03X12686500Y5016500I-50000J0D01*
G01*
X12840500Y5066500D02*
X12940500Y4966500D01*
X12940500Y5066500D02*
X12840500Y4966500D01*
X12940500Y5016500D02*
G75*
G03X12940500Y5016500I-50000J0D01*
G01*
X13094500Y5066500D02*
X13194500Y4966500D01*
X13194500Y5066500D02*
X13094500Y4966500D01*
X13194500Y5016500D02*
G75*
G03X13194500Y5016500I-50000J0D01*
G01*
X13348500Y5066500D02*
X13448500Y4966500D01*
X13448500Y5066500D02*
X13348500Y4966500D01*
X13448500Y5016500D02*
G75*
G03X13448500Y5016500I-50000J0D01*
G01*
X12573800Y6831800D02*
X12673800Y6731800D01*
X12673800Y6831800D02*
X12573800Y6731800D01*
X12673800Y6781800D02*
G75*
G03X12673800Y6781800I-50000J0D01*
G01*
X12827800Y6831800D02*
X12927800Y6731800D01*
X12927800Y6831800D02*
X12827800Y6731800D01*
X12927800Y6781800D02*
G75*
G03X12927800Y6781800I-50000J0D01*
G01*
X13081800Y6831800D02*
X13181800Y6731800D01*
X13181800Y6831800D02*
X13081800Y6731800D01*
X13181800Y6781800D02*
G75*
G03X13181800Y6781800I-50000J0D01*
G01*
X13335800Y6831800D02*
X13435800Y6731800D01*
X13435800Y6831800D02*
X13335800Y6731800D01*
X13435800Y6781800D02*
G75*
G03X13435800Y6781800I-50000J0D01*
G01*
X13589800Y6831800D02*
X13689800Y6731800D01*
X13689800Y6831800D02*
X13589800Y6731800D01*
X13689800Y6781800D02*
G75*
G03X13689800Y6781800I-50000J0D01*
G01*
X10224300Y4037800D02*
X10324300Y3937800D01*
X10324300Y4037800D02*
X10224300Y3937800D01*
X10324300Y3987800D02*
G75*
G03X10324300Y3987800I-50000J0D01*
G01*
X10478300Y4037800D02*
X10578300Y3937800D01*
X10578300Y4037800D02*
X10478300Y3937800D01*
X10578300Y3987800D02*
G75*
G03X10578300Y3987800I-50000J0D01*
G01*
X10732300Y4037800D02*
X10832300Y3937800D01*
X10832300Y4037800D02*
X10732300Y3937800D01*
X10832300Y3987800D02*
G75*
G03X10832300Y3987800I-50000J0D01*
G01*
X10986300Y4037800D02*
X11086300Y3937800D01*
X11086300Y4037800D02*
X10986300Y3937800D01*
X11086300Y3987800D02*
G75*
G03X11086300Y3987800I-50000J0D01*
G01*
X1588300Y6831800D02*
X1688300Y6731800D01*
X1688300Y6831800D02*
X1588300Y6731800D01*
X1688300Y6781800D02*
G75*
G03X1688300Y6781800I-50000J0D01*
G01*
X1842300Y6831800D02*
X1942300Y6731800D01*
X1942300Y6831800D02*
X1842300Y6731800D01*
X1942300Y6781800D02*
G75*
G03X1942300Y6781800I-50000J0D01*
G01*
X2096300Y6831800D02*
X2196300Y6731800D01*
X2196300Y6831800D02*
X2096300Y6731800D01*
X2196300Y6781800D02*
G75*
G03X2196300Y6781800I-50000J0D01*
G01*
X2350300Y6831800D02*
X2450300Y6731800D01*
X2450300Y6831800D02*
X2350300Y6731800D01*
X2450300Y6781800D02*
G75*
G03X2450300Y6781800I-50000J0D01*
G01*
X2604300Y6831800D02*
X2704300Y6731800D01*
X2704300Y6831800D02*
X2604300Y6731800D01*
X2704300Y6781800D02*
G75*
G03X2704300Y6781800I-50000J0D01*
G01*
X2858300Y6831800D02*
X2958300Y6731800D01*
X2958300Y6831800D02*
X2858300Y6731800D01*
X2958300Y6781800D02*
G75*
G03X2958300Y6781800I-50000J0D01*
G01*
X3112300Y6831800D02*
X3212300Y6731800D01*
X3212300Y6831800D02*
X3112300Y6731800D01*
X3212300Y6781800D02*
G75*
G03X3212300Y6781800I-50000J0D01*
G01*
X3366300Y6831800D02*
X3466300Y6731800D01*
X3466300Y6831800D02*
X3366300Y6731800D01*
X3466300Y6781800D02*
G75*
G03X3466300Y6781800I-50000J0D01*
G01*
X9652800Y2386800D02*
X9752800Y2286800D01*
X9752800Y2386800D02*
X9652800Y2286800D01*
X9752800Y2336800D02*
G75*
G03X9752800Y2336800I-50000J0D01*
G01*
X9652800Y2132800D02*
X9752800Y2032800D01*
X9752800Y2132800D02*
X9652800Y2032800D01*
X9752800Y2082800D02*
G75*
G03X9752800Y2082800I-50000J0D01*
G01*
X9652800Y1878800D02*
X9752800Y1778800D01*
X9752800Y1878800D02*
X9652800Y1778800D01*
X9752800Y1828800D02*
G75*
G03X9752800Y1828800I-50000J0D01*
G01*
X9652800Y1624800D02*
X9752800Y1524800D01*
X9752800Y1624800D02*
X9652800Y1524800D01*
X9752800Y1574800D02*
G75*
G03X9752800Y1574800I-50000J0D01*
G01*
X623100Y1574000D02*
X723100Y1474000D01*
X723100Y1574000D02*
X623100Y1474000D01*
X723100Y1524000D02*
G75*
G03X723100Y1524000I-50000J0D01*
G01*
X623100Y1320000D02*
X723100Y1220000D01*
X723100Y1320000D02*
X623100Y1220000D01*
X723100Y1270000D02*
G75*
G03X723100Y1270000I-50000J0D01*
G01*
X623100Y1066000D02*
X723100Y966000D01*
X723100Y1066000D02*
X623100Y966000D01*
X723100Y1016000D02*
G75*
G03X723100Y1016000I-50000J0D01*
G01*
X5004600Y812000D02*
X5104600Y712000D01*
X5104600Y812000D02*
X5004600Y712000D01*
X5104600Y762000D02*
G75*
G03X5104600Y762000I-50000J0D01*
G01*
X5258600Y812000D02*
X5358600Y712000D01*
X5358600Y812000D02*
X5258600Y712000D01*
X5358600Y762000D02*
G75*
G03X5358600Y762000I-50000J0D01*
G01*
X5512600Y812000D02*
X5612600Y712000D01*
X5612600Y812000D02*
X5512600Y712000D01*
X5612600Y762000D02*
G75*
G03X5612600Y762000I-50000J0D01*
G01*
X5766600Y812000D02*
X5866600Y712000D01*
X5866600Y812000D02*
X5766600Y712000D01*
X5866600Y762000D02*
G75*
G03X5866600Y762000I-50000J0D01*
G01*
X6020600Y812000D02*
X6120600Y712000D01*
X6120600Y812000D02*
X6020600Y712000D01*
X6120600Y762000D02*
G75*
G03X6120600Y762000I-50000J0D01*
G01*
X6274600Y812000D02*
X6374600Y712000D01*
X6374600Y812000D02*
X6274600Y712000D01*
X6374600Y762000D02*
G75*
G03X6374600Y762000I-50000J0D01*
G01*
X6528600Y812000D02*
X6628600Y712000D01*
X6628600Y812000D02*
X6528600Y712000D01*
X6628600Y762000D02*
G75*
G03X6628600Y762000I-50000J0D01*
G01*
X6782600Y812000D02*
X6882600Y712000D01*
X6882600Y812000D02*
X6782600Y712000D01*
X6882600Y762000D02*
G75*
G03X6882600Y762000I-50000J0D01*
G01*
X9043200Y6831800D02*
X9143200Y6731800D01*
X9143200Y6831800D02*
X9043200Y6731800D01*
X9143200Y6781800D02*
G75*
G03X9143200Y6781800I-50000J0D01*
G01*
X9297200Y6831800D02*
X9397200Y6731800D01*
X9397200Y6831800D02*
X9297200Y6731800D01*
X9397200Y6781800D02*
G75*
G03X9397200Y6781800I-50000J0D01*
G01*
X9551200Y6831800D02*
X9651200Y6731800D01*
X9651200Y6831800D02*
X9551200Y6731800D01*
X9651200Y6781800D02*
G75*
G03X9651200Y6781800I-50000J0D01*
G01*
X9805200Y6831800D02*
X9905200Y6731800D01*
X9905200Y6831800D02*
X9805200Y6731800D01*
X9905200Y6781800D02*
G75*
G03X9905200Y6781800I-50000J0D01*
G01*
X1956600Y4876000D02*
X2056600Y4776000D01*
X2056600Y4876000D02*
X1956600Y4776000D01*
X2056600Y4826000D02*
G75*
G03X2056600Y4826000I-50000J0D01*
G01*
X2210600Y4876000D02*
X2310600Y4776000D01*
X2310600Y4876000D02*
X2210600Y4776000D01*
X2310600Y4826000D02*
G75*
G03X2310600Y4826000I-50000J0D01*
G01*
X2464600Y4876000D02*
X2564600Y4776000D01*
X2564600Y4876000D02*
X2464600Y4776000D01*
X2564600Y4826000D02*
G75*
G03X2564600Y4826000I-50000J0D01*
G01*
X2718600Y4876000D02*
X2818600Y4776000D01*
X2818600Y4876000D02*
X2718600Y4776000D01*
X2818600Y4826000D02*
G75*
G03X2818600Y4826000I-50000J0D01*
G01*
X2972600Y4876000D02*
X3072600Y4776000D01*
X3072600Y4876000D02*
X2972600Y4776000D01*
X3072600Y4826000D02*
G75*
G03X3072600Y4826000I-50000J0D01*
G01*
X3226600Y4876000D02*
X3326600Y4776000D01*
X3326600Y4876000D02*
X3226600Y4776000D01*
X3326600Y4826000D02*
G75*
G03X3326600Y4826000I-50000J0D01*
G01*
X3480600Y4876000D02*
X3580600Y4776000D01*
X3580600Y4876000D02*
X3480600Y4776000D01*
X3580600Y4826000D02*
G75*
G03X3580600Y4826000I-50000J0D01*
G01*
X3734600Y4876000D02*
X3834600Y4776000D01*
X3834600Y4876000D02*
X3734600Y4776000D01*
X3834600Y4826000D02*
G75*
G03X3834600Y4826000I-50000J0D01*
G01*
X1131100Y1066000D02*
X1231100Y966000D01*
X1231100Y1066000D02*
X1131100Y966000D01*
X1231100Y1016000D02*
G75*
G03X1231100Y1016000I-50000J0D01*
G01*
X1131100Y812000D02*
X1231100Y712000D01*
X1231100Y812000D02*
X1131100Y712000D01*
X1231100Y762000D02*
G75*
G03X1231100Y762000I-50000J0D01*
G01*
X1131100Y558000D02*
X1231100Y458000D01*
X1231100Y558000D02*
X1131100Y458000D01*
X1231100Y508000D02*
G75*
G03X1231100Y508000I-50000J0D01*
G01*
X9652800Y3656800D02*
X9752800Y3556800D01*
X9752800Y3656800D02*
X9652800Y3556800D01*
X9752800Y3606800D02*
G75*
G03X9752800Y3606800I-50000J0D01*
G01*
X9652800Y3402800D02*
X9752800Y3302800D01*
X9752800Y3402800D02*
X9652800Y3302800D01*
X9752800Y3352800D02*
G75*
G03X9752800Y3352800I-50000J0D01*
G01*
X9652800Y3148800D02*
X9752800Y3048800D01*
X9752800Y3148800D02*
X9652800Y3048800D01*
X9752800Y3098800D02*
G75*
G03X9752800Y3098800I-50000J0D01*
G01*
X9652800Y2894800D02*
X9752800Y2794800D01*
X9752800Y2894800D02*
X9652800Y2794800D01*
X9752800Y2844800D02*
G75*
G03X9752800Y2844800I-50000J0D01*
G01*
X1956600Y812000D02*
X2056600Y712000D01*
X2056600Y812000D02*
X1956600Y712000D01*
X2056600Y762000D02*
G75*
G03X2056600Y762000I-50000J0D01*
G01*
X2210600Y812000D02*
X2310600Y712000D01*
X2310600Y812000D02*
X2210600Y712000D01*
X2310600Y762000D02*
G75*
G03X2310600Y762000I-50000J0D01*
G01*
X2464600Y812000D02*
X2564600Y712000D01*
X2564600Y812000D02*
X2464600Y712000D01*
X2564600Y762000D02*
G75*
G03X2564600Y762000I-50000J0D01*
G01*
X2718600Y812000D02*
X2818600Y712000D01*
X2818600Y812000D02*
X2718600Y712000D01*
X2818600Y762000D02*
G75*
G03X2818600Y762000I-50000J0D01*
G01*
X2972600Y812000D02*
X3072600Y712000D01*
X3072600Y812000D02*
X2972600Y712000D01*
X3072600Y762000D02*
G75*
G03X3072600Y762000I-50000J0D01*
G01*
X3226600Y812000D02*
X3326600Y712000D01*
X3326600Y812000D02*
X3226600Y712000D01*
X3326600Y762000D02*
G75*
G03X3326600Y762000I-50000J0D01*
G01*
X3480600Y812000D02*
X3580600Y712000D01*
X3580600Y812000D02*
X3480600Y712000D01*
X3580600Y762000D02*
G75*
G03X3580600Y762000I-50000J0D01*
G01*
X3734600Y812000D02*
X3834600Y712000D01*
X3834600Y812000D02*
X3734600Y712000D01*
X3834600Y762000D02*
G75*
G03X3834600Y762000I-50000J0D01*
G01*
X197650Y7924000D02*
X297650Y7824000D01*
X297650Y7924000D02*
X197650Y7824000D01*
X297650Y7874000D02*
G75*
G03X297650Y7874000I-50000J0D01*
G01*
X197650Y7416000D02*
X297650Y7316000D01*
X297650Y7416000D02*
X197650Y7316000D01*
X297650Y7366000D02*
G75*
G03X297650Y7366000I-50000J0D01*
G01*
X4750600Y4876000D02*
X4850600Y4776000D01*
X4850600Y4876000D02*
X4750600Y4776000D01*
X4850600Y4826000D02*
G75*
G03X4850600Y4826000I-50000J0D01*
G01*
X5004600Y4876000D02*
X5104600Y4776000D01*
X5104600Y4876000D02*
X5004600Y4776000D01*
X5104600Y4826000D02*
G75*
G03X5104600Y4826000I-50000J0D01*
G01*
X5258600Y4876000D02*
X5358600Y4776000D01*
X5358600Y4876000D02*
X5258600Y4776000D01*
X5358600Y4826000D02*
G75*
G03X5358600Y4826000I-50000J0D01*
G01*
X5512600Y4876000D02*
X5612600Y4776000D01*
X5612600Y4876000D02*
X5512600Y4776000D01*
X5612600Y4826000D02*
G75*
G03X5612600Y4826000I-50000J0D01*
G01*
X5766600Y4876000D02*
X5866600Y4776000D01*
X5866600Y4876000D02*
X5766600Y4776000D01*
X5866600Y4826000D02*
G75*
G03X5866600Y4826000I-50000J0D01*
G01*
X6020600Y4876000D02*
X6120600Y4776000D01*
X6120600Y4876000D02*
X6020600Y4776000D01*
X6120600Y4826000D02*
G75*
G03X6120600Y4826000I-50000J0D01*
G01*
X6274600Y4876000D02*
X6374600Y4776000D01*
X6374600Y4876000D02*
X6274600Y4776000D01*
X6374600Y4826000D02*
G75*
G03X6374600Y4826000I-50000J0D01*
G01*
X6528600Y4876000D02*
X6628600Y4776000D01*
X6628600Y4876000D02*
X6528600Y4776000D01*
X6628600Y4826000D02*
G75*
G03X6628600Y4826000I-50000J0D01*
G01*
X6782600Y4876000D02*
X6882600Y4776000D01*
X6882600Y4876000D02*
X6782600Y4776000D01*
X6882600Y4826000D02*
G75*
G03X6882600Y4826000I-50000J0D01*
G01*
X11102800Y5185800D02*
X11212800Y5075800D01*
X11212800Y5185800D02*
X11102800Y5075800D01*
X11157800Y5185800D02*
X11157800Y5075800D01*
X11102800Y5130800D02*
X11212800Y5130800D01*
X11102800Y4535800D02*
X11212800Y4425800D01*
X11212800Y4535800D02*
X11102800Y4425800D01*
X11157800Y4535800D02*
X11157800Y4425800D01*
X11102800Y4480800D02*
X11212800Y4480800D01*
X11552800Y5185800D02*
X11662800Y5075800D01*
X11662800Y5185800D02*
X11552800Y5075800D01*
X11607800Y5185800D02*
X11607800Y5075800D01*
X11552800Y5130800D02*
X11662800Y5130800D01*
X11552800Y4535800D02*
X11662800Y4425800D01*
X11662800Y4535800D02*
X11552800Y4425800D01*
X11607800Y4535800D02*
X11607800Y4425800D01*
X11552800Y4480800D02*
X11662800Y4480800D01*
X7488800Y3750700D02*
X7598800Y3640700D01*
X7598800Y3750700D02*
X7488800Y3640700D01*
X7543800Y3750700D02*
X7543800Y3640700D01*
X7488800Y3695700D02*
X7598800Y3695700D01*
X7488800Y3100700D02*
X7598800Y2990700D01*
X7598800Y3100700D02*
X7488800Y2990700D01*
X7543800Y3100700D02*
X7543800Y2990700D01*
X7488800Y3045700D02*
X7598800Y3045700D01*
X7938800Y3750700D02*
X8048800Y3640700D01*
X8048800Y3750700D02*
X7938800Y3640700D01*
X7993800Y3750700D02*
X7993800Y3640700D01*
X7938800Y3695700D02*
X8048800Y3695700D01*
X7938800Y3100700D02*
X8048800Y2990700D01*
X8048800Y3100700D02*
X7938800Y2990700D01*
X7993800Y3100700D02*
X7993800Y2990700D01*
X7938800Y3045700D02*
X8048800Y3045700D01*
X11108300Y1121800D02*
X11218300Y1011800D01*
X11218300Y1121800D02*
X11108300Y1011800D01*
X11163300Y1121800D02*
X11163300Y1011800D01*
X11108300Y1066800D02*
X11218300Y1066800D01*
X11108300Y471800D02*
X11218300Y361800D01*
X11218300Y471800D02*
X11108300Y361800D01*
X11163300Y471800D02*
X11163300Y361800D01*
X11108300Y416800D02*
X11218300Y416800D01*
X11558300Y1121800D02*
X11668300Y1011800D01*
X11668300Y1121800D02*
X11558300Y1011800D01*
X11613300Y1121800D02*
X11613300Y1011800D01*
X11558300Y1066800D02*
X11668300Y1066800D01*
X11558300Y471800D02*
X11668300Y361800D01*
X11668300Y471800D02*
X11558300Y361800D01*
X11613300Y471800D02*
X11613300Y361800D01*
X11558300Y416800D02*
X11668300Y416800D01*
X9838300Y1121800D02*
X9948300Y1011800D01*
X9948300Y1121800D02*
X9838300Y1011800D01*
X9893300Y1121800D02*
X9893300Y1011800D01*
X9838300Y1066800D02*
X9948300Y1066800D01*
X9838300Y471800D02*
X9948300Y361800D01*
X9948300Y471800D02*
X9838300Y361800D01*
X9893300Y471800D02*
X9893300Y361800D01*
X9838300Y416800D02*
X9948300Y416800D01*
X10288300Y1121800D02*
X10398300Y1011800D01*
X10398300Y1121800D02*
X10288300Y1011800D01*
X10343300Y1121800D02*
X10343300Y1011800D01*
X10288300Y1066800D02*
X10398300Y1066800D01*
X10288300Y471800D02*
X10398300Y361800D01*
X10398300Y471800D02*
X10288300Y361800D01*
X10343300Y471800D02*
X10343300Y361800D01*
X10288300Y416800D02*
X10398300Y416800D01*
X7488800Y2610000D02*
X7598800Y2500000D01*
X7598800Y2610000D02*
X7488800Y2500000D01*
X7543800Y2610000D02*
X7543800Y2500000D01*
X7488800Y2555000D02*
X7598800Y2555000D01*
X7488800Y1960000D02*
X7598800Y1850000D01*
X7598800Y1960000D02*
X7488800Y1850000D01*
X7543800Y1960000D02*
X7543800Y1850000D01*
X7488800Y1905000D02*
X7598800Y1905000D01*
X7938800Y2610000D02*
X8048800Y2500000D01*
X8048800Y2610000D02*
X7938800Y2500000D01*
X7993800Y2610000D02*
X7993800Y2500000D01*
X7938800Y2555000D02*
X8048800Y2555000D01*
X7938800Y1960000D02*
X8048800Y1850000D01*
X8048800Y1960000D02*
X7938800Y1850000D01*
X7993800Y1960000D02*
X7993800Y1850000D01*
X7938800Y1905000D02*
X8048800Y1905000D01*
X9832800Y5185800D02*
X9942800Y5075800D01*
X9942800Y5185800D02*
X9832800Y5075800D01*
X9887800Y5185800D02*
X9887800Y5075800D01*
X9832800Y5130800D02*
X9942800Y5130800D01*
X9832800Y4535800D02*
X9942800Y4425800D01*
X9942800Y4535800D02*
X9832800Y4425800D01*
X9887800Y4535800D02*
X9887800Y4425800D01*
X9832800Y4480800D02*
X9942800Y4480800D01*
X10282800Y5185800D02*
X10392800Y5075800D01*
X10392800Y5185800D02*
X10282800Y5075800D01*
X10337800Y5185800D02*
X10337800Y5075800D01*
X10282800Y5130800D02*
X10392800Y5130800D01*
X10282800Y4535800D02*
X10392800Y4425800D01*
X10392800Y4535800D02*
X10282800Y4425800D01*
X10337800Y4535800D02*
X10337800Y4425800D01*
X10282800Y4480800D02*
X10392800Y4480800D01*
X12571500Y1962000D02*
X12701500Y1832000D01*
X12701500Y1962000D02*
X12571500Y1832000D01*
X12682462Y1851038D02*
X12682462Y1942962D01*
X12590538Y1942962D01*
X12590538Y1851038D01*
X12682462Y1851038D01*
X12571500Y1462000D02*
X12701500Y1332000D01*
X12701500Y1462000D02*
X12571500Y1332000D01*
X12682462Y1351038D02*
X12682462Y1442962D01*
X12590538Y1442962D01*
X12590538Y1351038D01*
X12682462Y1351038D01*
X12571500Y962000D02*
X12701500Y832000D01*
X12701500Y962000D02*
X12571500Y832000D01*
X12682462Y851038D02*
X12682462Y942962D01*
X12590538Y942962D01*
X12590538Y851038D01*
X12682462Y851038D01*
X12571500Y4248000D02*
X12701500Y4118000D01*
X12701500Y4248000D02*
X12571500Y4118000D01*
X12682462Y4137038D02*
X12682462Y4228962D01*
X12590538Y4228962D01*
X12590538Y4137038D01*
X12682462Y4137038D01*
X12571500Y3748000D02*
X12701500Y3618000D01*
X12701500Y3748000D02*
X12571500Y3618000D01*
X12682462Y3637038D02*
X12682462Y3728962D01*
X12590538Y3728962D01*
X12590538Y3637038D01*
X12682462Y3637038D01*
X12571500Y3248000D02*
X12701500Y3118000D01*
X12701500Y3248000D02*
X12571500Y3118000D01*
X12682462Y3137038D02*
X12682462Y3228962D01*
X12590538Y3228962D01*
X12590538Y3137038D01*
X12682462Y3137038D01*
X3930500Y7791600D02*
X4070500Y7651600D01*
X4070500Y7791600D02*
X3930500Y7651600D01*
X4000500Y7651600D02*
X4070500Y7721600D01*
X4000500Y7791600D01*
X3930500Y7721600D01*
X4000500Y7651600D01*
X4946500Y7791600D02*
X5086500Y7651600D01*
X5086500Y7791600D02*
X4946500Y7651600D01*
X5016500Y7651600D02*
X5086500Y7721600D01*
X5016500Y7791600D01*
X4946500Y7721600D01*
X5016500Y7651600D01*
X577700Y260500D02*
X717700Y120500D01*
X717700Y260500D02*
X577700Y120500D01*
X647700Y120500D02*
X717700Y190500D01*
X647700Y260500D01*
X577700Y190500D01*
X647700Y120500D01*
X1593700Y260500D02*
X1733700Y120500D01*
X1733700Y260500D02*
X1593700Y120500D01*
X1663700Y120500D02*
X1733700Y190500D01*
X1663700Y260500D01*
X1593700Y190500D01*
X1663700Y120500D01*
X-41400Y3699500D02*
X-41400Y3469500D01*
X-156400Y3584500D02*
X73600Y3584500D01*
X73600Y3584500D02*
G75*
G03X73600Y3584500I-115000J0D01*
G01*
X-41400Y2499500D02*
X-41400Y2269500D01*
X-156400Y2384500D02*
X73600Y2384500D01*
X73600Y2384500D02*
G75*
G03X73600Y2384500I-115000J0D01*
G01*
X113138Y5411362D02*
X113138Y5637638D01*
X-113138Y5637638D01*
X-113138Y5411362D01*
X113138Y5411362D01*
X160000Y5524500D02*
G75*
G03X160000Y5524500I-160000J0D01*
G01*
X14845138Y-113138D02*
X14845138Y113138D01*
X14618862Y113138D01*
X14618862Y-113138D01*
X14845138Y-113138D01*
X14892000Y0D02*
G75*
G03X14892000Y0I-160000J0D01*
G01*
X113138Y6554362D02*
X113138Y6780638D01*
X-113138Y6780638D01*
X-113138Y6554362D01*
X113138Y6554362D01*
X160000Y6667500D02*
G75*
G03X160000Y6667500I-160000J0D01*
G01*
X113138Y-113138D02*
X113138Y113138D01*
X-113138Y113138D01*
X-113138Y-113138D01*
X113138Y-113138D01*
X160000Y0D02*
G75*
G03X160000Y0I-160000J0D01*
G01*
X14845138Y5347862D02*
X14845138Y5574138D01*
X14618862Y5574138D01*
X14618862Y5347862D01*
X14845138Y5347862D01*
X14892000Y5461000D02*
G75*
G03X14892000Y5461000I-160000J0D01*
G01*
X14845138Y6554362D02*
X14845138Y6780638D01*
X14618862Y6780638D01*
X14618862Y6554362D01*
X14845138Y6554362D01*
X14892000Y6667500D02*
G75*
G03X14892000Y6667500I-160000J0D01*
G01*
X14845138Y9792862D02*
X14845138Y10019138D01*
X14618862Y10019138D01*
X14618862Y9792862D01*
X14845138Y9792862D01*
X14892000Y9906000D02*
G75*
G03X14892000Y9906000I-160000J0D01*
G01*
X113138Y9792862D02*
X113138Y10019138D01*
X-113138Y10019138D01*
X-113138Y9792862D01*
X113138Y9792862D01*
X160000Y9906000D02*
G75*
G03X160000Y9906000I-160000J0D01*
G01*
D12*
X-99572Y-851714D02*
X-99572Y-551714D01*
X-28143Y-551714D01*
X14714Y-566000D01*
X43286Y-594572D01*
X57571Y-623143D01*
X71857Y-680286D01*
X71857Y-723143D01*
X57571Y-780286D01*
X43286Y-808857D01*
X14714Y-837429D01*
X-28143Y-851714D01*
X-99572Y-851714D01*
X200428Y-851714D02*
X200428Y-651714D01*
X200428Y-708857D02*
X214714Y-680286D01*
X229000Y-666000D01*
X257571Y-651714D01*
X286143Y-651714D01*
X386143Y-851714D02*
X386143Y-651714D01*
X386143Y-551714D02*
X371857Y-566000D01*
X386143Y-580286D01*
X400428Y-566000D01*
X386143Y-551714D01*
X386143Y-580286D01*
X571857Y-851714D02*
X543286Y-837429D01*
X529000Y-808857D01*
X529000Y-551714D01*
X729000Y-851714D02*
X700428Y-837429D01*
X686143Y-808857D01*
X686143Y-551714D01*
X1071857Y-851714D02*
X1071857Y-551714D01*
X1171857Y-766000D01*
X1271857Y-551714D01*
X1271857Y-851714D01*
X1543286Y-851714D02*
X1543286Y-694572D01*
X1529000Y-666000D01*
X1500428Y-651714D01*
X1443286Y-651714D01*
X1414714Y-666000D01*
X1543286Y-837429D02*
X1514714Y-851714D01*
X1443286Y-851714D01*
X1414714Y-837429D01*
X1400428Y-808857D01*
X1400428Y-780286D01*
X1414714Y-751714D01*
X1443286Y-737429D01*
X1514714Y-737429D01*
X1543286Y-723143D01*
X1686143Y-651714D02*
X1686143Y-951714D01*
X1686143Y-666000D02*
X1714714Y-651714D01*
X1771857Y-651714D01*
X1800428Y-666000D01*
X1814714Y-680286D01*
X1829000Y-708857D01*
X1829000Y-794571D01*
X1814714Y-823143D01*
X1800428Y-837429D01*
X1771857Y-851714D01*
X1714714Y-851714D01*
X1686143Y-837429D01*
X1957571Y-823143D02*
X1971857Y-837429D01*
X1957571Y-851714D01*
X1943286Y-837429D01*
X1957571Y-823143D01*
X1957571Y-851714D01*
X1957571Y-666000D02*
X1971857Y-680286D01*
X1957571Y-694572D01*
X1943286Y-680286D01*
X1957571Y-666000D01*
X1957571Y-694572D01*
X-446000Y-1316000D02*
X-386000Y-1376000D01*
X-386000Y-1316000D02*
X-446000Y-1376000D01*
X-42429Y-1181714D02*
X-13857Y-1181714D01*
X14714Y-1196000D01*
X29000Y-1210286D01*
X43286Y-1238857D01*
X57571Y-1296000D01*
X57571Y-1367429D01*
X43286Y-1424571D01*
X29000Y-1453143D01*
X14714Y-1467429D01*
X-13857Y-1481714D01*
X-42429Y-1481714D01*
X-71000Y-1467429D01*
X-85286Y-1453143D01*
X-99572Y-1424571D01*
X-113857Y-1367429D01*
X-113857Y-1296000D01*
X-99572Y-1238857D01*
X-85286Y-1210286D01*
X-71000Y-1196000D01*
X-42429Y-1181714D01*
X186143Y-1453143D02*
X200428Y-1467429D01*
X186143Y-1481714D01*
X171857Y-1467429D01*
X186143Y-1453143D01*
X186143Y-1481714D01*
X457571Y-1181714D02*
X400428Y-1181714D01*
X371857Y-1196000D01*
X357571Y-1210286D01*
X329000Y-1253143D01*
X314714Y-1310286D01*
X314714Y-1424571D01*
X329000Y-1453143D01*
X343286Y-1467429D01*
X371857Y-1481714D01*
X429000Y-1481714D01*
X457571Y-1467429D01*
X471857Y-1453143D01*
X486143Y-1424571D01*
X486143Y-1353143D01*
X471857Y-1324572D01*
X457571Y-1310286D01*
X429000Y-1296000D01*
X371857Y-1296000D01*
X343286Y-1310286D01*
X329000Y-1324572D01*
X314714Y-1353143D01*
X671857Y-1181714D02*
X700428Y-1181714D01*
X729000Y-1196000D01*
X743286Y-1210286D01*
X757571Y-1238857D01*
X771857Y-1296000D01*
X771857Y-1367429D01*
X757571Y-1424571D01*
X743286Y-1453143D01*
X729000Y-1467429D01*
X700428Y-1481714D01*
X671857Y-1481714D01*
X643286Y-1467429D01*
X629000Y-1453143D01*
X614714Y-1424571D01*
X600428Y-1367429D01*
X600428Y-1296000D01*
X614714Y-1238857D01*
X629000Y-1210286D01*
X643286Y-1196000D01*
X671857Y-1181714D01*
X900428Y-1481714D02*
X900428Y-1281714D01*
X900428Y-1310286D02*
X914714Y-1296000D01*
X943286Y-1281714D01*
X986143Y-1281714D01*
X1014714Y-1296000D01*
X1029000Y-1324572D01*
X1029000Y-1481714D01*
X1029000Y-1324572D02*
X1043286Y-1296000D01*
X1071857Y-1281714D01*
X1114714Y-1281714D01*
X1143286Y-1296000D01*
X1157571Y-1324572D01*
X1157571Y-1481714D01*
X1300428Y-1481714D02*
X1300428Y-1281714D01*
X1300428Y-1310286D02*
X1314714Y-1296000D01*
X1343286Y-1281714D01*
X1386143Y-1281714D01*
X1414714Y-1296000D01*
X1429000Y-1324572D01*
X1429000Y-1481714D01*
X1429000Y-1324572D02*
X1443286Y-1296000D01*
X1471857Y-1281714D01*
X1514714Y-1281714D01*
X1543286Y-1296000D01*
X1557571Y-1324572D01*
X1557571Y-1481714D01*
X2143286Y-1167429D02*
X1886143Y-1553143D01*
X2529000Y-1181714D02*
X2557571Y-1181714D01*
X2586143Y-1196000D01*
X2600428Y-1210286D01*
X2614714Y-1238857D01*
X2629000Y-1296000D01*
X2629000Y-1367429D01*
X2614714Y-1424571D01*
X2600428Y-1453143D01*
X2586143Y-1467429D01*
X2557571Y-1481714D01*
X2529000Y-1481714D01*
X2500428Y-1467429D01*
X2486143Y-1453143D01*
X2471857Y-1424571D01*
X2457571Y-1367429D01*
X2457571Y-1296000D01*
X2471857Y-1238857D01*
X2486143Y-1210286D01*
X2500428Y-1196000D01*
X2529000Y-1181714D01*
X2757571Y-1453143D02*
X2771857Y-1467429D01*
X2757571Y-1481714D01*
X2743286Y-1467429D01*
X2757571Y-1453143D01*
X2757571Y-1481714D01*
X2957571Y-1181714D02*
X2986143Y-1181714D01*
X3014714Y-1196000D01*
X3029000Y-1210286D01*
X3043286Y-1238857D01*
X3057571Y-1296000D01*
X3057571Y-1367429D01*
X3043286Y-1424571D01*
X3029000Y-1453143D01*
X3014714Y-1467429D01*
X2986143Y-1481714D01*
X2957571Y-1481714D01*
X2929000Y-1467429D01*
X2914714Y-1453143D01*
X2900428Y-1424571D01*
X2886143Y-1367429D01*
X2886143Y-1296000D01*
X2900428Y-1238857D01*
X2914714Y-1210286D01*
X2929000Y-1196000D01*
X2957571Y-1181714D01*
X3171857Y-1210286D02*
X3186143Y-1196000D01*
X3214714Y-1181714D01*
X3286143Y-1181714D01*
X3314714Y-1196000D01*
X3329000Y-1210286D01*
X3343286Y-1238857D01*
X3343286Y-1267429D01*
X3329000Y-1310286D01*
X3157571Y-1481714D01*
X3343286Y-1481714D01*
X3600428Y-1281714D02*
X3600428Y-1481714D01*
X3529000Y-1167429D02*
X3457571Y-1381714D01*
X3643286Y-1381714D01*
X3743286Y-1181714D02*
X3743286Y-1238857D01*
X3857571Y-1181714D02*
X3857571Y-1238857D01*
X4300428Y-1596000D02*
X4286143Y-1581714D01*
X4257571Y-1538857D01*
X4243286Y-1510286D01*
X4229000Y-1467429D01*
X4214714Y-1396000D01*
X4214714Y-1338857D01*
X4229000Y-1267429D01*
X4243286Y-1224572D01*
X4257571Y-1196000D01*
X4286143Y-1153143D01*
X4300428Y-1138857D01*
X4400428Y-1210286D02*
X4414714Y-1196000D01*
X4443286Y-1181714D01*
X4514714Y-1181714D01*
X4543286Y-1196000D01*
X4557571Y-1210286D01*
X4571857Y-1238857D01*
X4571857Y-1267429D01*
X4557571Y-1310286D01*
X4386143Y-1481714D01*
X4571857Y-1481714D01*
X4829000Y-1281714D02*
X4829000Y-1481714D01*
X4757571Y-1167429D02*
X4686143Y-1381714D01*
X4871857Y-1381714D01*
X5214714Y-1481714D02*
X5214714Y-1181714D01*
X5343286Y-1481714D02*
X5343286Y-1324572D01*
X5329000Y-1296000D01*
X5300428Y-1281714D01*
X5257571Y-1281714D01*
X5229000Y-1296000D01*
X5214714Y-1310286D01*
X5529000Y-1481714D02*
X5500428Y-1467429D01*
X5486143Y-1453143D01*
X5471857Y-1424571D01*
X5471857Y-1338857D01*
X5486143Y-1310286D01*
X5500428Y-1296000D01*
X5529000Y-1281714D01*
X5571857Y-1281714D01*
X5600428Y-1296000D01*
X5614714Y-1310286D01*
X5629000Y-1338857D01*
X5629000Y-1424571D01*
X5614714Y-1453143D01*
X5600428Y-1467429D01*
X5571857Y-1481714D01*
X5529000Y-1481714D01*
X5800428Y-1481714D02*
X5771857Y-1467429D01*
X5757571Y-1438857D01*
X5757571Y-1181714D01*
X6029000Y-1467429D02*
X6000428Y-1481714D01*
X5943286Y-1481714D01*
X5914714Y-1467429D01*
X5900428Y-1438857D01*
X5900428Y-1324572D01*
X5914714Y-1296000D01*
X5943286Y-1281714D01*
X6000428Y-1281714D01*
X6029000Y-1296000D01*
X6043286Y-1324572D01*
X6043286Y-1353143D01*
X5900428Y-1381714D01*
X6157571Y-1467429D02*
X6186143Y-1481714D01*
X6243286Y-1481714D01*
X6271857Y-1467429D01*
X6286143Y-1438857D01*
X6286143Y-1424571D01*
X6271857Y-1396000D01*
X6243286Y-1381714D01*
X6200428Y-1381714D01*
X6171857Y-1367429D01*
X6157571Y-1338857D01*
X6157571Y-1324572D01*
X6171857Y-1296000D01*
X6200428Y-1281714D01*
X6243286Y-1281714D01*
X6271857Y-1296000D01*
X6386143Y-1596000D02*
X6400428Y-1581714D01*
X6429000Y-1538857D01*
X6443286Y-1510286D01*
X6457571Y-1467429D01*
X6471857Y-1396000D01*
X6471857Y-1338857D01*
X6457571Y-1267429D01*
X6443286Y-1224572D01*
X6429000Y-1196000D01*
X6400428Y-1153143D01*
X6386143Y-1138857D01*
X-386000Y-1742000D02*
G75*
G03X-386000Y-1742000I-31750J0D01*
G01*
X-42429Y-1577714D02*
X-13857Y-1577714D01*
X14714Y-1592000D01*
X29000Y-1606286D01*
X43286Y-1634857D01*
X57571Y-1692000D01*
X57571Y-1763429D01*
X43286Y-1820571D01*
X29000Y-1849143D01*
X14714Y-1863429D01*
X-13857Y-1877714D01*
X-42429Y-1877714D01*
X-71000Y-1863429D01*
X-85286Y-1849143D01*
X-99572Y-1820571D01*
X-113857Y-1763429D01*
X-113857Y-1692000D01*
X-99572Y-1634857D01*
X-85286Y-1606286D01*
X-71000Y-1592000D01*
X-42429Y-1577714D01*
X186143Y-1849143D02*
X200428Y-1863429D01*
X186143Y-1877714D01*
X171857Y-1863429D01*
X186143Y-1849143D01*
X186143Y-1877714D01*
X457571Y-1577714D02*
X400428Y-1577714D01*
X371857Y-1592000D01*
X357571Y-1606286D01*
X329000Y-1649143D01*
X314714Y-1706286D01*
X314714Y-1820571D01*
X329000Y-1849143D01*
X343286Y-1863429D01*
X371857Y-1877714D01*
X429000Y-1877714D01*
X457571Y-1863429D01*
X471857Y-1849143D01*
X486143Y-1820571D01*
X486143Y-1749143D01*
X471857Y-1720571D01*
X457571Y-1706286D01*
X429000Y-1692000D01*
X371857Y-1692000D01*
X343286Y-1706286D01*
X329000Y-1720571D01*
X314714Y-1749143D01*
X743286Y-1677714D02*
X743286Y-1877714D01*
X671857Y-1563429D02*
X600428Y-1777714D01*
X786143Y-1777714D01*
X900428Y-1877714D02*
X900428Y-1677714D01*
X900428Y-1706286D02*
X914714Y-1692000D01*
X943286Y-1677714D01*
X986143Y-1677714D01*
X1014714Y-1692000D01*
X1029000Y-1720571D01*
X1029000Y-1877714D01*
X1029000Y-1720571D02*
X1043286Y-1692000D01*
X1071857Y-1677714D01*
X1114714Y-1677714D01*
X1143286Y-1692000D01*
X1157571Y-1720571D01*
X1157571Y-1877714D01*
X1300428Y-1877714D02*
X1300428Y-1677714D01*
X1300428Y-1706286D02*
X1314714Y-1692000D01*
X1343286Y-1677714D01*
X1386143Y-1677714D01*
X1414714Y-1692000D01*
X1429000Y-1720571D01*
X1429000Y-1877714D01*
X1429000Y-1720571D02*
X1443286Y-1692000D01*
X1471857Y-1677714D01*
X1514714Y-1677714D01*
X1543286Y-1692000D01*
X1557571Y-1720571D01*
X1557571Y-1877714D01*
X2143286Y-1563429D02*
X1886143Y-1949143D01*
X2529000Y-1577714D02*
X2557571Y-1577714D01*
X2586143Y-1592000D01*
X2600428Y-1606286D01*
X2614714Y-1634857D01*
X2629000Y-1692000D01*
X2629000Y-1763429D01*
X2614714Y-1820571D01*
X2600428Y-1849143D01*
X2586143Y-1863429D01*
X2557571Y-1877714D01*
X2529000Y-1877714D01*
X2500428Y-1863429D01*
X2486143Y-1849143D01*
X2471857Y-1820571D01*
X2457571Y-1763429D01*
X2457571Y-1692000D01*
X2471857Y-1634857D01*
X2486143Y-1606286D01*
X2500428Y-1592000D01*
X2529000Y-1577714D01*
X2757571Y-1849143D02*
X2771857Y-1863429D01*
X2757571Y-1877714D01*
X2743286Y-1863429D01*
X2757571Y-1849143D01*
X2757571Y-1877714D01*
X2957571Y-1577714D02*
X2986143Y-1577714D01*
X3014714Y-1592000D01*
X3029000Y-1606286D01*
X3043286Y-1634857D01*
X3057571Y-1692000D01*
X3057571Y-1763429D01*
X3043286Y-1820571D01*
X3029000Y-1849143D01*
X3014714Y-1863429D01*
X2986143Y-1877714D01*
X2957571Y-1877714D01*
X2929000Y-1863429D01*
X2914714Y-1849143D01*
X2900428Y-1820571D01*
X2886143Y-1763429D01*
X2886143Y-1692000D01*
X2900428Y-1634857D01*
X2914714Y-1606286D01*
X2929000Y-1592000D01*
X2957571Y-1577714D01*
X3171857Y-1606286D02*
X3186143Y-1592000D01*
X3214714Y-1577714D01*
X3286143Y-1577714D01*
X3314714Y-1592000D01*
X3329000Y-1606286D01*
X3343286Y-1634857D01*
X3343286Y-1663429D01*
X3329000Y-1706286D01*
X3157571Y-1877714D01*
X3343286Y-1877714D01*
X3614714Y-1577714D02*
X3471857Y-1577714D01*
X3457571Y-1720571D01*
X3471857Y-1706286D01*
X3500428Y-1692000D01*
X3571857Y-1692000D01*
X3600428Y-1706286D01*
X3614714Y-1720571D01*
X3629000Y-1749143D01*
X3629000Y-1820571D01*
X3614714Y-1849143D01*
X3600428Y-1863429D01*
X3571857Y-1877714D01*
X3500428Y-1877714D01*
X3471857Y-1863429D01*
X3457571Y-1849143D01*
X3743286Y-1577714D02*
X3743286Y-1634857D01*
X3857571Y-1577714D02*
X3857571Y-1634857D01*
X4300428Y-1992000D02*
X4286143Y-1977714D01*
X4257571Y-1934857D01*
X4243286Y-1906286D01*
X4229000Y-1863429D01*
X4214714Y-1792000D01*
X4214714Y-1734857D01*
X4229000Y-1663429D01*
X4243286Y-1620571D01*
X4257571Y-1592000D01*
X4286143Y-1549143D01*
X4300428Y-1534857D01*
X4543286Y-1677714D02*
X4543286Y-1877714D01*
X4471857Y-1563429D02*
X4400428Y-1777714D01*
X4586143Y-1777714D01*
X4929000Y-1877714D02*
X4929000Y-1577714D01*
X5057571Y-1877714D02*
X5057571Y-1720571D01*
X5043286Y-1692000D01*
X5014714Y-1677714D01*
X4971857Y-1677714D01*
X4943286Y-1692000D01*
X4929000Y-1706286D01*
X5243286Y-1877714D02*
X5214714Y-1863429D01*
X5200428Y-1849143D01*
X5186143Y-1820571D01*
X5186143Y-1734857D01*
X5200428Y-1706286D01*
X5214714Y-1692000D01*
X5243286Y-1677714D01*
X5286143Y-1677714D01*
X5314714Y-1692000D01*
X5329000Y-1706286D01*
X5343286Y-1734857D01*
X5343286Y-1820571D01*
X5329000Y-1849143D01*
X5314714Y-1863429D01*
X5286143Y-1877714D01*
X5243286Y-1877714D01*
X5514714Y-1877714D02*
X5486143Y-1863429D01*
X5471857Y-1834857D01*
X5471857Y-1577714D01*
X5743286Y-1863429D02*
X5714714Y-1877714D01*
X5657571Y-1877714D01*
X5629000Y-1863429D01*
X5614714Y-1834857D01*
X5614714Y-1720571D01*
X5629000Y-1692000D01*
X5657571Y-1677714D01*
X5714714Y-1677714D01*
X5743286Y-1692000D01*
X5757571Y-1720571D01*
X5757571Y-1749143D01*
X5614714Y-1777714D01*
X5871857Y-1863429D02*
X5900428Y-1877714D01*
X5957571Y-1877714D01*
X5986143Y-1863429D01*
X6000428Y-1834857D01*
X6000428Y-1820571D01*
X5986143Y-1792000D01*
X5957571Y-1777714D01*
X5914714Y-1777714D01*
X5886143Y-1763429D01*
X5871857Y-1734857D01*
X5871857Y-1720571D01*
X5886143Y-1692000D01*
X5914714Y-1677714D01*
X5957571Y-1677714D01*
X5986143Y-1692000D01*
X6100428Y-1992000D02*
X6114714Y-1977714D01*
X6143286Y-1934857D01*
X6157571Y-1906286D01*
X6171857Y-1863429D01*
X6186143Y-1792000D01*
X6186143Y-1734857D01*
X6171857Y-1663429D01*
X6157571Y-1620571D01*
X6143286Y-1592000D01*
X6114714Y-1549143D01*
X6100428Y-1534857D01*
X-426000Y-2098000D02*
X-426000Y-2178000D01*
X-466000Y-2138000D02*
X-386000Y-2138000D01*
X-42429Y-1973714D02*
X-13857Y-1973714D01*
X14714Y-1988000D01*
X29000Y-2002286D01*
X43286Y-2030857D01*
X57571Y-2088000D01*
X57571Y-2159429D01*
X43286Y-2216572D01*
X29000Y-2245143D01*
X14714Y-2259429D01*
X-13857Y-2273714D01*
X-42429Y-2273714D01*
X-71000Y-2259429D01*
X-85286Y-2245143D01*
X-99572Y-2216572D01*
X-113857Y-2159429D01*
X-113857Y-2088000D01*
X-99572Y-2030857D01*
X-85286Y-2002286D01*
X-71000Y-1988000D01*
X-42429Y-1973714D01*
X186143Y-2245143D02*
X200428Y-2259429D01*
X186143Y-2273714D01*
X171857Y-2259429D01*
X186143Y-2245143D01*
X186143Y-2273714D01*
X371857Y-2102286D02*
X343286Y-2088000D01*
X329000Y-2073714D01*
X314714Y-2045143D01*
X314714Y-2030857D01*
X329000Y-2002286D01*
X343286Y-1988000D01*
X371857Y-1973714D01*
X429000Y-1973714D01*
X457571Y-1988000D01*
X471857Y-2002286D01*
X486143Y-2030857D01*
X486143Y-2045143D01*
X471857Y-2073714D01*
X457571Y-2088000D01*
X429000Y-2102286D01*
X371857Y-2102286D01*
X343286Y-2116572D01*
X329000Y-2130857D01*
X314714Y-2159429D01*
X314714Y-2216572D01*
X329000Y-2245143D01*
X343286Y-2259429D01*
X371857Y-2273714D01*
X429000Y-2273714D01*
X457571Y-2259429D01*
X471857Y-2245143D01*
X486143Y-2216572D01*
X486143Y-2159429D01*
X471857Y-2130857D01*
X457571Y-2116572D01*
X429000Y-2102286D01*
X671857Y-1973714D02*
X700428Y-1973714D01*
X729000Y-1988000D01*
X743286Y-2002286D01*
X757571Y-2030857D01*
X771857Y-2088000D01*
X771857Y-2159429D01*
X757571Y-2216572D01*
X743286Y-2245143D01*
X729000Y-2259429D01*
X700428Y-2273714D01*
X671857Y-2273714D01*
X643286Y-2259429D01*
X629000Y-2245143D01*
X614714Y-2216572D01*
X600428Y-2159429D01*
X600428Y-2088000D01*
X614714Y-2030857D01*
X629000Y-2002286D01*
X643286Y-1988000D01*
X671857Y-1973714D01*
X900428Y-2273714D02*
X900428Y-2073714D01*
X900428Y-2102286D02*
X914714Y-2088000D01*
X943286Y-2073714D01*
X986143Y-2073714D01*
X1014714Y-2088000D01*
X1029000Y-2116572D01*
X1029000Y-2273714D01*
X1029000Y-2116572D02*
X1043286Y-2088000D01*
X1071857Y-2073714D01*
X1114714Y-2073714D01*
X1143286Y-2088000D01*
X1157571Y-2116572D01*
X1157571Y-2273714D01*
X1300428Y-2273714D02*
X1300428Y-2073714D01*
X1300428Y-2102286D02*
X1314714Y-2088000D01*
X1343286Y-2073714D01*
X1386143Y-2073714D01*
X1414714Y-2088000D01*
X1429000Y-2116572D01*
X1429000Y-2273714D01*
X1429000Y-2116572D02*
X1443286Y-2088000D01*
X1471857Y-2073714D01*
X1514714Y-2073714D01*
X1543286Y-2088000D01*
X1557571Y-2116572D01*
X1557571Y-2273714D01*
X2143286Y-1959429D02*
X1886143Y-2345143D01*
X2529000Y-1973714D02*
X2557571Y-1973714D01*
X2586143Y-1988000D01*
X2600428Y-2002286D01*
X2614714Y-2030857D01*
X2629000Y-2088000D01*
X2629000Y-2159429D01*
X2614714Y-2216572D01*
X2600428Y-2245143D01*
X2586143Y-2259429D01*
X2557571Y-2273714D01*
X2529000Y-2273714D01*
X2500428Y-2259429D01*
X2486143Y-2245143D01*
X2471857Y-2216572D01*
X2457571Y-2159429D01*
X2457571Y-2088000D01*
X2471857Y-2030857D01*
X2486143Y-2002286D01*
X2500428Y-1988000D01*
X2529000Y-1973714D01*
X2757571Y-2245143D02*
X2771857Y-2259429D01*
X2757571Y-2273714D01*
X2743286Y-2259429D01*
X2757571Y-2245143D01*
X2757571Y-2273714D01*
X2957571Y-1973714D02*
X2986143Y-1973714D01*
X3014714Y-1988000D01*
X3029000Y-2002286D01*
X3043286Y-2030857D01*
X3057571Y-2088000D01*
X3057571Y-2159429D01*
X3043286Y-2216572D01*
X3029000Y-2245143D01*
X3014714Y-2259429D01*
X2986143Y-2273714D01*
X2957571Y-2273714D01*
X2929000Y-2259429D01*
X2914714Y-2245143D01*
X2900428Y-2216572D01*
X2886143Y-2159429D01*
X2886143Y-2088000D01*
X2900428Y-2030857D01*
X2914714Y-2002286D01*
X2929000Y-1988000D01*
X2957571Y-1973714D01*
X3157571Y-1973714D02*
X3343286Y-1973714D01*
X3243286Y-2088000D01*
X3286143Y-2088000D01*
X3314714Y-2102286D01*
X3329000Y-2116572D01*
X3343286Y-2145143D01*
X3343286Y-2216572D01*
X3329000Y-2245143D01*
X3314714Y-2259429D01*
X3286143Y-2273714D01*
X3200428Y-2273714D01*
X3171857Y-2259429D01*
X3157571Y-2245143D01*
X3629000Y-2273714D02*
X3457571Y-2273714D01*
X3543286Y-2273714D02*
X3543286Y-1973714D01*
X3514714Y-2016571D01*
X3486143Y-2045143D01*
X3457571Y-2059429D01*
X3743286Y-1973714D02*
X3743286Y-2030857D01*
X3857571Y-1973714D02*
X3857571Y-2030857D01*
X4300428Y-2388000D02*
X4286143Y-2373714D01*
X4257571Y-2330857D01*
X4243286Y-2302286D01*
X4229000Y-2259429D01*
X4214714Y-2188000D01*
X4214714Y-2130857D01*
X4229000Y-2059429D01*
X4243286Y-2016571D01*
X4257571Y-1988000D01*
X4286143Y-1945143D01*
X4300428Y-1930857D01*
X4571857Y-2273714D02*
X4400428Y-2273714D01*
X4486143Y-2273714D02*
X4486143Y-1973714D01*
X4457571Y-2016571D01*
X4429000Y-2045143D01*
X4400428Y-2059429D01*
X4843286Y-1973714D02*
X4700428Y-1973714D01*
X4686143Y-2116572D01*
X4700428Y-2102286D01*
X4729000Y-2088000D01*
X4800428Y-2088000D01*
X4829000Y-2102286D01*
X4843286Y-2116572D01*
X4857571Y-2145143D01*
X4857571Y-2216572D01*
X4843286Y-2245143D01*
X4829000Y-2259429D01*
X4800428Y-2273714D01*
X4729000Y-2273714D01*
X4700428Y-2259429D01*
X4686143Y-2245143D01*
X4971857Y-2002286D02*
X4986143Y-1988000D01*
X5014714Y-1973714D01*
X5086143Y-1973714D01*
X5114714Y-1988000D01*
X5129000Y-2002286D01*
X5143286Y-2030857D01*
X5143286Y-2059429D01*
X5129000Y-2102286D01*
X4957571Y-2273714D01*
X5143286Y-2273714D01*
X5500428Y-2273714D02*
X5500428Y-1973714D01*
X5629000Y-2273714D02*
X5629000Y-2116572D01*
X5614714Y-2088000D01*
X5586143Y-2073714D01*
X5543286Y-2073714D01*
X5514714Y-2088000D01*
X5500428Y-2102286D01*
X5814714Y-2273714D02*
X5786143Y-2259429D01*
X5771857Y-2245143D01*
X5757571Y-2216572D01*
X5757571Y-2130857D01*
X5771857Y-2102286D01*
X5786143Y-2088000D01*
X5814714Y-2073714D01*
X5857571Y-2073714D01*
X5886143Y-2088000D01*
X5900428Y-2102286D01*
X5914714Y-2130857D01*
X5914714Y-2216572D01*
X5900428Y-2245143D01*
X5886143Y-2259429D01*
X5857571Y-2273714D01*
X5814714Y-2273714D01*
X6086143Y-2273714D02*
X6057571Y-2259429D01*
X6043286Y-2230857D01*
X6043286Y-1973714D01*
X6314714Y-2259429D02*
X6286143Y-2273714D01*
X6229000Y-2273714D01*
X6200428Y-2259429D01*
X6186143Y-2230857D01*
X6186143Y-2116572D01*
X6200428Y-2088000D01*
X6229000Y-2073714D01*
X6286143Y-2073714D01*
X6314714Y-2088000D01*
X6329000Y-2116572D01*
X6329000Y-2145143D01*
X6186143Y-2173714D01*
X6443286Y-2259429D02*
X6471857Y-2273714D01*
X6529000Y-2273714D01*
X6557571Y-2259429D01*
X6571857Y-2230857D01*
X6571857Y-2216572D01*
X6557571Y-2188000D01*
X6529000Y-2173714D01*
X6486143Y-2173714D01*
X6457571Y-2159429D01*
X6443286Y-2130857D01*
X6443286Y-2116572D01*
X6457571Y-2088000D01*
X6486143Y-2073714D01*
X6529000Y-2073714D01*
X6557571Y-2088000D01*
X6671857Y-2388000D02*
X6686143Y-2373714D01*
X6714714Y-2330857D01*
X6729000Y-2302286D01*
X6743286Y-2259429D01*
X6757571Y-2188000D01*
X6757571Y-2130857D01*
X6743286Y-2059429D01*
X6729000Y-2016571D01*
X6714714Y-1988000D01*
X6686143Y-1945143D01*
X6671857Y-1930857D01*
X-397862Y-2562638D02*
X-397862Y-2505362D01*
X-455138Y-2505362D01*
X-455138Y-2562638D01*
X-397862Y-2562638D01*
X-42429Y-2369714D02*
X-13857Y-2369714D01*
X14714Y-2384000D01*
X29000Y-2398286D01*
X43286Y-2426857D01*
X57571Y-2484000D01*
X57571Y-2555429D01*
X43286Y-2612572D01*
X29000Y-2641143D01*
X14714Y-2655429D01*
X-13857Y-2669714D01*
X-42429Y-2669714D01*
X-71000Y-2655429D01*
X-85286Y-2641143D01*
X-99572Y-2612572D01*
X-113857Y-2555429D01*
X-113857Y-2484000D01*
X-99572Y-2426857D01*
X-85286Y-2398286D01*
X-71000Y-2384000D01*
X-42429Y-2369714D01*
X186143Y-2641143D02*
X200428Y-2655429D01*
X186143Y-2669714D01*
X171857Y-2655429D01*
X186143Y-2641143D01*
X186143Y-2669714D01*
X371857Y-2498286D02*
X343286Y-2484000D01*
X329000Y-2469714D01*
X314714Y-2441143D01*
X314714Y-2426857D01*
X329000Y-2398286D01*
X343286Y-2384000D01*
X371857Y-2369714D01*
X429000Y-2369714D01*
X457571Y-2384000D01*
X471857Y-2398286D01*
X486143Y-2426857D01*
X486143Y-2441143D01*
X471857Y-2469714D01*
X457571Y-2484000D01*
X429000Y-2498286D01*
X371857Y-2498286D01*
X343286Y-2512572D01*
X329000Y-2526857D01*
X314714Y-2555429D01*
X314714Y-2612572D01*
X329000Y-2641143D01*
X343286Y-2655429D01*
X371857Y-2669714D01*
X429000Y-2669714D01*
X457571Y-2655429D01*
X471857Y-2641143D01*
X486143Y-2612572D01*
X486143Y-2555429D01*
X471857Y-2526857D01*
X457571Y-2512572D01*
X429000Y-2498286D01*
X771857Y-2669714D02*
X600428Y-2669714D01*
X686143Y-2669714D02*
X686143Y-2369714D01*
X657571Y-2412572D01*
X629000Y-2441143D01*
X600428Y-2455429D01*
X900428Y-2669714D02*
X900428Y-2469714D01*
X900428Y-2498286D02*
X914714Y-2484000D01*
X943286Y-2469714D01*
X986143Y-2469714D01*
X1014714Y-2484000D01*
X1029000Y-2512572D01*
X1029000Y-2669714D01*
X1029000Y-2512572D02*
X1043286Y-2484000D01*
X1071857Y-2469714D01*
X1114714Y-2469714D01*
X1143286Y-2484000D01*
X1157571Y-2512572D01*
X1157571Y-2669714D01*
X1300428Y-2669714D02*
X1300428Y-2469714D01*
X1300428Y-2498286D02*
X1314714Y-2484000D01*
X1343286Y-2469714D01*
X1386143Y-2469714D01*
X1414714Y-2484000D01*
X1429000Y-2512572D01*
X1429000Y-2669714D01*
X1429000Y-2512572D02*
X1443286Y-2484000D01*
X1471857Y-2469714D01*
X1514714Y-2469714D01*
X1543286Y-2484000D01*
X1557571Y-2512572D01*
X1557571Y-2669714D01*
X2143286Y-2355429D02*
X1886143Y-2741143D01*
X2529000Y-2369714D02*
X2557571Y-2369714D01*
X2586143Y-2384000D01*
X2600428Y-2398286D01*
X2614714Y-2426857D01*
X2629000Y-2484000D01*
X2629000Y-2555429D01*
X2614714Y-2612572D01*
X2600428Y-2641143D01*
X2586143Y-2655429D01*
X2557571Y-2669714D01*
X2529000Y-2669714D01*
X2500428Y-2655429D01*
X2486143Y-2641143D01*
X2471857Y-2612572D01*
X2457571Y-2555429D01*
X2457571Y-2484000D01*
X2471857Y-2426857D01*
X2486143Y-2398286D01*
X2500428Y-2384000D01*
X2529000Y-2369714D01*
X2757571Y-2641143D02*
X2771857Y-2655429D01*
X2757571Y-2669714D01*
X2743286Y-2655429D01*
X2757571Y-2641143D01*
X2757571Y-2669714D01*
X2957571Y-2369714D02*
X2986143Y-2369714D01*
X3014714Y-2384000D01*
X3029000Y-2398286D01*
X3043286Y-2426857D01*
X3057571Y-2484000D01*
X3057571Y-2555429D01*
X3043286Y-2612572D01*
X3029000Y-2641143D01*
X3014714Y-2655429D01*
X2986143Y-2669714D01*
X2957571Y-2669714D01*
X2929000Y-2655429D01*
X2914714Y-2641143D01*
X2900428Y-2612572D01*
X2886143Y-2555429D01*
X2886143Y-2484000D01*
X2900428Y-2426857D01*
X2914714Y-2398286D01*
X2929000Y-2384000D01*
X2957571Y-2369714D01*
X3157571Y-2369714D02*
X3343286Y-2369714D01*
X3243286Y-2484000D01*
X3286143Y-2484000D01*
X3314714Y-2498286D01*
X3329000Y-2512572D01*
X3343286Y-2541143D01*
X3343286Y-2612572D01*
X3329000Y-2641143D01*
X3314714Y-2655429D01*
X3286143Y-2669714D01*
X3200428Y-2669714D01*
X3171857Y-2655429D01*
X3157571Y-2641143D01*
X3457571Y-2398286D02*
X3471857Y-2384000D01*
X3500428Y-2369714D01*
X3571857Y-2369714D01*
X3600428Y-2384000D01*
X3614714Y-2398286D01*
X3629000Y-2426857D01*
X3629000Y-2455429D01*
X3614714Y-2498286D01*
X3443286Y-2669714D01*
X3629000Y-2669714D01*
X3743286Y-2369714D02*
X3743286Y-2426857D01*
X3857571Y-2369714D02*
X3857571Y-2426857D01*
X4300428Y-2784000D02*
X4286143Y-2769714D01*
X4257571Y-2726857D01*
X4243286Y-2698286D01*
X4229000Y-2655429D01*
X4214714Y-2584000D01*
X4214714Y-2526857D01*
X4229000Y-2455429D01*
X4243286Y-2412572D01*
X4257571Y-2384000D01*
X4286143Y-2341143D01*
X4300428Y-2326857D01*
X4543286Y-2469714D02*
X4543286Y-2669714D01*
X4471857Y-2355429D02*
X4400428Y-2569714D01*
X4586143Y-2569714D01*
X4929000Y-2669714D02*
X4929000Y-2369714D01*
X5057571Y-2669714D02*
X5057571Y-2512572D01*
X5043286Y-2484000D01*
X5014714Y-2469714D01*
X4971857Y-2469714D01*
X4943286Y-2484000D01*
X4929000Y-2498286D01*
X5243286Y-2669714D02*
X5214714Y-2655429D01*
X5200428Y-2641143D01*
X5186143Y-2612572D01*
X5186143Y-2526857D01*
X5200428Y-2498286D01*
X5214714Y-2484000D01*
X5243286Y-2469714D01*
X5286143Y-2469714D01*
X5314714Y-2484000D01*
X5329000Y-2498286D01*
X5343286Y-2526857D01*
X5343286Y-2612572D01*
X5329000Y-2641143D01*
X5314714Y-2655429D01*
X5286143Y-2669714D01*
X5243286Y-2669714D01*
X5514714Y-2669714D02*
X5486143Y-2655429D01*
X5471857Y-2626857D01*
X5471857Y-2369714D01*
X5743286Y-2655429D02*
X5714714Y-2669714D01*
X5657571Y-2669714D01*
X5629000Y-2655429D01*
X5614714Y-2626857D01*
X5614714Y-2512572D01*
X5629000Y-2484000D01*
X5657571Y-2469714D01*
X5714714Y-2469714D01*
X5743286Y-2484000D01*
X5757571Y-2512572D01*
X5757571Y-2541143D01*
X5614714Y-2569714D01*
X5871857Y-2655429D02*
X5900428Y-2669714D01*
X5957571Y-2669714D01*
X5986143Y-2655429D01*
X6000428Y-2626857D01*
X6000428Y-2612572D01*
X5986143Y-2584000D01*
X5957571Y-2569714D01*
X5914714Y-2569714D01*
X5886143Y-2555429D01*
X5871857Y-2526857D01*
X5871857Y-2512572D01*
X5886143Y-2484000D01*
X5914714Y-2469714D01*
X5957571Y-2469714D01*
X5986143Y-2484000D01*
X6100428Y-2784000D02*
X6114714Y-2769714D01*
X6143286Y-2726857D01*
X6157571Y-2698286D01*
X6171857Y-2655429D01*
X6186143Y-2584000D01*
X6186143Y-2526857D01*
X6171857Y-2455429D01*
X6157571Y-2412572D01*
X6143286Y-2384000D01*
X6114714Y-2341143D01*
X6100428Y-2326857D01*
X-431000Y-2975000D02*
X-386000Y-2930000D01*
X-431000Y-2885000D01*
X-476000Y-2930000D01*
X-431000Y-2975000D01*
X-42429Y-2765714D02*
X-13857Y-2765714D01*
X14714Y-2780000D01*
X29000Y-2794286D01*
X43286Y-2822857D01*
X57571Y-2880000D01*
X57571Y-2951429D01*
X43286Y-3008571D01*
X29000Y-3037143D01*
X14714Y-3051429D01*
X-13857Y-3065714D01*
X-42429Y-3065714D01*
X-71000Y-3051429D01*
X-85286Y-3037143D01*
X-99572Y-3008571D01*
X-113857Y-2951429D01*
X-113857Y-2880000D01*
X-99572Y-2822857D01*
X-85286Y-2794286D01*
X-71000Y-2780000D01*
X-42429Y-2765714D01*
X186143Y-3037143D02*
X200428Y-3051429D01*
X186143Y-3065714D01*
X171857Y-3051429D01*
X186143Y-3037143D01*
X186143Y-3065714D01*
X343286Y-3065714D02*
X400428Y-3065714D01*
X429000Y-3051429D01*
X443286Y-3037143D01*
X471857Y-2994286D01*
X486143Y-2937143D01*
X486143Y-2822857D01*
X471857Y-2794286D01*
X457571Y-2780000D01*
X429000Y-2765714D01*
X371857Y-2765714D01*
X343286Y-2780000D01*
X329000Y-2794286D01*
X314714Y-2822857D01*
X314714Y-2894286D01*
X329000Y-2922857D01*
X343286Y-2937143D01*
X371857Y-2951429D01*
X429000Y-2951429D01*
X457571Y-2937143D01*
X471857Y-2922857D01*
X486143Y-2894286D01*
X671857Y-2765714D02*
X700428Y-2765714D01*
X729000Y-2780000D01*
X743286Y-2794286D01*
X757571Y-2822857D01*
X771857Y-2880000D01*
X771857Y-2951429D01*
X757571Y-3008571D01*
X743286Y-3037143D01*
X729000Y-3051429D01*
X700428Y-3065714D01*
X671857Y-3065714D01*
X643286Y-3051429D01*
X629000Y-3037143D01*
X614714Y-3008571D01*
X600428Y-2951429D01*
X600428Y-2880000D01*
X614714Y-2822857D01*
X629000Y-2794286D01*
X643286Y-2780000D01*
X671857Y-2765714D01*
X900428Y-3065714D02*
X900428Y-2865714D01*
X900428Y-2894286D02*
X914714Y-2880000D01*
X943286Y-2865714D01*
X986143Y-2865714D01*
X1014714Y-2880000D01*
X1029000Y-2908571D01*
X1029000Y-3065714D01*
X1029000Y-2908571D02*
X1043286Y-2880000D01*
X1071857Y-2865714D01*
X1114714Y-2865714D01*
X1143286Y-2880000D01*
X1157571Y-2908571D01*
X1157571Y-3065714D01*
X1300428Y-3065714D02*
X1300428Y-2865714D01*
X1300428Y-2894286D02*
X1314714Y-2880000D01*
X1343286Y-2865714D01*
X1386143Y-2865714D01*
X1414714Y-2880000D01*
X1429000Y-2908571D01*
X1429000Y-3065714D01*
X1429000Y-2908571D02*
X1443286Y-2880000D01*
X1471857Y-2865714D01*
X1514714Y-2865714D01*
X1543286Y-2880000D01*
X1557571Y-2908571D01*
X1557571Y-3065714D01*
X2143286Y-2751429D02*
X1886143Y-3137143D01*
X2529000Y-2765714D02*
X2557571Y-2765714D01*
X2586143Y-2780000D01*
X2600428Y-2794286D01*
X2614714Y-2822857D01*
X2629000Y-2880000D01*
X2629000Y-2951429D01*
X2614714Y-3008571D01*
X2600428Y-3037143D01*
X2586143Y-3051429D01*
X2557571Y-3065714D01*
X2529000Y-3065714D01*
X2500428Y-3051429D01*
X2486143Y-3037143D01*
X2471857Y-3008571D01*
X2457571Y-2951429D01*
X2457571Y-2880000D01*
X2471857Y-2822857D01*
X2486143Y-2794286D01*
X2500428Y-2780000D01*
X2529000Y-2765714D01*
X2757571Y-3037143D02*
X2771857Y-3051429D01*
X2757571Y-3065714D01*
X2743286Y-3051429D01*
X2757571Y-3037143D01*
X2757571Y-3065714D01*
X2957571Y-2765714D02*
X2986143Y-2765714D01*
X3014714Y-2780000D01*
X3029000Y-2794286D01*
X3043286Y-2822857D01*
X3057571Y-2880000D01*
X3057571Y-2951429D01*
X3043286Y-3008571D01*
X3029000Y-3037143D01*
X3014714Y-3051429D01*
X2986143Y-3065714D01*
X2957571Y-3065714D01*
X2929000Y-3051429D01*
X2914714Y-3037143D01*
X2900428Y-3008571D01*
X2886143Y-2951429D01*
X2886143Y-2880000D01*
X2900428Y-2822857D01*
X2914714Y-2794286D01*
X2929000Y-2780000D01*
X2957571Y-2765714D01*
X3157571Y-2765714D02*
X3343286Y-2765714D01*
X3243286Y-2880000D01*
X3286143Y-2880000D01*
X3314714Y-2894286D01*
X3329000Y-2908571D01*
X3343286Y-2937143D01*
X3343286Y-3008571D01*
X3329000Y-3037143D01*
X3314714Y-3051429D01*
X3286143Y-3065714D01*
X3200428Y-3065714D01*
X3171857Y-3051429D01*
X3157571Y-3037143D01*
X3614714Y-2765714D02*
X3471857Y-2765714D01*
X3457571Y-2908571D01*
X3471857Y-2894286D01*
X3500428Y-2880000D01*
X3571857Y-2880000D01*
X3600428Y-2894286D01*
X3614714Y-2908571D01*
X3629000Y-2937143D01*
X3629000Y-3008571D01*
X3614714Y-3037143D01*
X3600428Y-3051429D01*
X3571857Y-3065714D01*
X3500428Y-3065714D01*
X3471857Y-3051429D01*
X3457571Y-3037143D01*
X3743286Y-2765714D02*
X3743286Y-2822857D01*
X3857571Y-2765714D02*
X3857571Y-2822857D01*
X4300428Y-3180000D02*
X4286143Y-3165714D01*
X4257571Y-3122857D01*
X4243286Y-3094286D01*
X4229000Y-3051429D01*
X4214714Y-2980000D01*
X4214714Y-2922857D01*
X4229000Y-2851429D01*
X4243286Y-2808571D01*
X4257571Y-2780000D01*
X4286143Y-2737143D01*
X4300428Y-2722857D01*
X4400428Y-2794286D02*
X4414714Y-2780000D01*
X4443286Y-2765714D01*
X4514714Y-2765714D01*
X4543286Y-2780000D01*
X4557571Y-2794286D01*
X4571857Y-2822857D01*
X4571857Y-2851429D01*
X4557571Y-2894286D01*
X4386143Y-3065714D01*
X4571857Y-3065714D01*
X4757571Y-2765714D02*
X4786143Y-2765714D01*
X4814714Y-2780000D01*
X4829000Y-2794286D01*
X4843286Y-2822857D01*
X4857571Y-2880000D01*
X4857571Y-2951429D01*
X4843286Y-3008571D01*
X4829000Y-3037143D01*
X4814714Y-3051429D01*
X4786143Y-3065714D01*
X4757571Y-3065714D01*
X4729000Y-3051429D01*
X4714714Y-3037143D01*
X4700428Y-3008571D01*
X4686143Y-2951429D01*
X4686143Y-2880000D01*
X4700428Y-2822857D01*
X4714714Y-2794286D01*
X4729000Y-2780000D01*
X4757571Y-2765714D01*
X5214714Y-3065714D02*
X5214714Y-2765714D01*
X5343286Y-3065714D02*
X5343286Y-2908571D01*
X5329000Y-2880000D01*
X5300428Y-2865714D01*
X5257571Y-2865714D01*
X5229000Y-2880000D01*
X5214714Y-2894286D01*
X5529000Y-3065714D02*
X5500428Y-3051429D01*
X5486143Y-3037143D01*
X5471857Y-3008571D01*
X5471857Y-2922857D01*
X5486143Y-2894286D01*
X5500428Y-2880000D01*
X5529000Y-2865714D01*
X5571857Y-2865714D01*
X5600428Y-2880000D01*
X5614714Y-2894286D01*
X5629000Y-2922857D01*
X5629000Y-3008571D01*
X5614714Y-3037143D01*
X5600428Y-3051429D01*
X5571857Y-3065714D01*
X5529000Y-3065714D01*
X5800428Y-3065714D02*
X5771857Y-3051429D01*
X5757571Y-3022857D01*
X5757571Y-2765714D01*
X6029000Y-3051429D02*
X6000428Y-3065714D01*
X5943286Y-3065714D01*
X5914714Y-3051429D01*
X5900428Y-3022857D01*
X5900428Y-2908571D01*
X5914714Y-2880000D01*
X5943286Y-2865714D01*
X6000428Y-2865714D01*
X6029000Y-2880000D01*
X6043286Y-2908571D01*
X6043286Y-2937143D01*
X5900428Y-2965714D01*
X6157571Y-3051429D02*
X6186143Y-3065714D01*
X6243286Y-3065714D01*
X6271857Y-3051429D01*
X6286143Y-3022857D01*
X6286143Y-3008571D01*
X6271857Y-2980000D01*
X6243286Y-2965714D01*
X6200428Y-2965714D01*
X6171857Y-2951429D01*
X6157571Y-2922857D01*
X6157571Y-2908571D01*
X6171857Y-2880000D01*
X6200428Y-2865714D01*
X6243286Y-2865714D01*
X6271857Y-2880000D01*
X6386143Y-3180000D02*
X6400428Y-3165714D01*
X6429000Y-3122857D01*
X6443286Y-3094286D01*
X6457571Y-3051429D01*
X6471857Y-2980000D01*
X6471857Y-2922857D01*
X6457571Y-2851429D01*
X6443286Y-2808571D01*
X6429000Y-2780000D01*
X6400428Y-2737143D01*
X6386143Y-2722857D01*
X-486000Y-3276000D02*
X-386000Y-3376000D01*
X-386000Y-3276000D02*
X-486000Y-3376000D01*
X-386000Y-3326000D02*
G75*
G03X-386000Y-3326000I-50000J0D01*
G01*
X57571Y-3461714D02*
X-113857Y-3461714D01*
X-28143Y-3461714D02*
X-28143Y-3161714D01*
X-56714Y-3204571D01*
X-85286Y-3233143D01*
X-113857Y-3247429D01*
X186143Y-3433143D02*
X200428Y-3447429D01*
X186143Y-3461714D01*
X171857Y-3447429D01*
X186143Y-3433143D01*
X186143Y-3461714D01*
X386143Y-3161714D02*
X414714Y-3161714D01*
X443286Y-3176000D01*
X457571Y-3190286D01*
X471857Y-3218857D01*
X486143Y-3276000D01*
X486143Y-3347429D01*
X471857Y-3404571D01*
X457571Y-3433143D01*
X443286Y-3447429D01*
X414714Y-3461714D01*
X386143Y-3461714D01*
X357571Y-3447429D01*
X343286Y-3433143D01*
X329000Y-3404571D01*
X314714Y-3347429D01*
X314714Y-3276000D01*
X329000Y-3218857D01*
X343286Y-3190286D01*
X357571Y-3176000D01*
X386143Y-3161714D01*
X671857Y-3161714D02*
X700428Y-3161714D01*
X729000Y-3176000D01*
X743286Y-3190286D01*
X757571Y-3218857D01*
X771857Y-3276000D01*
X771857Y-3347429D01*
X757571Y-3404571D01*
X743286Y-3433143D01*
X729000Y-3447429D01*
X700428Y-3461714D01*
X671857Y-3461714D01*
X643286Y-3447429D01*
X629000Y-3433143D01*
X614714Y-3404571D01*
X600428Y-3347429D01*
X600428Y-3276000D01*
X614714Y-3218857D01*
X629000Y-3190286D01*
X643286Y-3176000D01*
X671857Y-3161714D01*
X900428Y-3461714D02*
X900428Y-3261714D01*
X900428Y-3290286D02*
X914714Y-3276000D01*
X943286Y-3261714D01*
X986143Y-3261714D01*
X1014714Y-3276000D01*
X1029000Y-3304571D01*
X1029000Y-3461714D01*
X1029000Y-3304571D02*
X1043286Y-3276000D01*
X1071857Y-3261714D01*
X1114714Y-3261714D01*
X1143286Y-3276000D01*
X1157571Y-3304571D01*
X1157571Y-3461714D01*
X1300428Y-3461714D02*
X1300428Y-3261714D01*
X1300428Y-3290286D02*
X1314714Y-3276000D01*
X1343286Y-3261714D01*
X1386143Y-3261714D01*
X1414714Y-3276000D01*
X1429000Y-3304571D01*
X1429000Y-3461714D01*
X1429000Y-3304571D02*
X1443286Y-3276000D01*
X1471857Y-3261714D01*
X1514714Y-3261714D01*
X1543286Y-3276000D01*
X1557571Y-3304571D01*
X1557571Y-3461714D01*
X2143286Y-3147429D02*
X1886143Y-3533143D01*
X2529000Y-3161714D02*
X2557571Y-3161714D01*
X2586143Y-3176000D01*
X2600428Y-3190286D01*
X2614714Y-3218857D01*
X2629000Y-3276000D01*
X2629000Y-3347429D01*
X2614714Y-3404571D01*
X2600428Y-3433143D01*
X2586143Y-3447429D01*
X2557571Y-3461714D01*
X2529000Y-3461714D01*
X2500428Y-3447429D01*
X2486143Y-3433143D01*
X2471857Y-3404571D01*
X2457571Y-3347429D01*
X2457571Y-3276000D01*
X2471857Y-3218857D01*
X2486143Y-3190286D01*
X2500428Y-3176000D01*
X2529000Y-3161714D01*
X2757571Y-3433143D02*
X2771857Y-3447429D01*
X2757571Y-3461714D01*
X2743286Y-3447429D01*
X2757571Y-3433143D01*
X2757571Y-3461714D01*
X2957571Y-3161714D02*
X2986143Y-3161714D01*
X3014714Y-3176000D01*
X3029000Y-3190286D01*
X3043286Y-3218857D01*
X3057571Y-3276000D01*
X3057571Y-3347429D01*
X3043286Y-3404571D01*
X3029000Y-3433143D01*
X3014714Y-3447429D01*
X2986143Y-3461714D01*
X2957571Y-3461714D01*
X2929000Y-3447429D01*
X2914714Y-3433143D01*
X2900428Y-3404571D01*
X2886143Y-3347429D01*
X2886143Y-3276000D01*
X2900428Y-3218857D01*
X2914714Y-3190286D01*
X2929000Y-3176000D01*
X2957571Y-3161714D01*
X3157571Y-3161714D02*
X3343286Y-3161714D01*
X3243286Y-3276000D01*
X3286143Y-3276000D01*
X3314714Y-3290286D01*
X3329000Y-3304571D01*
X3343286Y-3333143D01*
X3343286Y-3404571D01*
X3329000Y-3433143D01*
X3314714Y-3447429D01*
X3286143Y-3461714D01*
X3200428Y-3461714D01*
X3171857Y-3447429D01*
X3157571Y-3433143D01*
X3486143Y-3461714D02*
X3543286Y-3461714D01*
X3571857Y-3447429D01*
X3586143Y-3433143D01*
X3614714Y-3390286D01*
X3629000Y-3333143D01*
X3629000Y-3218857D01*
X3614714Y-3190286D01*
X3600428Y-3176000D01*
X3571857Y-3161714D01*
X3514714Y-3161714D01*
X3486143Y-3176000D01*
X3471857Y-3190286D01*
X3457571Y-3218857D01*
X3457571Y-3290286D01*
X3471857Y-3318857D01*
X3486143Y-3333143D01*
X3514714Y-3347429D01*
X3571857Y-3347429D01*
X3600428Y-3333143D01*
X3614714Y-3318857D01*
X3629000Y-3290286D01*
X3743286Y-3161714D02*
X3743286Y-3218857D01*
X3857571Y-3161714D02*
X3857571Y-3218857D01*
X4300428Y-3576000D02*
X4286143Y-3561714D01*
X4257571Y-3518857D01*
X4243286Y-3490286D01*
X4229000Y-3447429D01*
X4214714Y-3376000D01*
X4214714Y-3318857D01*
X4229000Y-3247429D01*
X4243286Y-3204571D01*
X4257571Y-3176000D01*
X4286143Y-3133143D01*
X4300428Y-3118857D01*
X4457571Y-3290286D02*
X4429000Y-3276000D01*
X4414714Y-3261714D01*
X4400428Y-3233143D01*
X4400428Y-3218857D01*
X4414714Y-3190286D01*
X4429000Y-3176000D01*
X4457571Y-3161714D01*
X4514714Y-3161714D01*
X4543286Y-3176000D01*
X4557571Y-3190286D01*
X4571857Y-3218857D01*
X4571857Y-3233143D01*
X4557571Y-3261714D01*
X4543286Y-3276000D01*
X4514714Y-3290286D01*
X4457571Y-3290286D01*
X4429000Y-3304571D01*
X4414714Y-3318857D01*
X4400428Y-3347429D01*
X4400428Y-3404571D01*
X4414714Y-3433143D01*
X4429000Y-3447429D01*
X4457571Y-3461714D01*
X4514714Y-3461714D01*
X4543286Y-3447429D01*
X4557571Y-3433143D01*
X4571857Y-3404571D01*
X4571857Y-3347429D01*
X4557571Y-3318857D01*
X4543286Y-3304571D01*
X4514714Y-3290286D01*
X4843286Y-3161714D02*
X4700428Y-3161714D01*
X4686143Y-3304571D01*
X4700428Y-3290286D01*
X4729000Y-3276000D01*
X4800428Y-3276000D01*
X4829000Y-3290286D01*
X4843286Y-3304571D01*
X4857571Y-3333143D01*
X4857571Y-3404571D01*
X4843286Y-3433143D01*
X4829000Y-3447429D01*
X4800428Y-3461714D01*
X4729000Y-3461714D01*
X4700428Y-3447429D01*
X4686143Y-3433143D01*
X5214714Y-3461714D02*
X5214714Y-3161714D01*
X5343286Y-3461714D02*
X5343286Y-3304571D01*
X5329000Y-3276000D01*
X5300428Y-3261714D01*
X5257571Y-3261714D01*
X5229000Y-3276000D01*
X5214714Y-3290286D01*
X5529000Y-3461714D02*
X5500428Y-3447429D01*
X5486143Y-3433143D01*
X5471857Y-3404571D01*
X5471857Y-3318857D01*
X5486143Y-3290286D01*
X5500428Y-3276000D01*
X5529000Y-3261714D01*
X5571857Y-3261714D01*
X5600428Y-3276000D01*
X5614714Y-3290286D01*
X5629000Y-3318857D01*
X5629000Y-3404571D01*
X5614714Y-3433143D01*
X5600428Y-3447429D01*
X5571857Y-3461714D01*
X5529000Y-3461714D01*
X5800428Y-3461714D02*
X5771857Y-3447429D01*
X5757571Y-3418857D01*
X5757571Y-3161714D01*
X6029000Y-3447429D02*
X6000428Y-3461714D01*
X5943286Y-3461714D01*
X5914714Y-3447429D01*
X5900428Y-3418857D01*
X5900428Y-3304571D01*
X5914714Y-3276000D01*
X5943286Y-3261714D01*
X6000428Y-3261714D01*
X6029000Y-3276000D01*
X6043286Y-3304571D01*
X6043286Y-3333143D01*
X5900428Y-3361714D01*
X6157571Y-3447429D02*
X6186143Y-3461714D01*
X6243286Y-3461714D01*
X6271857Y-3447429D01*
X6286143Y-3418857D01*
X6286143Y-3404571D01*
X6271857Y-3376000D01*
X6243286Y-3361714D01*
X6200428Y-3361714D01*
X6171857Y-3347429D01*
X6157571Y-3318857D01*
X6157571Y-3304571D01*
X6171857Y-3276000D01*
X6200428Y-3261714D01*
X6243286Y-3261714D01*
X6271857Y-3276000D01*
X6386143Y-3576000D02*
X6400428Y-3561714D01*
X6429000Y-3518857D01*
X6443286Y-3490286D01*
X6457571Y-3447429D01*
X6471857Y-3376000D01*
X6471857Y-3318857D01*
X6457571Y-3247429D01*
X6443286Y-3204571D01*
X6429000Y-3176000D01*
X6400428Y-3133143D01*
X6386143Y-3118857D01*
X-496000Y-3667000D02*
X-386000Y-3777000D01*
X-386000Y-3667000D02*
X-496000Y-3777000D01*
X-441000Y-3667000D02*
X-441000Y-3777000D01*
X-496000Y-3722000D02*
X-386000Y-3722000D01*
X57571Y-3857714D02*
X-113857Y-3857714D01*
X-28143Y-3857714D02*
X-28143Y-3557714D01*
X-56714Y-3600571D01*
X-85286Y-3629143D01*
X-113857Y-3643429D01*
X186143Y-3829143D02*
X200428Y-3843429D01*
X186143Y-3857714D01*
X171857Y-3843429D01*
X186143Y-3829143D01*
X186143Y-3857714D01*
X486143Y-3857714D02*
X314714Y-3857714D01*
X400428Y-3857714D02*
X400428Y-3557714D01*
X371857Y-3600571D01*
X343286Y-3629143D01*
X314714Y-3643429D01*
X671857Y-3557714D02*
X700428Y-3557714D01*
X729000Y-3572000D01*
X743286Y-3586286D01*
X757571Y-3614857D01*
X771857Y-3672000D01*
X771857Y-3743429D01*
X757571Y-3800571D01*
X743286Y-3829143D01*
X729000Y-3843429D01*
X700428Y-3857714D01*
X671857Y-3857714D01*
X643286Y-3843429D01*
X629000Y-3829143D01*
X614714Y-3800571D01*
X600428Y-3743429D01*
X600428Y-3672000D01*
X614714Y-3614857D01*
X629000Y-3586286D01*
X643286Y-3572000D01*
X671857Y-3557714D01*
X900428Y-3857714D02*
X900428Y-3657714D01*
X900428Y-3686286D02*
X914714Y-3672000D01*
X943286Y-3657714D01*
X986143Y-3657714D01*
X1014714Y-3672000D01*
X1029000Y-3700571D01*
X1029000Y-3857714D01*
X1029000Y-3700571D02*
X1043286Y-3672000D01*
X1071857Y-3657714D01*
X1114714Y-3657714D01*
X1143286Y-3672000D01*
X1157571Y-3700571D01*
X1157571Y-3857714D01*
X1300428Y-3857714D02*
X1300428Y-3657714D01*
X1300428Y-3686286D02*
X1314714Y-3672000D01*
X1343286Y-3657714D01*
X1386143Y-3657714D01*
X1414714Y-3672000D01*
X1429000Y-3700571D01*
X1429000Y-3857714D01*
X1429000Y-3700571D02*
X1443286Y-3672000D01*
X1471857Y-3657714D01*
X1514714Y-3657714D01*
X1543286Y-3672000D01*
X1557571Y-3700571D01*
X1557571Y-3857714D01*
X2143286Y-3543429D02*
X1886143Y-3929143D01*
X2529000Y-3557714D02*
X2557571Y-3557714D01*
X2586143Y-3572000D01*
X2600428Y-3586286D01*
X2614714Y-3614857D01*
X2629000Y-3672000D01*
X2629000Y-3743429D01*
X2614714Y-3800571D01*
X2600428Y-3829143D01*
X2586143Y-3843429D01*
X2557571Y-3857714D01*
X2529000Y-3857714D01*
X2500428Y-3843429D01*
X2486143Y-3829143D01*
X2471857Y-3800571D01*
X2457571Y-3743429D01*
X2457571Y-3672000D01*
X2471857Y-3614857D01*
X2486143Y-3586286D01*
X2500428Y-3572000D01*
X2529000Y-3557714D01*
X2757571Y-3829143D02*
X2771857Y-3843429D01*
X2757571Y-3857714D01*
X2743286Y-3843429D01*
X2757571Y-3829143D01*
X2757571Y-3857714D01*
X2957571Y-3557714D02*
X2986143Y-3557714D01*
X3014714Y-3572000D01*
X3029000Y-3586286D01*
X3043286Y-3614857D01*
X3057571Y-3672000D01*
X3057571Y-3743429D01*
X3043286Y-3800571D01*
X3029000Y-3829143D01*
X3014714Y-3843429D01*
X2986143Y-3857714D01*
X2957571Y-3857714D01*
X2929000Y-3843429D01*
X2914714Y-3829143D01*
X2900428Y-3800571D01*
X2886143Y-3743429D01*
X2886143Y-3672000D01*
X2900428Y-3614857D01*
X2914714Y-3586286D01*
X2929000Y-3572000D01*
X2957571Y-3557714D01*
X3314714Y-3657714D02*
X3314714Y-3857714D01*
X3243286Y-3543429D02*
X3171857Y-3757714D01*
X3357571Y-3757714D01*
X3443286Y-3557714D02*
X3629000Y-3557714D01*
X3529000Y-3672000D01*
X3571857Y-3672000D01*
X3600428Y-3686286D01*
X3614714Y-3700571D01*
X3629000Y-3729143D01*
X3629000Y-3800571D01*
X3614714Y-3829143D01*
X3600428Y-3843429D01*
X3571857Y-3857714D01*
X3486143Y-3857714D01*
X3457571Y-3843429D01*
X3443286Y-3829143D01*
X3743286Y-3557714D02*
X3743286Y-3614857D01*
X3857571Y-3557714D02*
X3857571Y-3614857D01*
X4300428Y-3972000D02*
X4286143Y-3957714D01*
X4257571Y-3914857D01*
X4243286Y-3886286D01*
X4229000Y-3843429D01*
X4214714Y-3772000D01*
X4214714Y-3714857D01*
X4229000Y-3643429D01*
X4243286Y-3600571D01*
X4257571Y-3572000D01*
X4286143Y-3529143D01*
X4300428Y-3514857D01*
X4400428Y-3586286D02*
X4414714Y-3572000D01*
X4443286Y-3557714D01*
X4514714Y-3557714D01*
X4543286Y-3572000D01*
X4557571Y-3586286D01*
X4571857Y-3614857D01*
X4571857Y-3643429D01*
X4557571Y-3686286D01*
X4386143Y-3857714D01*
X4571857Y-3857714D01*
X4829000Y-3657714D02*
X4829000Y-3857714D01*
X4757571Y-3543429D02*
X4686143Y-3757714D01*
X4871857Y-3757714D01*
X5214714Y-3857714D02*
X5214714Y-3557714D01*
X5343286Y-3857714D02*
X5343286Y-3700571D01*
X5329000Y-3672000D01*
X5300428Y-3657714D01*
X5257571Y-3657714D01*
X5229000Y-3672000D01*
X5214714Y-3686286D01*
X5529000Y-3857714D02*
X5500428Y-3843429D01*
X5486143Y-3829143D01*
X5471857Y-3800571D01*
X5471857Y-3714857D01*
X5486143Y-3686286D01*
X5500428Y-3672000D01*
X5529000Y-3657714D01*
X5571857Y-3657714D01*
X5600428Y-3672000D01*
X5614714Y-3686286D01*
X5629000Y-3714857D01*
X5629000Y-3800571D01*
X5614714Y-3829143D01*
X5600428Y-3843429D01*
X5571857Y-3857714D01*
X5529000Y-3857714D01*
X5800428Y-3857714D02*
X5771857Y-3843429D01*
X5757571Y-3814857D01*
X5757571Y-3557714D01*
X6029000Y-3843429D02*
X6000428Y-3857714D01*
X5943286Y-3857714D01*
X5914714Y-3843429D01*
X5900428Y-3814857D01*
X5900428Y-3700571D01*
X5914714Y-3672000D01*
X5943286Y-3657714D01*
X6000428Y-3657714D01*
X6029000Y-3672000D01*
X6043286Y-3700571D01*
X6043286Y-3729143D01*
X5900428Y-3757714D01*
X6157571Y-3843429D02*
X6186143Y-3857714D01*
X6243286Y-3857714D01*
X6271857Y-3843429D01*
X6286143Y-3814857D01*
X6286143Y-3800571D01*
X6271857Y-3772000D01*
X6243286Y-3757714D01*
X6200428Y-3757714D01*
X6171857Y-3743429D01*
X6157571Y-3714857D01*
X6157571Y-3700571D01*
X6171857Y-3672000D01*
X6200428Y-3657714D01*
X6243286Y-3657714D01*
X6271857Y-3672000D01*
X6386143Y-3972000D02*
X6400428Y-3957714D01*
X6429000Y-3914857D01*
X6443286Y-3886286D01*
X6457571Y-3843429D01*
X6471857Y-3772000D01*
X6471857Y-3714857D01*
X6457571Y-3643429D01*
X6443286Y-3600571D01*
X6429000Y-3572000D01*
X6400428Y-3529143D01*
X6386143Y-3514857D01*
X-516000Y-4053000D02*
X-386000Y-4183000D01*
X-386000Y-4053000D02*
X-516000Y-4183000D01*
X-405038Y-4163962D02*
X-405038Y-4072038D01*
X-496962Y-4072038D01*
X-496962Y-4163962D01*
X-405038Y-4163962D01*
X57571Y-4253714D02*
X-113857Y-4253714D01*
X-28143Y-4253714D02*
X-28143Y-3953714D01*
X-56714Y-3996571D01*
X-85286Y-4025143D01*
X-113857Y-4039429D01*
X186143Y-4225143D02*
X200428Y-4239429D01*
X186143Y-4253714D01*
X171857Y-4239429D01*
X186143Y-4225143D01*
X186143Y-4253714D01*
X300428Y-3953714D02*
X486143Y-3953714D01*
X386143Y-4068000D01*
X429000Y-4068000D01*
X457571Y-4082286D01*
X471857Y-4096571D01*
X486143Y-4125143D01*
X486143Y-4196572D01*
X471857Y-4225143D01*
X457571Y-4239429D01*
X429000Y-4253714D01*
X343286Y-4253714D01*
X314714Y-4239429D01*
X300428Y-4225143D01*
X671857Y-3953714D02*
X700428Y-3953714D01*
X729000Y-3968000D01*
X743286Y-3982286D01*
X757571Y-4010857D01*
X771857Y-4068000D01*
X771857Y-4139429D01*
X757571Y-4196572D01*
X743286Y-4225143D01*
X729000Y-4239429D01*
X700428Y-4253714D01*
X671857Y-4253714D01*
X643286Y-4239429D01*
X629000Y-4225143D01*
X614714Y-4196572D01*
X600428Y-4139429D01*
X600428Y-4068000D01*
X614714Y-4010857D01*
X629000Y-3982286D01*
X643286Y-3968000D01*
X671857Y-3953714D01*
X900428Y-4253714D02*
X900428Y-4053714D01*
X900428Y-4082286D02*
X914714Y-4068000D01*
X943286Y-4053714D01*
X986143Y-4053714D01*
X1014714Y-4068000D01*
X1029000Y-4096571D01*
X1029000Y-4253714D01*
X1029000Y-4096571D02*
X1043286Y-4068000D01*
X1071857Y-4053714D01*
X1114714Y-4053714D01*
X1143286Y-4068000D01*
X1157571Y-4096571D01*
X1157571Y-4253714D01*
X1300428Y-4253714D02*
X1300428Y-4053714D01*
X1300428Y-4082286D02*
X1314714Y-4068000D01*
X1343286Y-4053714D01*
X1386143Y-4053714D01*
X1414714Y-4068000D01*
X1429000Y-4096571D01*
X1429000Y-4253714D01*
X1429000Y-4096571D02*
X1443286Y-4068000D01*
X1471857Y-4053714D01*
X1514714Y-4053714D01*
X1543286Y-4068000D01*
X1557571Y-4096571D01*
X1557571Y-4253714D01*
X2143286Y-3939429D02*
X1886143Y-4325143D01*
X2529000Y-3953714D02*
X2557571Y-3953714D01*
X2586143Y-3968000D01*
X2600428Y-3982286D01*
X2614714Y-4010857D01*
X2629000Y-4068000D01*
X2629000Y-4139429D01*
X2614714Y-4196572D01*
X2600428Y-4225143D01*
X2586143Y-4239429D01*
X2557571Y-4253714D01*
X2529000Y-4253714D01*
X2500428Y-4239429D01*
X2486143Y-4225143D01*
X2471857Y-4196572D01*
X2457571Y-4139429D01*
X2457571Y-4068000D01*
X2471857Y-4010857D01*
X2486143Y-3982286D01*
X2500428Y-3968000D01*
X2529000Y-3953714D01*
X2757571Y-4225143D02*
X2771857Y-4239429D01*
X2757571Y-4253714D01*
X2743286Y-4239429D01*
X2757571Y-4225143D01*
X2757571Y-4253714D01*
X2957571Y-3953714D02*
X2986143Y-3953714D01*
X3014714Y-3968000D01*
X3029000Y-3982286D01*
X3043286Y-4010857D01*
X3057571Y-4068000D01*
X3057571Y-4139429D01*
X3043286Y-4196572D01*
X3029000Y-4225143D01*
X3014714Y-4239429D01*
X2986143Y-4253714D01*
X2957571Y-4253714D01*
X2929000Y-4239429D01*
X2914714Y-4225143D01*
X2900428Y-4196572D01*
X2886143Y-4139429D01*
X2886143Y-4068000D01*
X2900428Y-4010857D01*
X2914714Y-3982286D01*
X2929000Y-3968000D01*
X2957571Y-3953714D01*
X3329000Y-3953714D02*
X3186143Y-3953714D01*
X3171857Y-4096571D01*
X3186143Y-4082286D01*
X3214714Y-4068000D01*
X3286143Y-4068000D01*
X3314714Y-4082286D01*
X3329000Y-4096571D01*
X3343286Y-4125143D01*
X3343286Y-4196572D01*
X3329000Y-4225143D01*
X3314714Y-4239429D01*
X3286143Y-4253714D01*
X3214714Y-4253714D01*
X3186143Y-4239429D01*
X3171857Y-4225143D01*
X3629000Y-4253714D02*
X3457571Y-4253714D01*
X3543286Y-4253714D02*
X3543286Y-3953714D01*
X3514714Y-3996571D01*
X3486143Y-4025143D01*
X3457571Y-4039429D01*
X3743286Y-3953714D02*
X3743286Y-4010857D01*
X3857571Y-3953714D02*
X3857571Y-4010857D01*
X4300428Y-4368000D02*
X4286143Y-4353714D01*
X4257571Y-4310857D01*
X4243286Y-4282286D01*
X4229000Y-4239429D01*
X4214714Y-4168000D01*
X4214714Y-4110857D01*
X4229000Y-4039429D01*
X4243286Y-3996571D01*
X4257571Y-3968000D01*
X4286143Y-3925143D01*
X4300428Y-3910857D01*
X4543286Y-3953714D02*
X4486143Y-3953714D01*
X4457571Y-3968000D01*
X4443286Y-3982286D01*
X4414714Y-4025143D01*
X4400428Y-4082286D01*
X4400428Y-4196572D01*
X4414714Y-4225143D01*
X4429000Y-4239429D01*
X4457571Y-4253714D01*
X4514714Y-4253714D01*
X4543286Y-4239429D01*
X4557571Y-4225143D01*
X4571857Y-4196572D01*
X4571857Y-4125143D01*
X4557571Y-4096571D01*
X4543286Y-4082286D01*
X4514714Y-4068000D01*
X4457571Y-4068000D01*
X4429000Y-4082286D01*
X4414714Y-4096571D01*
X4400428Y-4125143D01*
X4929000Y-4253714D02*
X4929000Y-3953714D01*
X5057571Y-4253714D02*
X5057571Y-4096571D01*
X5043286Y-4068000D01*
X5014714Y-4053714D01*
X4971857Y-4053714D01*
X4943286Y-4068000D01*
X4929000Y-4082286D01*
X5243286Y-4253714D02*
X5214714Y-4239429D01*
X5200428Y-4225143D01*
X5186143Y-4196572D01*
X5186143Y-4110857D01*
X5200428Y-4082286D01*
X5214714Y-4068000D01*
X5243286Y-4053714D01*
X5286143Y-4053714D01*
X5314714Y-4068000D01*
X5329000Y-4082286D01*
X5343286Y-4110857D01*
X5343286Y-4196572D01*
X5329000Y-4225143D01*
X5314714Y-4239429D01*
X5286143Y-4253714D01*
X5243286Y-4253714D01*
X5514714Y-4253714D02*
X5486143Y-4239429D01*
X5471857Y-4210857D01*
X5471857Y-3953714D01*
X5743286Y-4239429D02*
X5714714Y-4253714D01*
X5657571Y-4253714D01*
X5629000Y-4239429D01*
X5614714Y-4210857D01*
X5614714Y-4096571D01*
X5629000Y-4068000D01*
X5657571Y-4053714D01*
X5714714Y-4053714D01*
X5743286Y-4068000D01*
X5757571Y-4096571D01*
X5757571Y-4125143D01*
X5614714Y-4153714D01*
X5871857Y-4239429D02*
X5900428Y-4253714D01*
X5957571Y-4253714D01*
X5986143Y-4239429D01*
X6000428Y-4210857D01*
X6000428Y-4196572D01*
X5986143Y-4168000D01*
X5957571Y-4153714D01*
X5914714Y-4153714D01*
X5886143Y-4139429D01*
X5871857Y-4110857D01*
X5871857Y-4096571D01*
X5886143Y-4068000D01*
X5914714Y-4053714D01*
X5957571Y-4053714D01*
X5986143Y-4068000D01*
X6100428Y-4368000D02*
X6114714Y-4353714D01*
X6143286Y-4310857D01*
X6157571Y-4282286D01*
X6171857Y-4239429D01*
X6186143Y-4168000D01*
X6186143Y-4110857D01*
X6171857Y-4039429D01*
X6157571Y-3996571D01*
X6143286Y-3968000D01*
X6114714Y-3925143D01*
X6100428Y-3910857D01*
X-526000Y-4444000D02*
X-386000Y-4584000D01*
X-386000Y-4444000D02*
X-526000Y-4584000D01*
X-456000Y-4584000D02*
X-386000Y-4514000D01*
X-456000Y-4444000D01*
X-526000Y-4514000D01*
X-456000Y-4584000D01*
X57571Y-4649714D02*
X-113857Y-4649714D01*
X-28143Y-4649714D02*
X-28143Y-4349714D01*
X-56714Y-4392572D01*
X-85286Y-4421143D01*
X-113857Y-4435429D01*
X186143Y-4621143D02*
X200428Y-4635429D01*
X186143Y-4649714D01*
X171857Y-4635429D01*
X186143Y-4621143D01*
X186143Y-4649714D01*
X457571Y-4449714D02*
X457571Y-4649714D01*
X386143Y-4335429D02*
X314714Y-4549714D01*
X500428Y-4549714D01*
X671857Y-4349714D02*
X700428Y-4349714D01*
X729000Y-4364000D01*
X743286Y-4378286D01*
X757571Y-4406857D01*
X771857Y-4464000D01*
X771857Y-4535429D01*
X757571Y-4592572D01*
X743286Y-4621143D01*
X729000Y-4635429D01*
X700428Y-4649714D01*
X671857Y-4649714D01*
X643286Y-4635429D01*
X629000Y-4621143D01*
X614714Y-4592572D01*
X600428Y-4535429D01*
X600428Y-4464000D01*
X614714Y-4406857D01*
X629000Y-4378286D01*
X643286Y-4364000D01*
X671857Y-4349714D01*
X900428Y-4649714D02*
X900428Y-4449714D01*
X900428Y-4478286D02*
X914714Y-4464000D01*
X943286Y-4449714D01*
X986143Y-4449714D01*
X1014714Y-4464000D01*
X1029000Y-4492572D01*
X1029000Y-4649714D01*
X1029000Y-4492572D02*
X1043286Y-4464000D01*
X1071857Y-4449714D01*
X1114714Y-4449714D01*
X1143286Y-4464000D01*
X1157571Y-4492572D01*
X1157571Y-4649714D01*
X1300428Y-4649714D02*
X1300428Y-4449714D01*
X1300428Y-4478286D02*
X1314714Y-4464000D01*
X1343286Y-4449714D01*
X1386143Y-4449714D01*
X1414714Y-4464000D01*
X1429000Y-4492572D01*
X1429000Y-4649714D01*
X1429000Y-4492572D02*
X1443286Y-4464000D01*
X1471857Y-4449714D01*
X1514714Y-4449714D01*
X1543286Y-4464000D01*
X1557571Y-4492572D01*
X1557571Y-4649714D01*
X2143286Y-4335429D02*
X1886143Y-4721143D01*
X2529000Y-4349714D02*
X2557571Y-4349714D01*
X2586143Y-4364000D01*
X2600428Y-4378286D01*
X2614714Y-4406857D01*
X2629000Y-4464000D01*
X2629000Y-4535429D01*
X2614714Y-4592572D01*
X2600428Y-4621143D01*
X2586143Y-4635429D01*
X2557571Y-4649714D01*
X2529000Y-4649714D01*
X2500428Y-4635429D01*
X2486143Y-4621143D01*
X2471857Y-4592572D01*
X2457571Y-4535429D01*
X2457571Y-4464000D01*
X2471857Y-4406857D01*
X2486143Y-4378286D01*
X2500428Y-4364000D01*
X2529000Y-4349714D01*
X2757571Y-4621143D02*
X2771857Y-4635429D01*
X2757571Y-4649714D01*
X2743286Y-4635429D01*
X2757571Y-4621143D01*
X2757571Y-4649714D01*
X2957571Y-4349714D02*
X2986143Y-4349714D01*
X3014714Y-4364000D01*
X3029000Y-4378286D01*
X3043286Y-4406857D01*
X3057571Y-4464000D01*
X3057571Y-4535429D01*
X3043286Y-4592572D01*
X3029000Y-4621143D01*
X3014714Y-4635429D01*
X2986143Y-4649714D01*
X2957571Y-4649714D01*
X2929000Y-4635429D01*
X2914714Y-4621143D01*
X2900428Y-4592572D01*
X2886143Y-4535429D01*
X2886143Y-4464000D01*
X2900428Y-4406857D01*
X2914714Y-4378286D01*
X2929000Y-4364000D01*
X2957571Y-4349714D01*
X3329000Y-4349714D02*
X3186143Y-4349714D01*
X3171857Y-4492572D01*
X3186143Y-4478286D01*
X3214714Y-4464000D01*
X3286143Y-4464000D01*
X3314714Y-4478286D01*
X3329000Y-4492572D01*
X3343286Y-4521143D01*
X3343286Y-4592572D01*
X3329000Y-4621143D01*
X3314714Y-4635429D01*
X3286143Y-4649714D01*
X3214714Y-4649714D01*
X3186143Y-4635429D01*
X3171857Y-4621143D01*
X3614714Y-4349714D02*
X3471857Y-4349714D01*
X3457571Y-4492572D01*
X3471857Y-4478286D01*
X3500428Y-4464000D01*
X3571857Y-4464000D01*
X3600428Y-4478286D01*
X3614714Y-4492572D01*
X3629000Y-4521143D01*
X3629000Y-4592572D01*
X3614714Y-4621143D01*
X3600428Y-4635429D01*
X3571857Y-4649714D01*
X3500428Y-4649714D01*
X3471857Y-4635429D01*
X3457571Y-4621143D01*
X3743286Y-4349714D02*
X3743286Y-4406857D01*
X3857571Y-4349714D02*
X3857571Y-4406857D01*
X4300428Y-4764000D02*
X4286143Y-4749714D01*
X4257571Y-4706857D01*
X4243286Y-4678286D01*
X4229000Y-4635429D01*
X4214714Y-4564000D01*
X4214714Y-4506857D01*
X4229000Y-4435429D01*
X4243286Y-4392572D01*
X4257571Y-4364000D01*
X4286143Y-4321143D01*
X4300428Y-4306857D01*
X4543286Y-4449714D02*
X4543286Y-4649714D01*
X4471857Y-4335429D02*
X4400428Y-4549714D01*
X4586143Y-4549714D01*
X4929000Y-4649714D02*
X4929000Y-4349714D01*
X5057571Y-4649714D02*
X5057571Y-4492572D01*
X5043286Y-4464000D01*
X5014714Y-4449714D01*
X4971857Y-4449714D01*
X4943286Y-4464000D01*
X4929000Y-4478286D01*
X5243286Y-4649714D02*
X5214714Y-4635429D01*
X5200428Y-4621143D01*
X5186143Y-4592572D01*
X5186143Y-4506857D01*
X5200428Y-4478286D01*
X5214714Y-4464000D01*
X5243286Y-4449714D01*
X5286143Y-4449714D01*
X5314714Y-4464000D01*
X5329000Y-4478286D01*
X5343286Y-4506857D01*
X5343286Y-4592572D01*
X5329000Y-4621143D01*
X5314714Y-4635429D01*
X5286143Y-4649714D01*
X5243286Y-4649714D01*
X5514714Y-4649714D02*
X5486143Y-4635429D01*
X5471857Y-4606857D01*
X5471857Y-4349714D01*
X5743286Y-4635429D02*
X5714714Y-4649714D01*
X5657571Y-4649714D01*
X5629000Y-4635429D01*
X5614714Y-4606857D01*
X5614714Y-4492572D01*
X5629000Y-4464000D01*
X5657571Y-4449714D01*
X5714714Y-4449714D01*
X5743286Y-4464000D01*
X5757571Y-4492572D01*
X5757571Y-4521143D01*
X5614714Y-4549714D01*
X5871857Y-4635429D02*
X5900428Y-4649714D01*
X5957571Y-4649714D01*
X5986143Y-4635429D01*
X6000428Y-4606857D01*
X6000428Y-4592572D01*
X5986143Y-4564000D01*
X5957571Y-4549714D01*
X5914714Y-4549714D01*
X5886143Y-4535429D01*
X5871857Y-4506857D01*
X5871857Y-4492572D01*
X5886143Y-4464000D01*
X5914714Y-4449714D01*
X5957571Y-4449714D01*
X5986143Y-4464000D01*
X6100428Y-4764000D02*
X6114714Y-4749714D01*
X6143286Y-4706857D01*
X6157571Y-4678286D01*
X6171857Y-4635429D01*
X6186143Y-4564000D01*
X6186143Y-4506857D01*
X6171857Y-4435429D01*
X6157571Y-4392572D01*
X6143286Y-4364000D01*
X6114714Y-4321143D01*
X6100428Y-4306857D01*
X-501000Y-4795000D02*
X-501000Y-5025000D01*
X-616000Y-4910000D02*
X-386000Y-4910000D01*
X-386000Y-4910000D02*
G75*
G03X-386000Y-4910000I-115000J0D01*
G01*
X-113857Y-4774286D02*
X-99572Y-4760000D01*
X-71000Y-4745714D01*
X428Y-4745714D01*
X29000Y-4760000D01*
X43286Y-4774286D01*
X57571Y-4802857D01*
X57571Y-4831429D01*
X43286Y-4874286D01*
X-128143Y-5045714D01*
X57571Y-5045714D01*
X186143Y-5017143D02*
X200428Y-5031429D01*
X186143Y-5045714D01*
X171857Y-5031429D01*
X186143Y-5017143D01*
X186143Y-5045714D01*
X300428Y-4745714D02*
X486143Y-4745714D01*
X386143Y-4860000D01*
X429000Y-4860000D01*
X457571Y-4874286D01*
X471857Y-4888572D01*
X486143Y-4917143D01*
X486143Y-4988572D01*
X471857Y-5017143D01*
X457571Y-5031429D01*
X429000Y-5045714D01*
X343286Y-5045714D01*
X314714Y-5031429D01*
X300428Y-5017143D01*
X671857Y-4745714D02*
X700428Y-4745714D01*
X729000Y-4760000D01*
X743286Y-4774286D01*
X757571Y-4802857D01*
X771857Y-4860000D01*
X771857Y-4931429D01*
X757571Y-4988572D01*
X743286Y-5017143D01*
X729000Y-5031429D01*
X700428Y-5045714D01*
X671857Y-5045714D01*
X643286Y-5031429D01*
X629000Y-5017143D01*
X614714Y-4988572D01*
X600428Y-4931429D01*
X600428Y-4860000D01*
X614714Y-4802857D01*
X629000Y-4774286D01*
X643286Y-4760000D01*
X671857Y-4745714D01*
X900428Y-5045714D02*
X900428Y-4845714D01*
X900428Y-4874286D02*
X914714Y-4860000D01*
X943286Y-4845714D01*
X986143Y-4845714D01*
X1014714Y-4860000D01*
X1029000Y-4888572D01*
X1029000Y-5045714D01*
X1029000Y-4888572D02*
X1043286Y-4860000D01*
X1071857Y-4845714D01*
X1114714Y-4845714D01*
X1143286Y-4860000D01*
X1157571Y-4888572D01*
X1157571Y-5045714D01*
X1300428Y-5045714D02*
X1300428Y-4845714D01*
X1300428Y-4874286D02*
X1314714Y-4860000D01*
X1343286Y-4845714D01*
X1386143Y-4845714D01*
X1414714Y-4860000D01*
X1429000Y-4888572D01*
X1429000Y-5045714D01*
X1429000Y-4888572D02*
X1443286Y-4860000D01*
X1471857Y-4845714D01*
X1514714Y-4845714D01*
X1543286Y-4860000D01*
X1557571Y-4888572D01*
X1557571Y-5045714D01*
X2143286Y-4731429D02*
X1886143Y-5117143D01*
X2529000Y-4745714D02*
X2557571Y-4745714D01*
X2586143Y-4760000D01*
X2600428Y-4774286D01*
X2614714Y-4802857D01*
X2629000Y-4860000D01*
X2629000Y-4931429D01*
X2614714Y-4988572D01*
X2600428Y-5017143D01*
X2586143Y-5031429D01*
X2557571Y-5045714D01*
X2529000Y-5045714D01*
X2500428Y-5031429D01*
X2486143Y-5017143D01*
X2471857Y-4988572D01*
X2457571Y-4931429D01*
X2457571Y-4860000D01*
X2471857Y-4802857D01*
X2486143Y-4774286D01*
X2500428Y-4760000D01*
X2529000Y-4745714D01*
X2757571Y-5017143D02*
X2771857Y-5031429D01*
X2757571Y-5045714D01*
X2743286Y-5031429D01*
X2757571Y-5017143D01*
X2757571Y-5045714D01*
X2957571Y-4745714D02*
X2986143Y-4745714D01*
X3014714Y-4760000D01*
X3029000Y-4774286D01*
X3043286Y-4802857D01*
X3057571Y-4860000D01*
X3057571Y-4931429D01*
X3043286Y-4988572D01*
X3029000Y-5017143D01*
X3014714Y-5031429D01*
X2986143Y-5045714D01*
X2957571Y-5045714D01*
X2929000Y-5031429D01*
X2914714Y-5017143D01*
X2900428Y-4988572D01*
X2886143Y-4931429D01*
X2886143Y-4860000D01*
X2900428Y-4802857D01*
X2914714Y-4774286D01*
X2929000Y-4760000D01*
X2957571Y-4745714D01*
X3200428Y-5045714D02*
X3257571Y-5045714D01*
X3286143Y-5031429D01*
X3300428Y-5017143D01*
X3329000Y-4974286D01*
X3343286Y-4917143D01*
X3343286Y-4802857D01*
X3329000Y-4774286D01*
X3314714Y-4760000D01*
X3286143Y-4745714D01*
X3229000Y-4745714D01*
X3200428Y-4760000D01*
X3186143Y-4774286D01*
X3171857Y-4802857D01*
X3171857Y-4874286D01*
X3186143Y-4902857D01*
X3200428Y-4917143D01*
X3229000Y-4931429D01*
X3286143Y-4931429D01*
X3314714Y-4917143D01*
X3329000Y-4902857D01*
X3343286Y-4874286D01*
X3629000Y-5045714D02*
X3457571Y-5045714D01*
X3543286Y-5045714D02*
X3543286Y-4745714D01*
X3514714Y-4788572D01*
X3486143Y-4817143D01*
X3457571Y-4831429D01*
X3743286Y-4745714D02*
X3743286Y-4802857D01*
X3857571Y-4745714D02*
X3857571Y-4802857D01*
X4300428Y-5160000D02*
X4286143Y-5145714D01*
X4257571Y-5102857D01*
X4243286Y-5074286D01*
X4229000Y-5031429D01*
X4214714Y-4960000D01*
X4214714Y-4902857D01*
X4229000Y-4831429D01*
X4243286Y-4788572D01*
X4257571Y-4760000D01*
X4286143Y-4717143D01*
X4300428Y-4702857D01*
X4400428Y-4774286D02*
X4414714Y-4760000D01*
X4443286Y-4745714D01*
X4514714Y-4745714D01*
X4543286Y-4760000D01*
X4557571Y-4774286D01*
X4571857Y-4802857D01*
X4571857Y-4831429D01*
X4557571Y-4874286D01*
X4386143Y-5045714D01*
X4571857Y-5045714D01*
X4929000Y-5045714D02*
X4929000Y-4745714D01*
X5057571Y-5045714D02*
X5057571Y-4888572D01*
X5043286Y-4860000D01*
X5014714Y-4845714D01*
X4971857Y-4845714D01*
X4943286Y-4860000D01*
X4929000Y-4874286D01*
X5243286Y-5045714D02*
X5214714Y-5031429D01*
X5200428Y-5017143D01*
X5186143Y-4988572D01*
X5186143Y-4902857D01*
X5200428Y-4874286D01*
X5214714Y-4860000D01*
X5243286Y-4845714D01*
X5286143Y-4845714D01*
X5314714Y-4860000D01*
X5329000Y-4874286D01*
X5343286Y-4902857D01*
X5343286Y-4988572D01*
X5329000Y-5017143D01*
X5314714Y-5031429D01*
X5286143Y-5045714D01*
X5243286Y-5045714D01*
X5514714Y-5045714D02*
X5486143Y-5031429D01*
X5471857Y-5002857D01*
X5471857Y-4745714D01*
X5743286Y-5031429D02*
X5714714Y-5045714D01*
X5657571Y-5045714D01*
X5629000Y-5031429D01*
X5614714Y-5002857D01*
X5614714Y-4888572D01*
X5629000Y-4860000D01*
X5657571Y-4845714D01*
X5714714Y-4845714D01*
X5743286Y-4860000D01*
X5757571Y-4888572D01*
X5757571Y-4917143D01*
X5614714Y-4945714D01*
X5871857Y-5031429D02*
X5900428Y-5045714D01*
X5957571Y-5045714D01*
X5986143Y-5031429D01*
X6000428Y-5002857D01*
X6000428Y-4988572D01*
X5986143Y-4960000D01*
X5957571Y-4945714D01*
X5914714Y-4945714D01*
X5886143Y-4931429D01*
X5871857Y-4902857D01*
X5871857Y-4888572D01*
X5886143Y-4860000D01*
X5914714Y-4845714D01*
X5957571Y-4845714D01*
X5986143Y-4860000D01*
X6100428Y-5160000D02*
X6114714Y-5145714D01*
X6143286Y-5102857D01*
X6157571Y-5074286D01*
X6171857Y-5031429D01*
X6186143Y-4960000D01*
X6186143Y-4902857D01*
X6171857Y-4831429D01*
X6157571Y-4788572D01*
X6143286Y-4760000D01*
X6114714Y-4717143D01*
X6100428Y-4702857D01*
X-432862Y-5419138D02*
X-432862Y-5192862D01*
X-659138Y-5192862D01*
X-659138Y-5419138D01*
X-432862Y-5419138D01*
X-386000Y-5306000D02*
G75*
G03X-386000Y-5306000I-160000J0D01*
G01*
X-128143Y-5141714D02*
X57571Y-5141714D01*
X-42429Y-5256000D01*
X428Y-5256000D01*
X29000Y-5270286D01*
X43286Y-5284572D01*
X57571Y-5313143D01*
X57571Y-5384572D01*
X43286Y-5413143D01*
X29000Y-5427429D01*
X428Y-5441714D01*
X-85286Y-5441714D01*
X-113857Y-5427429D01*
X-128143Y-5413143D01*
X186143Y-5413143D02*
X200428Y-5427429D01*
X186143Y-5441714D01*
X171857Y-5427429D01*
X186143Y-5413143D01*
X186143Y-5441714D01*
X314714Y-5170286D02*
X329000Y-5156000D01*
X357571Y-5141714D01*
X429000Y-5141714D01*
X457571Y-5156000D01*
X471857Y-5170286D01*
X486143Y-5198857D01*
X486143Y-5227429D01*
X471857Y-5270286D01*
X300428Y-5441714D01*
X486143Y-5441714D01*
X671857Y-5141714D02*
X700428Y-5141714D01*
X729000Y-5156000D01*
X743286Y-5170286D01*
X757571Y-5198857D01*
X771857Y-5256000D01*
X771857Y-5327429D01*
X757571Y-5384572D01*
X743286Y-5413143D01*
X729000Y-5427429D01*
X700428Y-5441714D01*
X671857Y-5441714D01*
X643286Y-5427429D01*
X629000Y-5413143D01*
X614714Y-5384572D01*
X600428Y-5327429D01*
X600428Y-5256000D01*
X614714Y-5198857D01*
X629000Y-5170286D01*
X643286Y-5156000D01*
X671857Y-5141714D01*
X900428Y-5441714D02*
X900428Y-5241714D01*
X900428Y-5270286D02*
X914714Y-5256000D01*
X943286Y-5241714D01*
X986143Y-5241714D01*
X1014714Y-5256000D01*
X1029000Y-5284572D01*
X1029000Y-5441714D01*
X1029000Y-5284572D02*
X1043286Y-5256000D01*
X1071857Y-5241714D01*
X1114714Y-5241714D01*
X1143286Y-5256000D01*
X1157571Y-5284572D01*
X1157571Y-5441714D01*
X1300428Y-5441714D02*
X1300428Y-5241714D01*
X1300428Y-5270286D02*
X1314714Y-5256000D01*
X1343286Y-5241714D01*
X1386143Y-5241714D01*
X1414714Y-5256000D01*
X1429000Y-5284572D01*
X1429000Y-5441714D01*
X1429000Y-5284572D02*
X1443286Y-5256000D01*
X1471857Y-5241714D01*
X1514714Y-5241714D01*
X1543286Y-5256000D01*
X1557571Y-5284572D01*
X1557571Y-5441714D01*
X2143286Y-5127429D02*
X1886143Y-5513143D01*
X2529000Y-5141714D02*
X2557571Y-5141714D01*
X2586143Y-5156000D01*
X2600428Y-5170286D01*
X2614714Y-5198857D01*
X2629000Y-5256000D01*
X2629000Y-5327429D01*
X2614714Y-5384572D01*
X2600428Y-5413143D01*
X2586143Y-5427429D01*
X2557571Y-5441714D01*
X2529000Y-5441714D01*
X2500428Y-5427429D01*
X2486143Y-5413143D01*
X2471857Y-5384572D01*
X2457571Y-5327429D01*
X2457571Y-5256000D01*
X2471857Y-5198857D01*
X2486143Y-5170286D01*
X2500428Y-5156000D01*
X2529000Y-5141714D01*
X2757571Y-5413143D02*
X2771857Y-5427429D01*
X2757571Y-5441714D01*
X2743286Y-5427429D01*
X2757571Y-5413143D01*
X2757571Y-5441714D01*
X3057571Y-5441714D02*
X2886143Y-5441714D01*
X2971857Y-5441714D02*
X2971857Y-5141714D01*
X2943286Y-5184572D01*
X2914714Y-5213143D01*
X2886143Y-5227429D01*
X3171857Y-5170286D02*
X3186143Y-5156000D01*
X3214714Y-5141714D01*
X3286143Y-5141714D01*
X3314714Y-5156000D01*
X3329000Y-5170286D01*
X3343286Y-5198857D01*
X3343286Y-5227429D01*
X3329000Y-5270286D01*
X3157571Y-5441714D01*
X3343286Y-5441714D01*
X3600428Y-5141714D02*
X3543286Y-5141714D01*
X3514714Y-5156000D01*
X3500428Y-5170286D01*
X3471857Y-5213143D01*
X3457571Y-5270286D01*
X3457571Y-5384572D01*
X3471857Y-5413143D01*
X3486143Y-5427429D01*
X3514714Y-5441714D01*
X3571857Y-5441714D01*
X3600428Y-5427429D01*
X3614714Y-5413143D01*
X3629000Y-5384572D01*
X3629000Y-5313143D01*
X3614714Y-5284572D01*
X3600428Y-5270286D01*
X3571857Y-5256000D01*
X3514714Y-5256000D01*
X3486143Y-5270286D01*
X3471857Y-5284572D01*
X3457571Y-5313143D01*
X3743286Y-5141714D02*
X3743286Y-5198857D01*
X3857571Y-5141714D02*
X3857571Y-5198857D01*
X4300428Y-5556000D02*
X4286143Y-5541714D01*
X4257571Y-5498857D01*
X4243286Y-5470286D01*
X4229000Y-5427429D01*
X4214714Y-5356000D01*
X4214714Y-5298857D01*
X4229000Y-5227429D01*
X4243286Y-5184572D01*
X4257571Y-5156000D01*
X4286143Y-5113143D01*
X4300428Y-5098857D01*
X4457571Y-5270286D02*
X4429000Y-5256000D01*
X4414714Y-5241714D01*
X4400428Y-5213143D01*
X4400428Y-5198857D01*
X4414714Y-5170286D01*
X4429000Y-5156000D01*
X4457571Y-5141714D01*
X4514714Y-5141714D01*
X4543286Y-5156000D01*
X4557571Y-5170286D01*
X4571857Y-5198857D01*
X4571857Y-5213143D01*
X4557571Y-5241714D01*
X4543286Y-5256000D01*
X4514714Y-5270286D01*
X4457571Y-5270286D01*
X4429000Y-5284572D01*
X4414714Y-5298857D01*
X4400428Y-5327429D01*
X4400428Y-5384572D01*
X4414714Y-5413143D01*
X4429000Y-5427429D01*
X4457571Y-5441714D01*
X4514714Y-5441714D01*
X4543286Y-5427429D01*
X4557571Y-5413143D01*
X4571857Y-5384572D01*
X4571857Y-5327429D01*
X4557571Y-5298857D01*
X4543286Y-5284572D01*
X4514714Y-5270286D01*
X4929000Y-5441714D02*
X4929000Y-5141714D01*
X5057571Y-5441714D02*
X5057571Y-5284572D01*
X5043286Y-5256000D01*
X5014714Y-5241714D01*
X4971857Y-5241714D01*
X4943286Y-5256000D01*
X4929000Y-5270286D01*
X5243286Y-5441714D02*
X5214714Y-5427429D01*
X5200428Y-5413143D01*
X5186143Y-5384572D01*
X5186143Y-5298857D01*
X5200428Y-5270286D01*
X5214714Y-5256000D01*
X5243286Y-5241714D01*
X5286143Y-5241714D01*
X5314714Y-5256000D01*
X5329000Y-5270286D01*
X5343286Y-5298857D01*
X5343286Y-5384572D01*
X5329000Y-5413143D01*
X5314714Y-5427429D01*
X5286143Y-5441714D01*
X5243286Y-5441714D01*
X5514714Y-5441714D02*
X5486143Y-5427429D01*
X5471857Y-5398857D01*
X5471857Y-5141714D01*
X5743286Y-5427429D02*
X5714714Y-5441714D01*
X5657571Y-5441714D01*
X5629000Y-5427429D01*
X5614714Y-5398857D01*
X5614714Y-5284572D01*
X5629000Y-5256000D01*
X5657571Y-5241714D01*
X5714714Y-5241714D01*
X5743286Y-5256000D01*
X5757571Y-5284572D01*
X5757571Y-5313143D01*
X5614714Y-5341714D01*
X5871857Y-5427429D02*
X5900428Y-5441714D01*
X5957571Y-5441714D01*
X5986143Y-5427429D01*
X6000428Y-5398857D01*
X6000428Y-5384572D01*
X5986143Y-5356000D01*
X5957571Y-5341714D01*
X5914714Y-5341714D01*
X5886143Y-5327429D01*
X5871857Y-5298857D01*
X5871857Y-5284572D01*
X5886143Y-5256000D01*
X5914714Y-5241714D01*
X5957571Y-5241714D01*
X5986143Y-5256000D01*
X6100428Y-5556000D02*
X6114714Y-5541714D01*
X6143286Y-5498857D01*
X6157571Y-5470286D01*
X6171857Y-5427429D01*
X6186143Y-5356000D01*
X6186143Y-5298857D01*
X6171857Y-5227429D01*
X6157571Y-5184572D01*
X6143286Y-5156000D01*
X6114714Y-5113143D01*
X6100428Y-5098857D01*
X6643286Y-5556000D02*
X6629000Y-5541714D01*
X6600428Y-5498857D01*
X6586143Y-5470286D01*
X6571857Y-5427429D01*
X6557571Y-5356000D01*
X6557571Y-5298857D01*
X6571857Y-5227429D01*
X6586143Y-5184572D01*
X6600428Y-5156000D01*
X6629000Y-5113143D01*
X6643286Y-5098857D01*
X6757571Y-5241714D02*
X6757571Y-5441714D01*
X6757571Y-5270286D02*
X6771857Y-5256000D01*
X6800428Y-5241714D01*
X6843286Y-5241714D01*
X6871857Y-5256000D01*
X6886143Y-5284572D01*
X6886143Y-5441714D01*
X7071857Y-5441714D02*
X7043286Y-5427429D01*
X7029000Y-5413143D01*
X7014714Y-5384572D01*
X7014714Y-5298857D01*
X7029000Y-5270286D01*
X7043286Y-5256000D01*
X7071857Y-5241714D01*
X7114714Y-5241714D01*
X7143286Y-5256000D01*
X7157571Y-5270286D01*
X7171857Y-5298857D01*
X7171857Y-5384572D01*
X7157571Y-5413143D01*
X7143286Y-5427429D01*
X7114714Y-5441714D01*
X7071857Y-5441714D01*
X7257571Y-5241714D02*
X7371857Y-5241714D01*
X7300428Y-5141714D02*
X7300428Y-5398857D01*
X7314714Y-5427429D01*
X7343286Y-5441714D01*
X7371857Y-5441714D01*
X7700428Y-5241714D02*
X7700428Y-5541714D01*
X7700428Y-5256000D02*
X7729000Y-5241714D01*
X7786143Y-5241714D01*
X7814714Y-5256000D01*
X7829000Y-5270286D01*
X7843286Y-5298857D01*
X7843286Y-5384572D01*
X7829000Y-5413143D01*
X7814714Y-5427429D01*
X7786143Y-5441714D01*
X7729000Y-5441714D01*
X7700428Y-5427429D01*
X8014714Y-5441714D02*
X7986143Y-5427429D01*
X7971857Y-5398857D01*
X7971857Y-5141714D01*
X8257571Y-5441714D02*
X8257571Y-5284572D01*
X8243286Y-5256000D01*
X8214714Y-5241714D01*
X8157571Y-5241714D01*
X8129000Y-5256000D01*
X8257571Y-5427429D02*
X8229000Y-5441714D01*
X8157571Y-5441714D01*
X8129000Y-5427429D01*
X8114714Y-5398857D01*
X8114714Y-5370286D01*
X8129000Y-5341714D01*
X8157571Y-5327429D01*
X8229000Y-5327429D01*
X8257571Y-5313143D01*
X8357571Y-5241714D02*
X8471857Y-5241714D01*
X8400428Y-5141714D02*
X8400428Y-5398857D01*
X8414714Y-5427429D01*
X8443286Y-5441714D01*
X8471857Y-5441714D01*
X8686143Y-5427429D02*
X8657571Y-5441714D01*
X8600428Y-5441714D01*
X8571857Y-5427429D01*
X8557571Y-5398857D01*
X8557571Y-5284572D01*
X8571857Y-5256000D01*
X8600428Y-5241714D01*
X8657571Y-5241714D01*
X8686143Y-5256000D01*
X8700428Y-5284572D01*
X8700428Y-5313143D01*
X8557571Y-5341714D01*
X8957571Y-5441714D02*
X8957571Y-5141714D01*
X8957571Y-5427429D02*
X8929000Y-5441714D01*
X8871857Y-5441714D01*
X8843286Y-5427429D01*
X8829000Y-5413143D01*
X8814714Y-5384572D01*
X8814714Y-5298857D01*
X8829000Y-5270286D01*
X8843286Y-5256000D01*
X8871857Y-5241714D01*
X8929000Y-5241714D01*
X8957571Y-5256000D01*
X9071857Y-5556000D02*
X9086143Y-5541714D01*
X9114714Y-5498857D01*
X9129000Y-5470286D01*
X9143286Y-5427429D01*
X9157571Y-5356000D01*
X9157571Y-5298857D01*
X9143286Y-5227429D01*
X9129000Y-5184572D01*
X9114714Y-5156000D01*
X9086143Y-5113143D01*
X9071857Y-5098857D01*
M02*
