G04 #@! TF.GenerationSoftware,KiCad,Pcbnew,(5.1.5)-3*
G04 #@! TF.CreationDate,2020-02-09T12:12:53-03:00*
G04 #@! TF.ProjectId,Entrenador1-SchDoc_4Display_en_uno,456e7472-656e-4616-946f-72312d536368,v1.0*
G04 #@! TF.SameCoordinates,PX429d390PY8198450*
G04 #@! TF.FileFunction,Copper,L2,Bot*
G04 #@! TF.FilePolarity,Positive*
%FSLAX46Y46*%
G04 Gerber Fmt 4.6, Leading zero omitted, Abs format (unit mm)*
G04 Created by KiCad (PCBNEW (5.1.5)-3) date 2020-02-09 12:12:53*
%MOMM*%
%LPD*%
G04 APERTURE LIST*
%ADD10C,0.300000*%
%ADD11C,0.100000*%
%ADD12C,1.800000*%
%ADD13R,1.800000X1.800000*%
%ADD14C,3.000000*%
%ADD15R,3.000000X3.000000*%
%ADD16O,1.500000X2.000000*%
%ADD17O,1.700000X2.200000*%
%ADD18R,1.700000X2.200000*%
%ADD19O,2.000000X1.000000*%
%ADD20O,1.200000X2.000000*%
%ADD21O,1.600000X1.600000*%
%ADD22C,1.600000*%
%ADD23O,4.000000X5.000000*%
%ADD24O,1.600000X2.000000*%
%ADD25O,1.700000X3.000000*%
%ADD26R,1.700000X3.000000*%
%ADD27O,3.000000X1.700000*%
%ADD28R,3.000000X1.700000*%
%ADD29O,2.800000X2.800000*%
%ADD30R,2.800000X2.800000*%
%ADD31O,1.700000X2.500000*%
%ADD32O,2.500000X1.700000*%
%ADD33R,2.200000X1.700000*%
%ADD34C,1.500000*%
%ADD35R,1.600000X1.600000*%
%ADD36O,1.700000X1.700000*%
%ADD37R,1.700000X1.700000*%
%ADD38C,2.000000*%
%ADD39O,1.600000X2.400000*%
%ADD40R,1.600000X2.400000*%
%ADD41O,1.800000X1.800000*%
%ADD42C,2.340000*%
%ADD43C,0.635000*%
%ADD44C,0.800000*%
%ADD45C,0.500000*%
G04 APERTURE END LIST*
D10*
X64939142Y68385429D02*
X64082000Y68385429D01*
X64510571Y66885429D02*
X64510571Y68385429D01*
X63582000Y67671143D02*
X63082000Y67671143D01*
X62867714Y66885429D02*
X63582000Y66885429D01*
X63582000Y68385429D01*
X62867714Y68385429D01*
X61367714Y67028286D02*
X61439142Y66956858D01*
X61653428Y66885429D01*
X61796285Y66885429D01*
X62010571Y66956858D01*
X62153428Y67099715D01*
X62224857Y67242572D01*
X62296285Y67528286D01*
X62296285Y67742572D01*
X62224857Y68028286D01*
X62153428Y68171143D01*
X62010571Y68314000D01*
X61796285Y68385429D01*
X61653428Y68385429D01*
X61439142Y68314000D01*
X61367714Y68242572D01*
X60724857Y66885429D02*
X60724857Y68385429D01*
X59867714Y66885429D01*
X59867714Y68385429D01*
X59153428Y66885429D02*
X59153428Y68385429D01*
X57582000Y67028286D02*
X57653428Y66956858D01*
X57867714Y66885429D01*
X58010571Y66885429D01*
X58224857Y66956858D01*
X58367714Y67099715D01*
X58439142Y67242572D01*
X58510571Y67528286D01*
X58510571Y67742572D01*
X58439142Y68028286D01*
X58367714Y68171143D01*
X58224857Y68314000D01*
X58010571Y68385429D01*
X57867714Y68385429D01*
X57653428Y68314000D01*
X57582000Y68242572D01*
X57010571Y67314000D02*
X56296285Y67314000D01*
X57153428Y66885429D02*
X56653428Y68385429D01*
X56153428Y66885429D01*
X53724857Y66885429D02*
X54582000Y66885429D01*
X54153428Y66885429D02*
X54153428Y68385429D01*
X54296285Y68171143D01*
X54439142Y68028286D01*
X54582000Y67956858D01*
X52010571Y68242572D02*
X51939142Y68314000D01*
X51796285Y68385429D01*
X51439142Y68385429D01*
X51296285Y68314000D01*
X51224857Y68242572D01*
X51153428Y68099715D01*
X51153428Y67956858D01*
X51224857Y67742572D01*
X52082000Y66885429D01*
X51153428Y66885429D01*
X50224857Y68385429D02*
X50082000Y68385429D01*
X49939142Y68314000D01*
X49867714Y68242572D01*
X49796285Y68099715D01*
X49724857Y67814000D01*
X49724857Y67456858D01*
X49796285Y67171143D01*
X49867714Y67028286D01*
X49939142Y66956858D01*
X50082000Y66885429D01*
X50224857Y66885429D01*
X50367714Y66956858D01*
X50439142Y67028286D01*
X50510571Y67171143D01*
X50582000Y67456858D01*
X50582000Y67814000D01*
X50510571Y68099715D01*
X50439142Y68242572D01*
X50367714Y68314000D01*
X50224857Y68385429D01*
X48296285Y66885429D02*
X49153428Y66885429D01*
X48724857Y66885429D02*
X48724857Y68385429D01*
X48867714Y68171143D01*
X49010571Y68028286D01*
X49153428Y67956858D01*
X47439142Y67742572D02*
X47582000Y67814000D01*
X47653428Y67885429D01*
X47724857Y68028286D01*
X47724857Y68099715D01*
X47653428Y68242572D01*
X47582000Y68314000D01*
X47439142Y68385429D01*
X47153428Y68385429D01*
X47010571Y68314000D01*
X46939142Y68242572D01*
X46867714Y68099715D01*
X46867714Y68028286D01*
X46939142Y67885429D01*
X47010571Y67814000D01*
X47153428Y67742572D01*
X47439142Y67742572D01*
X47582000Y67671143D01*
X47653428Y67599715D01*
X47724857Y67456858D01*
X47724857Y67171143D01*
X47653428Y67028286D01*
X47582000Y66956858D01*
X47439142Y66885429D01*
X47153428Y66885429D01*
X47010571Y66956858D01*
X46939142Y67028286D01*
X46867714Y67171143D01*
X46867714Y67456858D01*
X46939142Y67599715D01*
X47010571Y67671143D01*
X47153428Y67742572D01*
X45296285Y68385429D02*
X44796285Y66885429D01*
X44296285Y68385429D01*
X43010571Y66885429D02*
X43867714Y66885429D01*
X43439142Y66885429D02*
X43439142Y68385429D01*
X43582000Y68171143D01*
X43724857Y68028286D01*
X43867714Y67956858D01*
X42367714Y67028286D02*
X42296285Y66956858D01*
X42367714Y66885429D01*
X42439142Y66956858D01*
X42367714Y67028286D01*
X42367714Y66885429D01*
X40939142Y68385429D02*
X41653428Y68385429D01*
X41724857Y67671143D01*
X41653428Y67742572D01*
X41510571Y67814000D01*
X41153428Y67814000D01*
X41010571Y67742572D01*
X40939142Y67671143D01*
X40867714Y67528286D01*
X40867714Y67171143D01*
X40939142Y67028286D01*
X41010571Y66956858D01*
X41153428Y66885429D01*
X41510571Y66885429D01*
X41653428Y66956858D01*
X41724857Y67028286D01*
D11*
X37061333Y25315334D02*
X36976666Y25400000D01*
X36807333Y25484667D01*
X36384000Y25484667D01*
X36214666Y25400000D01*
X36130000Y25315334D01*
X36045333Y25146000D01*
X36045333Y24976667D01*
X36130000Y24722667D01*
X37146000Y23706667D01*
X36045333Y23706667D01*
X34944666Y25484667D02*
X34775333Y25484667D01*
X34606000Y25400000D01*
X34521333Y25315334D01*
X34436666Y25146000D01*
X34352000Y24807334D01*
X34352000Y24384000D01*
X34436666Y24045334D01*
X34521333Y23876000D01*
X34606000Y23791334D01*
X34775333Y23706667D01*
X34944666Y23706667D01*
X35114000Y23791334D01*
X35198666Y23876000D01*
X35283333Y24045334D01*
X35368000Y24384000D01*
X35368000Y24807334D01*
X35283333Y25146000D01*
X35198666Y25315334D01*
X35114000Y25400000D01*
X34944666Y25484667D01*
X32658666Y23706667D02*
X33674666Y23706667D01*
X33166666Y23706667D02*
X33166666Y25484667D01*
X33336000Y25230667D01*
X33505333Y25061334D01*
X33674666Y24976667D01*
X31134666Y24892000D02*
X31134666Y23706667D01*
X31558000Y25569334D02*
X31981333Y24299334D01*
X30880666Y24299334D01*
X64535666Y32342667D02*
X63943000Y30564667D01*
X63350333Y32342667D01*
X63011666Y32342667D02*
X61995666Y32342667D01*
X62503666Y30564667D02*
X62503666Y32342667D01*
X61403000Y31496000D02*
X60810333Y31496000D01*
X60556333Y30564667D02*
X61403000Y30564667D01*
X61403000Y32342667D01*
X60556333Y32342667D01*
X57593000Y30564667D02*
X58439666Y30564667D01*
X58439666Y32342667D01*
X56661666Y32342667D02*
X56323000Y32342667D01*
X56153666Y32258000D01*
X55984333Y32088667D01*
X55899666Y31750000D01*
X55899666Y31157334D01*
X55984333Y30818667D01*
X56153666Y30649334D01*
X56323000Y30564667D01*
X56661666Y30564667D01*
X56831000Y30649334D01*
X57000333Y30818667D01*
X57085000Y31157334D01*
X57085000Y31750000D01*
X57000333Y32088667D01*
X56831000Y32258000D01*
X56661666Y32342667D01*
X55137666Y30564667D02*
X55137666Y32342667D01*
X54460333Y32342667D01*
X54291000Y32258000D01*
X54206333Y32173334D01*
X54121666Y32004000D01*
X54121666Y31750000D01*
X54206333Y31580667D01*
X54291000Y31496000D01*
X54460333Y31411334D01*
X55137666Y31411334D01*
X53359666Y31496000D02*
X52767000Y31496000D01*
X52513000Y30564667D02*
X53359666Y30564667D01*
X53359666Y32342667D01*
X52513000Y32342667D01*
X51920333Y32342667D02*
X50735000Y32342667D01*
X51920333Y30564667D01*
X50735000Y30564667D01*
X36976666Y31496000D02*
X36384000Y31496000D01*
X36130000Y30564667D02*
X36976666Y30564667D01*
X36976666Y32342667D01*
X36130000Y32342667D01*
X35368000Y31496000D02*
X34775333Y31496000D01*
X34521333Y30564667D02*
X35368000Y30564667D01*
X35368000Y32342667D01*
X34521333Y32342667D01*
X33844000Y30649334D02*
X33590000Y30564667D01*
X33166666Y30564667D01*
X32997333Y30649334D01*
X32912666Y30734000D01*
X32828000Y30903334D01*
X32828000Y31072667D01*
X32912666Y31242000D01*
X32997333Y31326667D01*
X33166666Y31411334D01*
X33505333Y31496000D01*
X33674666Y31580667D01*
X33759333Y31665334D01*
X33844000Y31834667D01*
X33844000Y32004000D01*
X33759333Y32173334D01*
X33674666Y32258000D01*
X33505333Y32342667D01*
X33082000Y32342667D01*
X32828000Y32258000D01*
X32320000Y32342667D02*
X31304000Y32342667D01*
X31812000Y30564667D02*
X31812000Y32342667D01*
X29780000Y30564667D02*
X30796000Y30564667D01*
X30288000Y30564667D02*
X30288000Y32342667D01*
X30457333Y32088667D01*
X30626666Y31919334D01*
X30796000Y31834667D01*
D12*
X2540000Y93980000D03*
D13*
X2540000Y91440000D03*
D14*
X2476500Y73660000D03*
D15*
X2476500Y78740000D03*
D14*
X82376000Y6350000D03*
D15*
X77296000Y6350000D03*
D16*
X83312000Y96266000D03*
X85852000Y96266000D03*
X88392000Y96266000D03*
X90932000Y96266000D03*
X93472000Y96266000D03*
X96012000Y96266000D03*
X96012000Y81026000D03*
X93472000Y81026000D03*
X90932000Y81026000D03*
X88392000Y81026000D03*
X85852000Y81026000D03*
X83312000Y81026000D03*
D17*
X126238000Y67818000D03*
X128778000Y67818000D03*
X131318000Y67818000D03*
X133858000Y67818000D03*
D18*
X136398000Y67818000D03*
D19*
X70281000Y72898000D03*
X67441000Y71628000D03*
D20*
X67691000Y74168000D03*
D19*
X109143000Y72771000D03*
X106303000Y71501000D03*
D20*
X106553000Y74041000D03*
D19*
X94665000Y72771000D03*
X91825000Y71501000D03*
D20*
X92075000Y74041000D03*
D19*
X80187000Y72771000D03*
X77347000Y71501000D03*
D20*
X77597000Y74041000D03*
D21*
X-1270000Y86360000D03*
D22*
X-1270000Y93980000D03*
D23*
X-414000Y23845000D03*
X-414000Y35845000D03*
D24*
X2286000Y31115000D03*
X2286000Y28575000D03*
X4286000Y28575000D03*
X4286000Y31115000D03*
D25*
X48006000Y48260000D03*
X50546000Y48260000D03*
X53086000Y48260000D03*
X55626000Y48260000D03*
X58166000Y48260000D03*
X60706000Y48260000D03*
X63246000Y48260000D03*
X65786000Y48260000D03*
D26*
X68326000Y48260000D03*
D27*
X8890000Y26670000D03*
X8890000Y24130000D03*
D28*
X8890000Y21590000D03*
D29*
X16637000Y1905000D03*
D30*
X6477000Y1905000D03*
D27*
X11811000Y5080000D03*
X11811000Y7620000D03*
D28*
X11811000Y10160000D03*
D31*
X133985000Y50165000D03*
X131445000Y50165000D03*
X128905000Y50165000D03*
D18*
X126365000Y50165000D03*
D31*
X102743000Y39878000D03*
X105283000Y39878000D03*
X107823000Y39878000D03*
D18*
X110363000Y39878000D03*
D32*
X97028000Y15748000D03*
X97028000Y18288000D03*
X97028000Y20828000D03*
D33*
X97028000Y23368000D03*
D32*
X97028000Y28448000D03*
X97028000Y30988000D03*
X97028000Y33528000D03*
D33*
X97028000Y36068000D03*
D34*
X34290000Y40005000D03*
X39170000Y40005000D03*
D22*
X34885000Y43815000D03*
X32385000Y43815000D03*
X38100000Y43815000D03*
X40600000Y43815000D03*
X11811000Y14010000D03*
D35*
X11811000Y16510000D03*
D22*
X15621000Y40640000D03*
D35*
X15621000Y38140000D03*
D22*
X77216000Y43815000D03*
D35*
X77216000Y41315000D03*
D36*
X84836000Y21717000D03*
X84836000Y24257000D03*
X84836000Y26797000D03*
X84836000Y29337000D03*
X84836000Y31877000D03*
D37*
X84836000Y34417000D03*
D38*
X75438000Y36957000D03*
X79938000Y36957000D03*
X75438000Y30457000D03*
X79938000Y30457000D03*
X75438000Y25550000D03*
X79938000Y25550000D03*
X75438000Y19050000D03*
X79938000Y19050000D03*
X103433000Y4168000D03*
X98933000Y4168000D03*
X103433000Y10668000D03*
X98933000Y10668000D03*
X116133000Y4168000D03*
X111633000Y4168000D03*
X116133000Y10668000D03*
X111633000Y10668000D03*
X98878000Y51308000D03*
X103378000Y51308000D03*
X98878000Y44808000D03*
X103378000Y44808000D03*
X111578000Y51308000D03*
X116078000Y51308000D03*
X111578000Y44808000D03*
X116078000Y44808000D03*
D12*
X1651000Y42164000D03*
D13*
X1651000Y39624000D03*
D12*
X1651000Y45148500D03*
D13*
X1651000Y47688500D03*
D12*
X10160000Y93980000D03*
D13*
X10160000Y91440000D03*
D12*
X17780000Y93980000D03*
D13*
X17780000Y91440000D03*
D12*
X25400000Y93980000D03*
D13*
X25400000Y91440000D03*
D12*
X33020000Y93980000D03*
D13*
X33020000Y91440000D03*
D12*
X40640000Y93980000D03*
D13*
X40640000Y91440000D03*
D12*
X48260000Y93980000D03*
D13*
X48260000Y91440000D03*
D12*
X55880000Y93980000D03*
D13*
X55880000Y91440000D03*
D25*
X34163000Y67818000D03*
X31623000Y67818000D03*
X29083000Y67818000D03*
X26543000Y67818000D03*
X24003000Y67818000D03*
X21463000Y67818000D03*
X18923000Y67818000D03*
D26*
X16383000Y67818000D03*
D25*
X37846000Y48260000D03*
X35306000Y48260000D03*
X32766000Y48260000D03*
X30226000Y48260000D03*
X27686000Y48260000D03*
X25146000Y48260000D03*
X22606000Y48260000D03*
D26*
X20066000Y48260000D03*
D25*
X50546000Y7620000D03*
X53086000Y7620000D03*
X55626000Y7620000D03*
X58166000Y7620000D03*
X60706000Y7620000D03*
X63246000Y7620000D03*
X65786000Y7620000D03*
D26*
X68326000Y7620000D03*
D21*
X107188000Y4318000D03*
D22*
X107188000Y11938000D03*
D21*
X52070000Y86360000D03*
D22*
X52070000Y93980000D03*
D21*
X13970000Y86360000D03*
D22*
X13970000Y93980000D03*
D21*
X21590000Y86360000D03*
D22*
X21590000Y93980000D03*
D21*
X29210000Y86360000D03*
D22*
X29210000Y93980000D03*
D21*
X36830000Y86360000D03*
D22*
X36830000Y93980000D03*
D21*
X44450000Y86360000D03*
D22*
X44450000Y93980000D03*
D21*
X8001000Y43878500D03*
D22*
X15621000Y43878500D03*
D21*
X8001000Y47117000D03*
D22*
X15621000Y47117000D03*
D21*
X85090000Y67818000D03*
D22*
X85090000Y75438000D03*
D21*
X73025000Y67818000D03*
D22*
X73025000Y75438000D03*
D21*
X101981000Y67818000D03*
D22*
X101981000Y75438000D03*
D21*
X112966500Y67818000D03*
D22*
X112966500Y75438000D03*
D21*
X127381000Y77978000D03*
D22*
X119761000Y77978000D03*
D21*
X127381000Y93345000D03*
D22*
X119761000Y93345000D03*
D21*
X127381000Y74676000D03*
D22*
X119761000Y74676000D03*
D21*
X127381000Y89598500D03*
D22*
X119761000Y89598500D03*
D21*
X125095000Y86169500D03*
D22*
X117475000Y86169500D03*
D21*
X127381000Y97218500D03*
D22*
X119761000Y97218500D03*
D21*
X127381000Y81280000D03*
D22*
X119761000Y81280000D03*
D21*
X127381000Y71374000D03*
D22*
X119761000Y71374000D03*
D21*
X72136000Y26670000D03*
D22*
X72136000Y19050000D03*
D21*
X72136000Y29210000D03*
D22*
X72136000Y36830000D03*
D21*
X119888000Y4318000D03*
D22*
X119888000Y11938000D03*
D21*
X119888000Y44323000D03*
D22*
X119888000Y51943000D03*
D21*
X107188000Y44323000D03*
D22*
X107188000Y51943000D03*
D21*
X147574000Y72136000D03*
D22*
X139954000Y72136000D03*
D21*
X147574000Y76327000D03*
D22*
X139954000Y76327000D03*
D21*
X143764000Y86868000D03*
D22*
X143764000Y79248000D03*
D21*
X142367000Y97790000D03*
D22*
X142367000Y90170000D03*
D21*
X6350000Y86360000D03*
D22*
X6350000Y93980000D03*
D39*
X68326000Y20320000D03*
X20066000Y35560000D03*
X65786000Y20320000D03*
X22606000Y35560000D03*
X63246000Y20320000D03*
X25146000Y35560000D03*
X60706000Y20320000D03*
X27686000Y35560000D03*
X58166000Y20320000D03*
X30226000Y35560000D03*
X55626000Y20320000D03*
X32766000Y35560000D03*
X53086000Y20320000D03*
X35306000Y35560000D03*
X50546000Y20320000D03*
X37846000Y35560000D03*
X48006000Y20320000D03*
X40386000Y35560000D03*
X45466000Y20320000D03*
X42926000Y35560000D03*
X42926000Y20320000D03*
X45466000Y35560000D03*
X40386000Y20320000D03*
X48006000Y35560000D03*
X37846000Y20320000D03*
X50546000Y35560000D03*
X35306000Y20320000D03*
X53086000Y35560000D03*
X32766000Y20320000D03*
X55626000Y35560000D03*
X30226000Y20320000D03*
X58166000Y35560000D03*
X27686000Y20320000D03*
X60706000Y35560000D03*
X25146000Y20320000D03*
X63246000Y35560000D03*
X22606000Y20320000D03*
X65786000Y35560000D03*
X20066000Y20320000D03*
D40*
X68326000Y35560000D03*
D41*
X6731000Y15240000D03*
X6731000Y12700000D03*
D13*
X6731000Y10160000D03*
D21*
X131699000Y79502000D03*
X139319000Y97282000D03*
X131699000Y82042000D03*
X139319000Y94742000D03*
X131699000Y84582000D03*
X139319000Y92202000D03*
X131699000Y87122000D03*
X139319000Y89662000D03*
X131699000Y89662000D03*
X139319000Y87122000D03*
X131699000Y92202000D03*
X139319000Y84582000D03*
X131699000Y94742000D03*
X139319000Y82042000D03*
X131699000Y97282000D03*
D35*
X139319000Y79502000D03*
D39*
X16383000Y81280000D03*
X36703000Y73660000D03*
X18923000Y81280000D03*
X34163000Y73660000D03*
X21463000Y81280000D03*
X31623000Y73660000D03*
X24003000Y81280000D03*
X29083000Y73660000D03*
X26543000Y81280000D03*
X26543000Y73660000D03*
X29083000Y81280000D03*
X24003000Y73660000D03*
X31623000Y81280000D03*
X21463000Y73660000D03*
X34163000Y81280000D03*
X18923000Y73660000D03*
X36703000Y81280000D03*
D40*
X16383000Y73660000D03*
D42*
X126365000Y31830000D03*
X126365000Y36830000D03*
X126365000Y41830000D03*
X126365000Y8970000D03*
X126365000Y13970000D03*
X126365000Y18970000D03*
D22*
X45466000Y17145000D03*
X47966000Y17145000D03*
D25*
X20066000Y7620000D03*
X22606000Y7620000D03*
X25146000Y7620000D03*
X27686000Y7620000D03*
X30226000Y7620000D03*
X32766000Y7620000D03*
X35306000Y7620000D03*
D26*
X37846000Y7620000D03*
D31*
X98552000Y67818000D03*
X96012000Y67818000D03*
X93472000Y67818000D03*
D18*
X90932000Y67818000D03*
D29*
X40005000Y77216000D03*
D30*
X50165000Y77216000D03*
D38*
X141605000Y74422000D03*
X135127998Y74422000D03*
D34*
X110236000Y81026000D03*
X110236000Y74676000D03*
D43*
X45466000Y35560000D02*
X45466000Y37395000D01*
X45466000Y37395000D02*
X48006000Y39935000D01*
X48006000Y39935000D02*
X48006000Y46125000D01*
X48006000Y46125000D02*
X48006000Y48260000D01*
X48006000Y35560000D02*
X48006000Y37465000D01*
X48006000Y37465000D02*
X50546000Y40005000D01*
X50546000Y40005000D02*
X50546000Y48006000D01*
X50546000Y35560000D02*
X50546000Y37465000D01*
X50546000Y37465000D02*
X53086000Y40005000D01*
X53086000Y40005000D02*
X53086000Y48006000D01*
X42926000Y14605000D02*
X42926000Y20320000D01*
X37846000Y9525000D02*
X42926000Y14605000D01*
X37846000Y7620000D02*
X37846000Y9525000D01*
X40386000Y15240000D02*
X40386000Y20320000D01*
X35306000Y10160000D02*
X40386000Y15240000D01*
X35306000Y7620000D02*
X35306000Y10160000D01*
X37846000Y15875000D02*
X37846000Y20320000D01*
X32766000Y10795000D02*
X37846000Y15875000D01*
X32766000Y7620000D02*
X32766000Y10795000D01*
X35306000Y16510000D02*
X35306000Y20320000D01*
X30226000Y11430000D02*
X35306000Y16510000D01*
X30226000Y7620000D02*
X30226000Y11430000D01*
X22606000Y7620000D02*
X22606000Y20320000D01*
X20066000Y7620000D02*
X20066000Y20320000D01*
X20016000Y35610000D02*
X20066000Y35560000D01*
X15621000Y43815000D02*
X20016000Y43815000D01*
X20016000Y35610000D02*
X20016000Y43815000D01*
X20066000Y48210000D02*
X20066000Y48260000D01*
X20016000Y43815000D02*
X20016000Y48210000D01*
X15621000Y50165000D02*
X17018000Y51562000D01*
X17018000Y51562000D02*
X21209000Y51562000D01*
X21209000Y51562000D02*
X22606000Y50165000D01*
X22606000Y50165000D02*
X22606000Y48260000D01*
X15621000Y50165000D02*
X15621000Y46609000D01*
X22606000Y35560000D02*
X22606000Y48260000D01*
X15621000Y47244000D02*
X15621000Y50165000D01*
X15875000Y46990000D02*
X15621000Y47244000D01*
D44*
X97028000Y30988000D02*
X97028000Y36220400D01*
X97028000Y36220400D02*
X89433400Y43815000D01*
X89433400Y43815000D02*
X78347370Y43815000D01*
X78347370Y43815000D02*
X77216000Y43815000D01*
X2286000Y28575000D02*
X889000Y28575000D01*
X889000Y28575000D02*
X-414000Y29878000D01*
X-414000Y29878000D02*
X-414000Y30259000D01*
X103378000Y51308000D02*
X103378000Y52722213D01*
X103378000Y52722213D02*
X102252213Y53848000D01*
X102252213Y53848000D02*
X74676000Y53848000D01*
X74676000Y53848000D02*
X71882000Y51054000D01*
X77216000Y43815000D02*
X74041000Y43815000D01*
X74041000Y43815000D02*
X71882000Y45974000D01*
X69088000Y53848000D02*
X7620000Y53848000D01*
X71882000Y45974000D02*
X71882000Y51054000D01*
X71882000Y51054000D02*
X69088000Y53848000D01*
X7620000Y53848000D02*
X1651000Y47879000D01*
X1651000Y47879000D02*
X127000Y47879000D01*
X11811000Y7620000D02*
X13208000Y7620000D01*
X13208000Y7620000D02*
X16722999Y4105001D01*
X16722999Y4105001D02*
X17693001Y4105001D01*
X17693001Y4105001D02*
X18242002Y3556000D01*
X72369000Y3556000D02*
X77703000Y8890000D01*
X18242002Y3556000D02*
X72369000Y3556000D01*
X11811000Y7620000D02*
X9906000Y7620000D01*
X9906000Y7620000D02*
X9144000Y8382000D01*
X9144000Y8382000D02*
X9144000Y12573000D01*
X9144000Y12573000D02*
X9271000Y12700000D01*
X9271000Y12700000D02*
X9398000Y12700000D01*
X9398000Y12700000D02*
X10668000Y13970000D01*
X10668000Y13970000D02*
X11811000Y13970000D01*
X-414000Y23845000D02*
X-414000Y16670000D01*
X-414000Y16670000D02*
X3556000Y12700000D01*
X3556000Y12700000D02*
X6731000Y12700000D01*
X13081000Y39370000D02*
X12954000Y39497000D01*
X12954000Y39497000D02*
X12954000Y35560000D01*
X19304000Y29210000D02*
X40386000Y29210000D01*
X12954000Y35560000D02*
X19304000Y29210000D01*
X15621000Y40640000D02*
X13970000Y40640000D01*
X13970000Y40640000D02*
X13081000Y39751000D01*
X13081000Y39751000D02*
X13081000Y39370000D01*
X1651000Y39624000D02*
X0Y39624000D01*
X-1524000Y41148000D02*
X-1524000Y46228000D01*
X0Y39624000D02*
X-1524000Y41148000D01*
X-1524000Y46228000D02*
X127000Y47879000D01*
X-414000Y35845000D02*
X-414000Y37559000D01*
X-414000Y37559000D02*
X1651000Y39624000D01*
X1651000Y39624000D02*
X12827000Y39624000D01*
X12827000Y39624000D02*
X13081000Y39370000D01*
X116078000Y50038000D02*
X116078000Y51308000D01*
X102798000Y51308000D02*
X105338000Y48768000D01*
X105338000Y48768000D02*
X114808000Y48768000D01*
X114808000Y48768000D02*
X116078000Y50038000D01*
X6731000Y12700000D02*
X9271000Y12700000D01*
X77296000Y6350000D02*
X77296000Y8483000D01*
X77296000Y8483000D02*
X77703000Y8890000D01*
X98933000Y4168000D02*
X101115000Y6350000D01*
X101115000Y6350000D02*
X109601000Y6350000D01*
X109601000Y6350000D02*
X110633001Y5317999D01*
X110633001Y5317999D02*
X111633000Y4318000D01*
X98933000Y30988000D02*
X100838000Y29083000D01*
X100838000Y29083000D02*
X100838000Y12573000D01*
X100838000Y12573000D02*
X98933000Y10668000D01*
X98933000Y40943000D02*
X98933000Y34798000D01*
X98933000Y35813000D02*
X98933000Y34798000D01*
X98933000Y34798000D02*
X98933000Y33528000D01*
X98678000Y36068000D02*
X98933000Y35813000D01*
X97028000Y36068000D02*
X98678000Y36068000D01*
X98933000Y32893000D02*
X98933000Y32258000D01*
X98933000Y32258000D02*
X98933000Y30988000D01*
X97028000Y33528000D02*
X97877999Y32678001D01*
X97877999Y32678001D02*
X98512999Y32678001D01*
X98512999Y32678001D02*
X98933000Y32258000D01*
X98933000Y33528000D02*
X98933000Y32893000D01*
X97028000Y30988000D02*
X97877999Y31837999D01*
X97877999Y31837999D02*
X98933000Y32893000D01*
X97028000Y28448000D02*
X98933000Y30353000D01*
X98933000Y30353000D02*
X98933000Y30988000D01*
X102798000Y44808000D02*
X98933000Y40943000D01*
X79938000Y19050000D02*
X79938000Y25550000D01*
X84836000Y29337000D02*
X81058000Y29337000D01*
X81058000Y29337000D02*
X79938000Y30457000D01*
X79938000Y25550000D02*
X79938000Y30457000D01*
X-414000Y23845000D02*
X-414000Y27272000D01*
X-414000Y27272000D02*
X889000Y28575000D01*
X-414000Y35845000D02*
X-414000Y30259000D01*
X-414000Y30259000D02*
X1270000Y28575000D01*
X45466000Y20320000D02*
X45466000Y24130000D01*
X40386000Y29210000D02*
X45466000Y24130000D01*
X40386000Y29210000D02*
X40386000Y35560000D01*
X45466000Y17145000D02*
X45466000Y20320000D01*
X36576000Y43815000D02*
X36576000Y45720000D01*
X36576000Y43815000D02*
X37846000Y43815000D01*
X35306000Y43815000D02*
X36576000Y43815000D01*
X36576000Y45720000D02*
X42291000Y45720000D01*
X42291000Y45720000D02*
X43561000Y44450000D01*
X43561000Y40640000D02*
X43561000Y44450000D01*
X40386000Y37465000D02*
X43561000Y40640000D01*
X40386000Y35560000D02*
X40386000Y37465000D01*
X35306000Y46990000D02*
X36576000Y45720000D01*
X35306000Y46990000D02*
X35306000Y48260000D01*
X78592000Y9779000D02*
X77703000Y8890000D01*
X85492000Y9779000D02*
X78592000Y9779000D01*
X98933000Y4168000D02*
X91103000Y4168000D01*
X91103000Y4168000D02*
X85492000Y9779000D01*
X87185500Y11472500D02*
X85492000Y9779000D01*
X88646000Y12933000D02*
X87185500Y11472500D01*
X88646000Y27051000D02*
X88646000Y12933000D01*
X84836000Y29337000D02*
X86360000Y29337000D01*
X86360000Y29337000D02*
X88646000Y27051000D01*
D43*
X40386000Y41275000D02*
X40386000Y43815000D01*
X39116000Y40005000D02*
X40386000Y41275000D01*
X37846000Y38735000D02*
X39116000Y40005000D01*
X37846000Y35560000D02*
X37846000Y38735000D01*
X68326000Y40005000D02*
X68326000Y48006000D01*
X65786000Y37465000D02*
X68326000Y40005000D01*
X65786000Y35560000D02*
X65786000Y37465000D01*
X65786000Y40005000D02*
X65786000Y48006000D01*
X63246000Y37465000D02*
X65786000Y40005000D01*
X63246000Y35560000D02*
X63246000Y37465000D01*
X60706000Y35560000D02*
X60706000Y37465000D01*
X60706000Y37465000D02*
X63246000Y40005000D01*
X63246000Y40005000D02*
X63246000Y48006000D01*
X58166000Y35560000D02*
X58166000Y37465000D01*
X58166000Y37465000D02*
X60706000Y40005000D01*
X60706000Y40005000D02*
X60706000Y48006000D01*
X55626000Y35560000D02*
X55626000Y37465000D01*
X55626000Y37465000D02*
X58166000Y40005000D01*
X58166000Y40005000D02*
X58166000Y48006000D01*
X53086000Y35560000D02*
X53086000Y37465000D01*
X53086000Y37465000D02*
X55626000Y40005000D01*
X55626000Y40005000D02*
X55626000Y48006000D01*
X50546000Y7620000D02*
X50546000Y20320000D01*
X53086000Y7620000D02*
X53086000Y20320000D01*
X55626000Y7620000D02*
X55626000Y20320000D01*
X58166000Y7620000D02*
X58166000Y20320000D01*
X75438000Y25550000D02*
X75438000Y19050000D01*
X72136000Y19050000D02*
X75438000Y19050000D01*
X60706000Y7620000D02*
X60706000Y20320000D01*
X72136000Y21907500D02*
X72136000Y19050000D01*
X70993000Y23050500D02*
X72136000Y21907500D01*
X61658500Y23050500D02*
X70993000Y23050500D01*
X60706000Y20320000D02*
X60706000Y22098000D01*
X60706000Y22098000D02*
X61658500Y23050500D01*
X63246000Y7620000D02*
X63246000Y20320000D01*
X30226000Y40005000D02*
X30226000Y48260000D01*
X30226000Y40005000D02*
X32766000Y37465000D01*
X32766000Y35560000D02*
X32766000Y37465000D01*
X27686000Y40005000D02*
X27686000Y48260000D01*
X27686000Y40005000D02*
X30226000Y37465000D01*
X30226000Y35560000D02*
X30226000Y37465000D01*
X25146000Y40005000D02*
X25146000Y44450000D01*
X25146000Y44450000D02*
X25146000Y48260000D01*
X25146000Y40005000D02*
X27686000Y37465000D01*
X27686000Y35560000D02*
X27686000Y37465000D01*
X25146000Y44450000D02*
X25146000Y44450000D01*
X30226000Y17780000D02*
X30226000Y20320000D01*
X25146000Y12700000D02*
X30226000Y17780000D01*
X25146000Y7620000D02*
X25146000Y12700000D01*
X27686000Y12065000D02*
X32766000Y17145000D01*
X27686000Y7620000D02*
X27686000Y12065000D01*
X32766000Y17145000D02*
X32766000Y20320000D01*
D44*
X4286000Y28575000D02*
X6985000Y28575000D01*
X6985000Y28575000D02*
X8890000Y26670000D01*
D43*
X16383000Y67818000D02*
X16383000Y73660000D01*
X18923000Y67818000D02*
X18923000Y73660000D01*
X21463000Y73660000D02*
X21463000Y67818000D01*
X24003000Y73660000D02*
X24003000Y67818000D01*
X26543000Y73660000D02*
X26543000Y67818000D01*
X29083000Y73660000D02*
X29083000Y67818000D01*
X31623000Y73660000D02*
X31623000Y67818000D01*
X34163000Y73660000D02*
X34163000Y67818000D01*
X110363000Y39878000D02*
X110363000Y43593000D01*
X110363000Y43593000D02*
X111578000Y44808000D01*
X119888000Y44323000D02*
X119888000Y45491400D01*
X119888000Y45491400D02*
X118516400Y46863000D01*
X118516400Y46863000D02*
X113633000Y46863000D01*
X113633000Y46863000D02*
X111578000Y44808000D01*
X98933000Y51308000D02*
X101422200Y48818800D01*
X101422200Y48818800D02*
X102870000Y47371000D01*
X101422200Y48766413D02*
X101422200Y48818800D01*
X98878000Y44808000D02*
X98878000Y46222213D01*
X98878000Y46222213D02*
X101422200Y48766413D01*
X98298000Y51308000D02*
X98933000Y51308000D01*
X102870000Y47371000D02*
X104140000Y47371000D01*
X104140000Y47371000D02*
X107188000Y44323000D01*
X107823000Y39878000D02*
X107823000Y43688000D01*
X107823000Y43688000D02*
X107188000Y44323000D01*
X105283000Y39878000D02*
X105283000Y21668000D01*
X105283000Y21668000D02*
X116133000Y10818000D01*
X116133000Y10818000D02*
X118768000Y10818000D01*
X118768000Y10818000D02*
X119888000Y11938000D01*
X102743000Y39878000D02*
X102743000Y11358000D01*
X102743000Y11358000D02*
X103433000Y10668000D01*
X103433000Y10668000D02*
X105918000Y10668000D01*
X105918000Y10668000D02*
X107188000Y11938000D01*
D44*
X83312000Y82526000D02*
X83312000Y81026000D01*
X86955500Y86169500D02*
X83312000Y82526000D01*
X117475000Y86169500D02*
X86955500Y86169500D01*
X119761000Y85026500D02*
X119761000Y89598500D01*
X85852000Y81276000D02*
X89348500Y84772500D01*
X85852000Y81026000D02*
X85852000Y81276000D01*
X89348500Y84772500D02*
X112077500Y84772500D01*
X112077500Y84772500D02*
X113220500Y83629500D01*
X113220500Y83629500D02*
X118364000Y83629500D01*
X118364000Y83629500D02*
X119761000Y85026500D01*
X90932000Y79819500D02*
X90932000Y81026000D01*
X119570500Y74930000D02*
X115506500Y78994000D01*
X119761000Y74930000D02*
X119570500Y74930000D01*
X115506500Y78994000D02*
X91757500Y78994000D01*
X91757500Y78994000D02*
X90932000Y79819500D01*
X118237000Y71374000D02*
X116205000Y73406000D01*
X119761000Y71374000D02*
X118237000Y71374000D01*
X116205000Y73406000D02*
X116205000Y75374500D01*
X116205000Y75374500D02*
X113982500Y77597000D01*
X88392000Y79121000D02*
X88392000Y81026000D01*
X113982500Y77597000D02*
X89916000Y77597000D01*
X89916000Y77597000D02*
X88392000Y79121000D01*
X116840000Y96266000D02*
X119761000Y93345000D01*
X96012000Y96266000D02*
X116840000Y96266000D01*
X121475500Y79057500D02*
X121475500Y84836000D01*
X120904000Y78486000D02*
X121475500Y79057500D01*
X121475500Y98317917D02*
X121475500Y84865489D01*
X85852000Y97726500D02*
X87757000Y99631500D01*
X85852000Y96266000D02*
X85852000Y97726500D01*
X87757000Y99631500D02*
X120161917Y99631500D01*
X120161917Y99631500D02*
X121475500Y98317917D01*
X120332500Y77914500D02*
X120904000Y78486000D01*
X119761000Y77978000D02*
X119824500Y77914500D01*
X119824500Y77914500D02*
X120332500Y77914500D01*
X118618000Y98425000D02*
X119761000Y97282000D01*
X88392000Y97766000D02*
X89051000Y98425000D01*
X88392000Y96266000D02*
X88392000Y97766000D01*
X89051000Y98425000D02*
X118618000Y98425000D01*
X93472000Y82232500D02*
X93472000Y81026000D01*
X113030000Y81280000D02*
X111061500Y83248500D01*
X119761000Y81280000D02*
X113030000Y81280000D01*
X111061500Y83248500D02*
X94488000Y83248500D01*
X94488000Y83248500D02*
X93472000Y82232500D01*
D45*
X139319000Y79502000D02*
X139319000Y76962000D01*
X139319000Y76962000D02*
X139954000Y76327000D01*
X133858000Y68643500D02*
X133858000Y67818000D01*
X138974005Y73759505D02*
X133858000Y68643500D01*
X139954000Y76327000D02*
X138974005Y75347005D01*
X138974005Y75347005D02*
X138974005Y73759505D01*
X139319000Y82042000D02*
X141224000Y82042000D01*
X141224000Y82042000D02*
X144018000Y79248000D01*
X137574033Y80297033D02*
X137574033Y74324033D01*
X131318000Y68068000D02*
X131318000Y67818000D01*
X137574033Y74324033D02*
X131318000Y68068000D01*
X139319000Y82042000D02*
X137574033Y80297033D01*
X141224000Y90297000D02*
X141224000Y90170000D01*
X139319000Y92202000D02*
X141224000Y90297000D01*
X142367000Y90170000D02*
X141235630Y90170000D01*
X141235630Y90170000D02*
X141224000Y90170000D01*
X128778000Y67818000D02*
X128778000Y68068000D01*
X128778000Y68068000D02*
X135127998Y74417998D01*
X135127998Y74417998D02*
X135127998Y74422000D01*
X141541500Y74422000D02*
X141605000Y74422000D01*
X142113000Y74422000D02*
X141541500Y74422000D01*
X145249989Y77558989D02*
X142113000Y74422000D01*
X145249989Y80556011D02*
X145249989Y77558989D01*
X141224000Y90170000D02*
X141224000Y84582000D01*
X141224000Y84582000D02*
X145249989Y80556011D01*
X140335000Y71755000D02*
X139954000Y72136000D01*
X141085370Y72136000D02*
X139954000Y72136000D01*
X141922500Y72136000D02*
X141085370Y72136000D01*
X146123999Y76337499D02*
X141922500Y72136000D01*
X146123999Y77023001D02*
X146123999Y76337499D01*
X146150000Y81434000D02*
X146150000Y77049002D01*
X141732000Y94742000D02*
X144018000Y92456000D01*
X139319000Y94742000D02*
X141732000Y94742000D01*
X144018000Y92456000D02*
X144018000Y89471500D01*
X146150000Y77049002D02*
X146123999Y77023001D01*
X144018000Y89471500D02*
X142313999Y87767499D01*
X142313999Y87767499D02*
X142313999Y85270001D01*
X142313999Y85270001D02*
X146150000Y81434000D01*
X139954000Y70739000D02*
X139954000Y72136000D01*
X136398000Y67818000D02*
X137033000Y67818000D01*
X137033000Y67818000D02*
X139954000Y70739000D01*
D43*
X74156370Y67818000D02*
X75616870Y69278500D01*
X73025000Y67818000D02*
X74156370Y67818000D01*
X75616870Y69278500D02*
X83629500Y69278500D01*
X83629500Y69278500D02*
X84074000Y69723000D01*
X89447000Y67818000D02*
X90932000Y67818000D01*
X87542000Y69723000D02*
X89447000Y67818000D01*
X84074000Y69723000D02*
X87542000Y69723000D01*
X85090000Y66548000D02*
X85090000Y67818000D01*
X86042500Y65595500D02*
X85090000Y66548000D01*
X92837000Y65595500D02*
X86042500Y65595500D01*
X93472000Y67818000D02*
X93472000Y66230500D01*
X93472000Y66230500D02*
X92837000Y65595500D01*
X96012000Y68218000D02*
X97758389Y69964389D01*
X97758389Y69964389D02*
X99834611Y69964389D01*
X96012000Y67818000D02*
X96012000Y68218000D01*
X101181001Y68617999D02*
X101981000Y67818000D01*
X99834611Y69964389D02*
X101181001Y68617999D01*
X112166501Y66891001D02*
X112966500Y67691000D01*
X110934500Y65659000D02*
X112166501Y66891001D01*
X100311000Y65659000D02*
X110934500Y65659000D01*
X98552000Y67818000D02*
X98552000Y67418000D01*
X98552000Y67418000D02*
X100311000Y65659000D01*
X72571000Y75438000D02*
X70031000Y72898000D01*
X73025000Y75438000D02*
X72571000Y75438000D01*
X82604000Y75438000D02*
X85090000Y75438000D01*
X79937000Y72771000D02*
X82604000Y75438000D01*
X101981000Y75438000D02*
X99187000Y72644000D01*
X94542000Y72644000D02*
X99187000Y72644000D01*
X94415000Y72771000D02*
X94542000Y72644000D01*
X108893000Y72771000D02*
X111950500Y72771000D01*
X112966500Y73787000D02*
X112966500Y75311000D01*
X111950500Y72771000D02*
X112966500Y73787000D01*
X126238000Y67818000D02*
X126238000Y70231000D01*
X126238000Y70231000D02*
X127381000Y71374000D01*
X31623000Y81280000D02*
X31623000Y81402755D01*
X31623000Y81402755D02*
X34980244Y84759999D01*
X34980244Y84759999D02*
X42849999Y84759999D01*
X42849999Y84759999D02*
X43650001Y85560001D01*
X43650001Y85560001D02*
X44450000Y86360000D01*
X36830000Y86360000D02*
X33763000Y86360000D01*
X33763000Y86360000D02*
X29083000Y81680000D01*
X29083000Y81680000D02*
X29083000Y81280000D01*
X29210000Y86360000D02*
X26543000Y83693000D01*
X26543000Y83693000D02*
X26543000Y81280000D01*
X21590000Y86360000D02*
X24003000Y83947000D01*
X24003000Y83947000D02*
X24003000Y81280000D01*
X13970000Y86360000D02*
X18415000Y86360000D01*
X18415000Y86360000D02*
X21463000Y83312000D01*
X21463000Y83312000D02*
X21463000Y81280000D01*
X6350000Y86360000D02*
X8255000Y84455000D01*
X8255000Y84455000D02*
X17780000Y84455000D01*
X17780000Y84455000D02*
X18923000Y83312000D01*
X18923000Y83312000D02*
X18923000Y81280000D01*
X-1270000Y86360000D02*
X3810000Y81280000D01*
X3810000Y81280000D02*
X16383000Y81280000D01*
X34163000Y81280000D02*
X34163000Y81402755D01*
X34163000Y81402755D02*
X36320234Y83559989D01*
X36320234Y83559989D02*
X49269989Y83559989D01*
X49269989Y83559989D02*
X51270001Y85560001D01*
X51270001Y85560001D02*
X52070000Y86360000D01*
X1270000Y91440000D02*
X2540000Y91440000D01*
X-1270000Y93980000D02*
X1270000Y91440000D01*
X55880000Y91440000D02*
X54610000Y91440000D01*
X54610000Y91440000D02*
X52070000Y93980000D01*
X48260000Y91440000D02*
X46990000Y91440000D01*
X46990000Y91440000D02*
X44450000Y93980000D01*
X40640000Y91440000D02*
X39370000Y91440000D01*
X39370000Y91440000D02*
X36830000Y93980000D01*
X33020000Y91440000D02*
X31750000Y91440000D01*
X31750000Y91440000D02*
X29210000Y93980000D01*
X21590000Y93980000D02*
X24130000Y91440000D01*
X24130000Y91440000D02*
X25400000Y91440000D01*
X16510000Y91440000D02*
X17780000Y91440000D01*
X13970000Y93980000D02*
X16510000Y91440000D01*
X9017000Y91313000D02*
X10033000Y91313000D01*
X10033000Y91313000D02*
X10160000Y91440000D01*
X6350000Y93980000D02*
X9017000Y91313000D01*
X35926000Y52070000D02*
X32766000Y48910000D01*
X69893501Y50080002D02*
X67903503Y52070000D01*
X72136000Y40005000D02*
X69893501Y42247499D01*
X67903503Y52070000D02*
X35926000Y52070000D01*
X69893501Y42247499D02*
X69893501Y50080002D01*
X32766000Y48910000D02*
X32766000Y48260000D01*
X75438000Y36957000D02*
X72263000Y36957000D01*
X72263000Y36957000D02*
X72136000Y36830000D01*
X77216000Y41315000D02*
X77216000Y40005000D01*
X68326000Y35560000D02*
X70866000Y35560000D01*
X72136000Y36830000D02*
X72136000Y40005000D01*
X70866000Y35560000D02*
X72136000Y36830000D01*
X77216000Y40005000D02*
X81661000Y40005000D01*
X72136000Y40005000D02*
X77216000Y40005000D01*
X81661000Y40005000D02*
X84836000Y36830000D01*
X84836000Y34290000D02*
X84836000Y36830000D01*
X6731000Y15240000D02*
X8890000Y17399000D01*
X8890000Y17399000D02*
X8890000Y21590000D01*
X11049000Y17272000D02*
X11811000Y16510000D01*
X6731000Y15240000D02*
X8763000Y17272000D01*
X8763000Y17272000D02*
X11049000Y17272000D01*
X35306000Y35560000D02*
X35306000Y38735000D01*
X34036000Y40005000D02*
X35306000Y38735000D01*
X32766000Y41275000D02*
X34036000Y40005000D01*
X32766000Y41275000D02*
X32766000Y43815000D01*
X25146000Y35560000D02*
X25146000Y35160000D01*
X25146000Y35160000D02*
X23628490Y33642490D01*
X15621000Y36705000D02*
X15621000Y38140000D01*
X23628490Y33642490D02*
X18683510Y33642490D01*
X18683510Y33642490D02*
X15621000Y36705000D01*
D44*
X4286000Y31115000D02*
X9525000Y31115000D01*
X9525000Y31115000D02*
X16510000Y24130000D01*
X16510000Y24130000D02*
X23876000Y24130000D01*
X23876000Y24130000D02*
X25146000Y22860000D01*
X25146000Y22860000D02*
X25146000Y20320000D01*
X2286000Y31115000D02*
X2286000Y32258000D01*
X2286000Y32258000D02*
X3302000Y33274000D01*
X24638000Y26670000D02*
X27686000Y23622000D01*
X3302000Y33274000D02*
X11430000Y33274000D01*
X11430000Y33274000D02*
X18034000Y26670000D01*
X18034000Y26670000D02*
X24638000Y26670000D01*
X27686000Y23622000D02*
X27686000Y20320000D01*
X65786000Y7620000D02*
X65786000Y20320000D01*
X85685999Y23407001D02*
X84836000Y24257000D01*
X65786000Y5842000D02*
X66548000Y5080000D01*
X66548000Y5080000D02*
X71183500Y5080000D01*
X71183500Y5080000D02*
X86486001Y20382501D01*
X65786000Y7620000D02*
X65786000Y5842000D01*
X86486001Y20382501D02*
X86486001Y22606999D01*
X86486001Y22606999D02*
X85685999Y23407001D01*
X68326000Y20320000D02*
X68326000Y15748000D01*
X68326000Y15748000D02*
X68326000Y7620000D01*
X68580000Y16002000D02*
X68326000Y15748000D01*
X80010000Y16002000D02*
X68580000Y16002000D01*
X82423000Y18415000D02*
X80010000Y16002000D01*
X84836000Y26797000D02*
X82423000Y24384000D01*
X82423000Y24384000D02*
X82423000Y18415000D01*
X6477000Y1905000D02*
X6477000Y2794000D01*
X6477000Y2794000D02*
X8763000Y5080000D01*
X6731000Y10160000D02*
X6731000Y7112000D01*
X6477000Y1905000D02*
X6731000Y2159000D01*
X6731000Y7112000D02*
X8763000Y5080000D01*
X8763000Y5080000D02*
X11811000Y5080000D01*
X47966000Y17145000D02*
X47966000Y16013630D01*
X47966000Y16013630D02*
X48006000Y15973630D01*
X48006000Y15973630D02*
X48006000Y10795000D01*
X48006000Y20320000D02*
X48006000Y17185000D01*
X48006000Y17185000D02*
X47966000Y17145000D01*
X119888000Y51943000D02*
X122301000Y49530000D01*
X122301000Y49530000D02*
X122301000Y42062400D01*
X120687999Y5117999D02*
X119888000Y4318000D01*
X122301000Y42062400D02*
X120446800Y40208200D01*
X120446800Y40208200D02*
X120446800Y15468600D01*
X121945400Y13970000D02*
X121945400Y6375400D01*
X121945400Y6375400D02*
X120687999Y5117999D01*
X120446800Y15468600D02*
X121945400Y13970000D01*
X8890000Y24130000D02*
X12192000Y24130000D01*
X12192000Y24130000D02*
X15494000Y20828000D01*
X15494000Y11938000D02*
X13716000Y10160000D01*
X15494000Y20828000D02*
X15494000Y11938000D01*
X13716000Y10160000D02*
X11811000Y10160000D01*
X119888000Y4318000D02*
X119888000Y3683000D01*
X119888000Y3683000D02*
X118364000Y2159000D01*
X118364000Y2159000D02*
X109347000Y2159000D01*
X109347000Y2159000D02*
X107987999Y3518001D01*
X107987999Y3518001D02*
X107188000Y4318000D01*
X13461000Y10160000D02*
X18356989Y5264011D01*
X11811000Y10160000D02*
X13461000Y10160000D01*
X18356989Y5264011D02*
X42475011Y5264011D01*
X42475011Y5264011D02*
X48006000Y10795000D01*
X97028000Y15748000D02*
X96178001Y14898001D01*
X96178001Y14898001D02*
X96178001Y9612999D01*
X96178001Y9612999D02*
X96393000Y9398000D01*
X97028000Y18288000D02*
X97028000Y15748000D01*
X97028000Y20828000D02*
X97028000Y18288000D01*
X97028000Y23368000D02*
X97028000Y20828000D01*
X96393000Y9398000D02*
X97663000Y8128000D01*
X116078000Y8128000D02*
X119088001Y5117999D01*
X97663000Y8128000D02*
X116078000Y8128000D01*
X119088001Y5117999D02*
X119888000Y4318000D01*
X119888000Y51943000D02*
X118414800Y53416200D01*
X118414800Y53416200D02*
X108661200Y53416200D01*
X108661200Y53416200D02*
X107987999Y52742999D01*
X107987999Y52742999D02*
X107188000Y51943000D01*
X72136000Y29210000D02*
X72136000Y26670000D01*
X45466000Y40005000D02*
X42926000Y37465000D01*
X42926000Y37465000D02*
X42926000Y35560000D01*
X45466000Y45720000D02*
X45466000Y40005000D01*
X42926000Y48260000D02*
X45466000Y45720000D01*
X70721787Y26670000D02*
X72136000Y26670000D01*
X48006000Y20320000D02*
X48006000Y24130000D01*
X49276000Y25400000D02*
X50546000Y26670000D01*
X48006000Y24130000D02*
X49276000Y25400000D01*
X50546000Y26670000D02*
X70721787Y26670000D01*
X42926000Y31750000D02*
X49276000Y25400000D01*
X42926000Y35560000D02*
X42926000Y31750000D01*
X37846000Y48260000D02*
X42926000Y48260000D01*
X95694500Y23368000D02*
X97028000Y23368000D01*
X87312500Y31750000D02*
X95694500Y23368000D01*
X84836000Y31877000D02*
X84963000Y31750000D01*
X84963000Y31750000D02*
X87312500Y31750000D01*
X84201000Y32512000D02*
X84836000Y31877000D01*
X74306630Y32512000D02*
X84201000Y32512000D01*
X72136000Y29210000D02*
X72136000Y30341370D01*
X72136000Y30341370D02*
X74306630Y32512000D01*
X133985000Y50165000D02*
X133985000Y12700000D01*
X133985000Y12700000D02*
X130175000Y8890000D01*
X130175000Y8890000D02*
X130095000Y8970000D01*
X126285000Y8890000D02*
X126365000Y8970000D01*
X126365000Y31830000D02*
X126365000Y26035000D01*
X129540000Y17780000D02*
X128270000Y16510000D01*
X129540000Y22860000D02*
X129540000Y17780000D01*
X125095000Y16510000D02*
X123825000Y15240000D01*
X128270000Y16510000D02*
X125095000Y16510000D01*
X123825000Y15240000D02*
X123825000Y10160000D01*
X125095000Y8890000D02*
X126285000Y8890000D01*
X126365000Y26035000D02*
X129540000Y22860000D01*
X130095000Y8970000D02*
X126365000Y8970000D01*
X123825000Y10160000D02*
X125095000Y8890000D01*
X126365000Y41830000D02*
X126365000Y50165000D01*
X126365000Y41830000D02*
X123698000Y39163000D01*
X123698000Y20574000D02*
X125302000Y18970000D01*
X125302000Y18970000D02*
X126365000Y18970000D01*
X123698000Y39163000D02*
X123698000Y29210000D01*
X123698000Y29210000D02*
X123698000Y20574000D01*
X67691000Y79121000D02*
X67691000Y74168000D01*
X83312000Y96266000D02*
X82251340Y96266000D01*
X67691000Y81705660D02*
X67691000Y79121000D01*
X82251340Y96266000D02*
X67691000Y81705660D01*
X90932000Y96016000D02*
X90932000Y96266000D01*
X77597000Y74041000D02*
X77597000Y81407000D01*
X90932000Y94742000D02*
X90932000Y96016000D01*
X77597000Y81407000D02*
X90932000Y94742000D01*
X90487500Y74041000D02*
X92075000Y74041000D01*
X93472000Y94932500D02*
X81153000Y82613500D01*
X93472000Y96266000D02*
X93472000Y94932500D01*
X81153000Y82613500D02*
X81153000Y79502000D01*
X81153000Y79502000D02*
X82740500Y77914500D01*
X82740500Y77914500D02*
X86614000Y77914500D01*
X86614000Y77914500D02*
X90487500Y74041000D01*
X106553000Y74041000D02*
X107188000Y74676000D01*
X107188000Y74676000D02*
X110236000Y74676000D01*
X96012000Y81026000D02*
X110236000Y81026000D01*
X139319000Y84582000D02*
X139319000Y87122000D01*
X50165000Y77216000D02*
X52578000Y77216000D01*
X52578000Y77216000D02*
X57023000Y81661000D01*
X56642000Y81280000D02*
X57023000Y81661000D01*
X36703000Y81280000D02*
X56642000Y81280000D01*
X57023000Y81661000D02*
X59436000Y84074000D01*
X9432783Y88360009D02*
X13335000Y88360009D01*
X13335000Y88360009D02*
X20955000Y88360009D01*
X10160000Y93980000D02*
X11432792Y93980000D01*
X11432792Y93980000D02*
X13335000Y92077792D01*
X13335000Y92077792D02*
X13335000Y88360009D01*
X20955000Y92077792D02*
X20955000Y88360009D01*
X20955000Y88360009D02*
X28575000Y88360009D01*
X17780000Y93980000D02*
X19052792Y93980000D01*
X19052792Y93980000D02*
X20955000Y92077792D01*
X2540000Y93980000D02*
X3812792Y93980000D01*
X3812792Y93980000D02*
X9432783Y88360009D01*
X59436000Y91696792D02*
X59436000Y85979000D01*
X43815000Y88360009D02*
X52070000Y88360009D01*
X52070000Y88360009D02*
X57054991Y88360009D01*
X48260000Y93980000D02*
X49532792Y93980000D01*
X49532792Y93980000D02*
X52070000Y91442792D01*
X52070000Y91442792D02*
X52070000Y88360009D01*
X35560000Y88360009D02*
X43815000Y88360009D01*
X41912792Y93980000D02*
X43815000Y92077792D01*
X40640000Y93980000D02*
X41912792Y93980000D01*
X43815000Y92077792D02*
X43815000Y88360009D01*
X28575000Y88360009D02*
X35560000Y88360009D01*
X33020000Y93980000D02*
X34292792Y93980000D01*
X34292792Y93980000D02*
X35560000Y92712792D01*
X35560000Y92712792D02*
X35560000Y88360009D01*
X25400000Y93980000D02*
X26672792Y93980000D01*
X26672792Y93980000D02*
X28575000Y92077792D01*
X28575000Y92077792D02*
X28575000Y88360009D01*
X57054991Y88360009D02*
X59436000Y85979000D01*
X59436000Y85979000D02*
X59436000Y85090000D01*
X59436000Y84074000D02*
X59436000Y85090000D01*
X135987511Y90453489D02*
X138519001Y87921999D01*
X138519001Y87921999D02*
X139319000Y87122000D01*
X135987511Y98962489D02*
X135987511Y90453489D01*
X59436000Y91696792D02*
X68611219Y100872011D01*
X134077989Y100872011D02*
X135987511Y98962489D01*
X55880000Y93980000D02*
X57152792Y93980000D01*
X57152792Y93980000D02*
X59436000Y91696792D01*
X122936000Y100872011D02*
X134077989Y100872011D01*
X68611219Y100872011D02*
X122936000Y100872011D01*
X122682000Y100618011D02*
X122936000Y100872011D01*
X122682000Y85388998D02*
X122682000Y100618011D01*
X124504998Y83566000D02*
X122682000Y85388998D01*
X131699000Y79502000D02*
X127635000Y83566000D01*
X127635000Y83566000D02*
X124504998Y83566000D01*
X91575000Y71501000D02*
X91575000Y71454900D01*
X91575000Y71454900D02*
X91579700Y71450200D01*
X91579700Y71450200D02*
X91262200Y71132700D01*
X91262200Y71132700D02*
X78054200Y71132700D01*
X78054200Y71132700D02*
X77685900Y71501000D01*
X77685900Y71501000D02*
X77097000Y71501000D01*
X91575000Y71501000D02*
X91575000Y71467600D01*
X67191000Y71628000D02*
X67699000Y71120000D01*
X77097000Y71501000D02*
X77097000Y71391400D01*
X142367000Y97790000D02*
X142240000Y97790000D01*
X67191000Y71628000D02*
X38335000Y71628000D01*
X77097000Y71501000D02*
X77089000Y71501000D01*
X77089000Y71501000D02*
X76708000Y71120000D01*
X76708000Y71120000D02*
X67699000Y71120000D01*
X36703000Y73660000D02*
X36703000Y73260000D01*
X36703000Y73260000D02*
X38335000Y71628000D01*
X138519001Y96482001D02*
X139319000Y97282000D01*
X137718999Y91262001D02*
X137718999Y95681999D01*
X137718999Y95681999D02*
X138519001Y96482001D01*
X139319000Y89662000D02*
X137718999Y91262001D01*
X2540000Y73740000D02*
X8610000Y73740000D01*
X8610000Y73740000D02*
X11070000Y76200000D01*
X11070000Y76200000D02*
X35560000Y76200000D01*
X35560000Y76200000D02*
X36703000Y75057000D01*
X36703000Y75057000D02*
X36703000Y73660000D01*
X147574000Y72136000D02*
X147574000Y76327000D01*
X142494000Y97790000D02*
X142367000Y97663000D01*
X147574000Y83312000D02*
X147574000Y76327000D01*
X144018000Y86868000D02*
X147574000Y83312000D01*
X145796000Y88646000D02*
X144018000Y86868000D01*
X145796000Y94551500D02*
X145796000Y88646000D01*
X142367000Y97790000D02*
X142557500Y97790000D01*
X142557500Y97790000D02*
X145796000Y94551500D01*
X139827000Y97790000D02*
X139319000Y97282000D01*
X142367000Y97790000D02*
X139827000Y97790000D01*
X144907000Y72136000D02*
X147574000Y72136000D01*
X138049000Y65278000D02*
X144907000Y72136000D01*
X106434000Y71120000D02*
X114554000Y71120000D01*
X106053000Y71501000D02*
X106434000Y71120000D01*
X91575000Y71493000D02*
X91986100Y71081900D01*
X114554000Y71120000D02*
X120396000Y65278000D01*
X91575000Y71501000D02*
X91575000Y71493000D01*
X91986100Y71081900D02*
X105676700Y71081900D01*
X120396000Y65278000D02*
X138049000Y65278000D01*
X105676700Y71081900D02*
X106045000Y71450200D01*
X106045000Y71450200D02*
X106045000Y71493000D01*
X106045000Y71493000D02*
X106053000Y71501000D01*
D45*
X132498999Y86322001D02*
X131699000Y87122000D01*
X135064500Y83756500D02*
X132498999Y86322001D01*
X135064500Y78422500D02*
X135064500Y83756500D01*
X133148489Y76506489D02*
X135064500Y78422500D01*
X127381000Y78486000D02*
X129360511Y76506489D01*
X129360511Y76506489D02*
X133148489Y76506489D01*
X131572000Y89662000D02*
X131699000Y89662000D01*
X130810000Y89662000D02*
X131572000Y89662000D01*
X129349500Y91122500D02*
X130810000Y89662000D01*
X129349500Y92583000D02*
X129349500Y91122500D01*
X127381000Y93345000D02*
X128587500Y93345000D01*
X128587500Y93345000D02*
X129349500Y92583000D01*
X132969000Y74930000D02*
X136356520Y78317520D01*
X136356520Y87988980D02*
X132943499Y91402001D01*
X132943499Y91402001D02*
X132498999Y91402001D01*
X136356520Y78317520D02*
X136356520Y87988980D01*
X127381000Y74930000D02*
X132969000Y74930000D01*
X132498999Y91402001D02*
X131699000Y92202000D01*
X130873500Y95567500D02*
X131699000Y94742000D01*
X126936500Y95567500D02*
X130873500Y95567500D01*
X125930999Y94561999D02*
X126936500Y95567500D01*
X125930999Y90667501D02*
X125930999Y94561999D01*
X127381000Y89598500D02*
X127000000Y89598500D01*
X127000000Y89598500D02*
X125930999Y90667501D01*
X123825000Y87439500D02*
X125095000Y86169500D01*
X123825000Y98298000D02*
X123825000Y87439500D01*
X124841000Y99314000D02*
X123825000Y98298000D01*
X130746500Y99314000D02*
X124841000Y99314000D01*
X131699000Y97282000D02*
X131699000Y98361500D01*
X131699000Y98361500D02*
X130746500Y99314000D01*
X131445000Y82042000D02*
X131699000Y82042000D01*
X126111000Y97282000D02*
X124873521Y96044521D01*
X127381000Y97282000D02*
X126111000Y97282000D01*
X124873521Y96044521D02*
X124873521Y89311979D01*
X124873521Y89311979D02*
X127698500Y86487000D01*
X127698500Y86487000D02*
X127698500Y85788500D01*
X127698500Y85788500D02*
X131445000Y82042000D01*
X127381000Y80910630D02*
X130885130Y77406500D01*
X132498999Y83782001D02*
X131699000Y84582000D01*
X130885130Y77406500D02*
X132524500Y77406500D01*
X132524500Y77406500D02*
X133667500Y78549500D01*
X133667500Y78549500D02*
X133667500Y82613500D01*
X133667500Y82613500D02*
X132498999Y83782001D01*
D43*
X6985000Y47117000D02*
X8001000Y47117000D01*
X1651000Y45339000D02*
X5207000Y45339000D01*
X5207000Y45339000D02*
X6985000Y47117000D01*
X1651000Y42164000D02*
X6350000Y42164000D01*
X6350000Y42164000D02*
X8001000Y43815000D01*
D44*
X40005000Y77216000D02*
X38481000Y78740000D01*
X38481000Y78740000D02*
X35560000Y78740000D01*
X2540000Y78740000D02*
X35560000Y78740000D01*
X16637000Y1905000D02*
X78841000Y1905000D01*
X78841000Y1905000D02*
X82296000Y5360000D01*
X82296000Y5360000D02*
X82296000Y6350000D01*
D43*
X131445000Y50165000D02*
X131445000Y15621000D01*
X131445000Y15621000D02*
X129794000Y13970000D01*
X129794000Y13970000D02*
X126365000Y13970000D01*
X128905000Y50165000D02*
X128905000Y39370000D01*
X128905000Y39370000D02*
X126365000Y36830000D01*
M02*
