M48
; DRILL file {KiCad (5.1.5)-3} date 9/2/2020 12:12:57 p. m.
; FORMAT={-:-/ absolute / metric / decimal}
; #@! TF.CreationDate,2020-02-09T12:12:57-03:00
; #@! TF.GenerationSoftware,Kicad,Pcbnew,(5.1.5)-3
FMAT,2
METRIC
T1C0.600
T2C0.635
T3C0.800
T4C0.810
T5C0.900
T6C1.000
T7C1.100
T8C1.300
T9C1.400
T10C2.300
T11C3.200
%
G90
G05
T1
X67.691Y74.168
X67.691Y71.628
X70.031Y72.898
X77.597Y74.041
X77.597Y71.501
X79.937Y72.771
X83.312Y96.266
X83.312Y81.026
X85.852Y96.266
X85.852Y81.026
X88.392Y96.266
X88.392Y81.026
X90.932Y96.266
X90.932Y81.026
X93.472Y96.266
X93.472Y81.026
X96.012Y96.266
X96.012Y81.026
X92.075Y74.041
X92.075Y71.501
X94.415Y72.771
X106.553Y74.041
X106.553Y71.501
X108.893Y72.771
T2
X110.236Y81.026
X110.236Y74.676
X135.128Y74.422
X141.605Y74.422
T3
X8.001Y43.878
X15.621Y43.878
X44.45Y93.98
X44.45Y86.36
X107.188Y51.943
X107.188Y44.323
X15.621Y40.64
X15.621Y38.14
X73.025Y75.438
X73.025Y67.818
X29.21Y93.98
X29.21Y86.36
X13.97Y93.98
X13.97Y86.36
X119.888Y11.938
X119.888Y4.318
X119.761Y81.28
X127.381Y81.28
X119.888Y51.943
X119.888Y44.323
X32.385Y43.815
X34.885Y43.815
X36.83Y93.98
X36.83Y86.36
X131.699Y97.282
X131.699Y94.742
X131.699Y92.202
X131.699Y89.662
X131.699Y87.122
X131.699Y84.582
X131.699Y82.042
X131.699Y79.502
X139.319Y97.282
X139.319Y94.742
X139.319Y92.202
X139.319Y89.662
X139.319Y87.122
X139.319Y84.582
X139.319Y82.042
X139.319Y79.502
X-1.27Y93.98
X-1.27Y86.36
X72.136Y36.83
X72.136Y29.21
X119.761Y71.374
X127.381Y71.374
X11.811Y16.51
X11.811Y14.01
X52.07Y93.98
X52.07Y86.36
X119.761Y74.676
X127.381Y74.676
X38.1Y43.815
X40.6Y43.815
X117.475Y86.169
X125.095Y86.169
X20.066Y35.56
X20.066Y20.32
X22.606Y35.56
X22.606Y20.32
X25.146Y35.56
X25.146Y20.32
X27.686Y35.56
X27.686Y20.32
X30.226Y35.56
X30.226Y20.32
X32.766Y35.56
X32.766Y20.32
X35.306Y35.56
X35.306Y20.32
X37.846Y35.56
X37.846Y20.32
X40.386Y35.56
X40.386Y20.32
X42.926Y35.56
X42.926Y20.32
X45.466Y35.56
X45.466Y20.32
X48.006Y35.56
X48.006Y20.32
X50.546Y35.56
X50.546Y20.32
X53.086Y35.56
X53.086Y20.32
X55.626Y35.56
X55.626Y20.32
X58.166Y35.56
X58.166Y20.32
X60.706Y35.56
X60.706Y20.32
X63.246Y35.56
X63.246Y20.32
X65.786Y35.56
X65.786Y20.32
X68.326Y35.56
X68.326Y20.32
X34.29Y40.005
X39.17Y40.005
X72.136Y26.67
X72.136Y19.05
X112.966Y75.438
X112.966Y67.818
X139.954Y76.327
X147.574Y76.327
X119.761Y93.345
X127.381Y93.345
X6.35Y93.98
X6.35Y86.36
X8.001Y47.117
X15.621Y47.117
X85.09Y75.438
X85.09Y67.818
X139.954Y72.136
X147.574Y72.136
X119.761Y77.978
X127.381Y77.978
X142.367Y97.79
X142.367Y90.17
X21.59Y93.98
X21.59Y86.36
X45.466Y17.145
X47.966Y17.145
X119.761Y89.599
X127.381Y89.599
X119.761Y97.218
X127.381Y97.218
X143.764Y86.868
X143.764Y79.248
X77.216Y43.815
X77.216Y41.315
X101.981Y75.438
X101.981Y67.818
X107.188Y11.938
X107.188Y4.318
X16.383Y81.28
X16.383Y73.66
X18.923Y81.28
X18.923Y73.66
X21.463Y81.28
X21.463Y73.66
X24.003Y81.28
X24.003Y73.66
X26.543Y81.28
X26.543Y73.66
X29.083Y81.28
X29.083Y73.66
X31.623Y81.28
X31.623Y73.66
X34.163Y81.28
X34.163Y73.66
X36.703Y81.28
X36.703Y73.66
T4
X2.286Y31.115
X2.286Y28.575
X4.286Y31.115
X4.286Y28.575
T5
X25.4Y93.98
X25.4Y91.44
X48.26Y93.98
X48.26Y91.44
X10.16Y93.98
X10.16Y91.44
X33.02Y93.98
X33.02Y91.44
X55.88Y93.98
X55.88Y91.44
X1.651Y42.164
X1.651Y39.624
X17.78Y93.98
X17.78Y91.44
X2.54Y93.98
X2.54Y91.44
X40.64Y93.98
X40.64Y91.44
X1.651Y47.688
X1.651Y45.148
T6
X84.836Y34.417
X84.836Y31.877
X84.836Y29.337
X84.836Y26.797
X84.836Y24.257
X84.836Y21.717
X77.296Y6.35
X82.376Y6.35
X8.89Y26.67
X8.89Y24.13
X8.89Y21.59
X126.365Y50.165
X128.905Y50.165
X131.445Y50.165
X133.985Y50.165
X126.238Y67.818
X128.778Y67.818
X131.318Y67.818
X133.858Y67.818
X136.398Y67.818
X102.743Y39.878
X105.283Y39.878
X107.823Y39.878
X110.363Y39.878
X16.383Y67.818
X18.923Y67.818
X21.463Y67.818
X24.003Y67.818
X26.543Y67.818
X29.083Y67.818
X31.623Y67.818
X34.163Y67.818
X97.028Y23.368
X97.028Y20.828
X97.028Y18.288
X97.028Y15.748
X6.731Y15.24
X6.731Y12.7
X6.731Y10.16
X50.546Y7.62
X53.086Y7.62
X55.626Y7.62
X58.166Y7.62
X60.706Y7.62
X63.246Y7.62
X65.786Y7.62
X68.326Y7.62
X90.932Y67.818
X93.472Y67.818
X96.012Y67.818
X98.552Y67.818
X20.066Y48.26
X22.606Y48.26
X25.146Y48.26
X27.686Y48.26
X30.226Y48.26
X32.766Y48.26
X35.306Y48.26
X37.846Y48.26
X11.811Y10.16
X11.811Y7.62
X11.811Y5.08
X97.028Y36.068
X97.028Y33.528
X97.028Y30.988
X97.028Y28.448
X20.066Y7.62
X22.606Y7.62
X25.146Y7.62
X27.686Y7.62
X30.226Y7.62
X32.766Y7.62
X35.306Y7.62
X37.846Y7.62
X2.476Y78.74
X2.476Y73.66
X48.006Y48.26
X50.546Y48.26
X53.086Y48.26
X55.626Y48.26
X58.166Y48.26
X60.706Y48.26
X63.246Y48.26
X65.786Y48.26
X68.326Y48.26
T7
X111.578Y51.308
X111.578Y44.808
X116.078Y51.308
X116.078Y44.808
X75.438Y36.957
X75.438Y30.457
X79.938Y36.957
X79.938Y30.457
X111.633Y10.668
X111.633Y4.168
X116.133Y10.668
X116.133Y4.168
X98.933Y10.668
X98.933Y4.168
X103.433Y10.668
X103.433Y4.168
X75.438Y25.55
X75.438Y19.05
X79.938Y25.55
X79.938Y19.05
X98.878Y51.308
X98.878Y44.808
X103.378Y51.308
X103.378Y44.808
T8
X126.365Y18.97
X126.365Y13.97
X126.365Y8.97
X126.365Y41.83
X126.365Y36.83
X126.365Y31.83
T9
X40.005Y77.216
X50.165Y77.216
X6.477Y1.905
X16.637Y1.905
T10
X-0.414Y35.845
X-0.414Y23.845
T11
X0.0Y55.245
X147.32Y0.0
X0.0Y66.675
X0.0Y0.0
X147.32Y54.61
X147.32Y66.675
X147.32Y99.06
X0.0Y99.06
T0
M30
