<?xml version="1.0" standalone="no"?>
 <!DOCTYPE svg PUBLIC "-//W3C//DTD SVG 1.1//EN" 
 "http://www.w3.org/Graphics/SVG/1.1/DTD/svg11.dtd"> 
<svg xmlns="http://www.w3.org/2000/svg" version="1.1" 
    width="29.7002cm" height="21.0007cm" viewBox="0 0 116930 82680 ">
<title>SVG Picture created as Entrenador1-SchDoc-Edge.Cuts.svg date 2018/02/05 19:45:38 </title>
  <desc>Picture generated by PCBNEW </desc>
<g style="fill:#000000; fill-opacity:1;stroke:#000000; stroke-opacity:1;
stroke-linecap:round; stroke-linejoin:round; "
 transform="translate(0 0) scale(1 1)">
</g>
<g style="fill:#000000; fill-opacity:0.0; 
stroke:#000000; stroke-width:-0.000393701; stroke-opacity:1; 
stroke-linecap:round; stroke-linejoin:round;">
</g>
<g style="fill:#000000; fill-opacity:0.0; 
stroke:#000000; stroke-width:39.3701; stroke-opacity:1; 
stroke-linecap:round; stroke-linejoin:round;">
<circle cx="35000" cy="43500" r="500" /> 
<circle cx="35000" cy="40000" r="500" /> 
<circle cx="84500" cy="14500" r="500" /> 
<circle cx="27500" cy="14500" r="500" /> 
<circle cx="27500" cy="27000" r="500" /> 
<circle cx="84500" cy="32000" r="500" /> 
<circle cx="84500" cy="53500" r="500" /> 
<circle cx="84500" cy="27000" r="500" /> 
<circle cx="27500" cy="31500" r="500" /> 
<circle cx="27500" cy="53500" r="500" /> 
<path d="M84000 30250
L28000 30250
" />
<path d="M28000 28750
L84000 28750
" />
<path d="M84000 30250 A750 750 0.0 0 0 84000 28750 " />
<path d="M86000 30250
L86000 31000
" />
<path d="M86000 28750
L86000 28000
" />
<path d="M86000 28750 A750 750 0.0 0 0 86000 30250 " />
<path d="M26000 30250
L26000 31000
" />
<path d="M26000 28750
L26000 28000
" />
<path d="M28000 28750 A750 750 0.0 0 0 28000 30250 " />
<path d="M26000 30250 A750 750 0.0 0 0 26000 28750 " />
<path d="M86000 28000
L86000 13000
" />
<path d="M26000 13000
L26000 28000
" />
<path d="M86000 31000
L86000 55000
" />
<path d="M26000 55000
L26000 31000
" />
<path d="M86000 55000
L26000 55000
" />
<path d="M26000 13000
L86000 13000
" />
</g> 
</svg>
